<?xml version="1.0" encoding="UTF-8" standalone="no"?>
<!DOCTYPE svg PUBLIC "-//W3C//DTD SVG 1.1//EN"
 "http://www.w3.org/Graphics/SVG/1.1/DTD/svg11.dtd">
<!-- Generated by graphviz version 2.47.1 (20210417.1919)
 -->
<!-- Title: Tree Pages: 1 -->
<svg width="5386pt" height="627pt"
 viewBox="0.00 0.00 5386.00 627.00" xmlns="http://www.w3.org/2000/svg" xmlns:xlink="http://www.w3.org/1999/xlink">
<g id="graph0" class="graph" transform="scale(1 1) rotate(0) translate(4 623)">
<title>Tree</title>
<polygon fill="white" stroke="transparent" points="-4,4 -4,-623 5382,-623 5382,4 -4,4"/>
<!-- 0 -->
<g id="node1" class="node">
<title>0</title>
<path fill="#fdf7f3" stroke="black" d="M2833,-619C2833,-619 2520,-619 2520,-619 2514,-619 2508,-613 2508,-607 2508,-607 2508,-533 2508,-533 2508,-527 2514,-521 2520,-521 2520,-521 2833,-521 2833,-521 2839,-521 2845,-527 2845,-533 2845,-533 2845,-607 2845,-607 2845,-613 2839,-619 2833,-619"/>
<text text-anchor="start" x="2614.5" y="-603.8" font-family="Helvetica,sans-Serif" font-size="14.00">transmission ≤ 0.64</text>
<text text-anchor="start" x="2662" y="-588.8" font-family="Helvetica,sans-Serif" font-size="14.00">0.82</text>
<text text-anchor="start" x="2651.5" y="-573.8" font-family="Helvetica,sans-Serif" font-size="14.00">100.0%</text>
<text text-anchor="start" x="2516" y="-558.8" font-family="Helvetica,sans-Serif" font-size="14.00">[0.28, 0.23, 0.16, 0.12, 0.07, 0.05, 0.03, 0.02, 0.01</text>
<text text-anchor="start" x="2533" y="-543.8" font-family="Helvetica,sans-Serif" font-size="14.00">0.01, 0.01, 0.0, 0.0, 0.0, 0.0, 0.0, 0.0, 0.0, 0.0</text>
<text text-anchor="start" x="2664" y="-528.8" font-family="Helvetica,sans-Serif" font-size="14.00">0.0]</text>
</g>
<!-- 1 -->
<g id="node2" class="node">
<title>1</title>
<path fill="#fbeade" stroke="black" d="M2161,-485C2161,-485 1856,-485 1856,-485 1850,-485 1844,-479 1844,-473 1844,-473 1844,-399 1844,-399 1844,-393 1850,-387 1856,-387 1856,-387 2161,-387 2161,-387 2167,-387 2173,-393 2173,-399 2173,-399 2173,-473 2173,-473 2173,-479 2167,-485 2161,-485"/>
<text text-anchor="start" x="1955.5" y="-469.8" font-family="Helvetica,sans-Serif" font-size="14.00">odometer ≤ 9.99</text>
<text text-anchor="start" x="1994" y="-454.8" font-family="Helvetica,sans-Serif" font-size="14.00">0.74</text>
<text text-anchor="start" x="1987.5" y="-439.8" font-family="Helvetica,sans-Serif" font-size="14.00">65.3%</text>
<text text-anchor="start" x="1852" y="-424.8" font-family="Helvetica,sans-Serif" font-size="14.00">[0.39, 0.27, 0.15, 0.09, 0.04, 0.02, 0.01, 0.01, 0.0</text>
<text text-anchor="start" x="1873" y="-409.8" font-family="Helvetica,sans-Serif" font-size="14.00">0.0, 0.0, 0.0, 0.0, 0.0, 0.0, 0.0, 0.0, 0.0, 0.0</text>
<text text-anchor="start" x="1996" y="-394.8" font-family="Helvetica,sans-Serif" font-size="14.00">0.0]</text>
</g>
<!-- 0&#45;&gt;1 -->
<g id="edge1" class="edge">
<title>0&#45;&gt;1</title>
<path fill="none" stroke="black" d="M2507.94,-535.69C2408.72,-516.09 2283.45,-491.33 2183.19,-471.52"/>
<polygon fill="black" stroke="black" points="2183.74,-468.06 2173.26,-469.56 2182.39,-474.93 2183.74,-468.06"/>
<text text-anchor="middle" x="2187.17" y="-486.63" font-family="Helvetica,sans-Serif" font-size="14.00">True</text>
</g>
<!-- 16 -->
<g id="node17" class="node">
<title>16</title>
<path fill="#fffffc" stroke="black" d="M3496,-485C3496,-485 3191,-485 3191,-485 3185,-485 3179,-479 3179,-473 3179,-473 3179,-399 3179,-399 3179,-393 3185,-387 3191,-387 3191,-387 3496,-387 3496,-387 3502,-387 3508,-393 3508,-399 3508,-399 3508,-473 3508,-473 3508,-479 3502,-485 3496,-485"/>
<text text-anchor="start" x="3295.5" y="-469.8" font-family="Helvetica,sans-Serif" font-size="14.00">year ≤ 2002.63</text>
<text text-anchor="start" x="3329" y="-454.8" font-family="Helvetica,sans-Serif" font-size="14.00">0.88</text>
<text text-anchor="start" x="3322.5" y="-439.8" font-family="Helvetica,sans-Serif" font-size="14.00">34.7%</text>
<text text-anchor="start" x="3187" y="-424.8" font-family="Helvetica,sans-Serif" font-size="14.00">[0.06, 0.16, 0.18, 0.17, 0.12, 0.1, 0.06, 0.05, 0.02</text>
<text text-anchor="start" x="3193" y="-409.8" font-family="Helvetica,sans-Serif" font-size="14.00">0.02, 0.01, 0.01, 0.01, 0.01, 0.01, 0.01, 0.0, 0.0</text>
<text text-anchor="start" x="3317.5" y="-394.8" font-family="Helvetica,sans-Serif" font-size="14.00">0.0, 0.0]</text>
</g>
<!-- 0&#45;&gt;16 -->
<g id="edge16" class="edge">
<title>0&#45;&gt;16</title>
<path fill="none" stroke="black" d="M2845.24,-535.61C2944.22,-516.02 3069.06,-491.31 3169.01,-471.53"/>
<polygon fill="black" stroke="black" points="3169.78,-474.95 3178.91,-469.57 3168.42,-468.08 3169.78,-474.95"/>
<text text-anchor="middle" x="3165" y="-486.65" font-family="Helvetica,sans-Serif" font-size="14.00">False</text>
</g>
<!-- 2 -->
<g id="node3" class="node">
<title>2</title>
<path fill="#fdf7f2" stroke="black" d="M1152,-351C1152,-351 847,-351 847,-351 841,-351 835,-345 835,-339 835,-339 835,-265 835,-265 835,-259 841,-253 847,-253 847,-253 1152,-253 1152,-253 1158,-253 1164,-259 1164,-265 1164,-265 1164,-339 1164,-339 1164,-345 1158,-351 1152,-351"/>
<text text-anchor="start" x="951.5" y="-335.8" font-family="Helvetica,sans-Serif" font-size="14.00">year ≤ 1989.11</text>
<text text-anchor="start" x="985" y="-320.8" font-family="Helvetica,sans-Serif" font-size="14.00">0.81</text>
<text text-anchor="start" x="978.5" y="-305.8" font-family="Helvetica,sans-Serif" font-size="14.00">28.0%</text>
<text text-anchor="start" x="843" y="-290.8" font-family="Helvetica,sans-Serif" font-size="14.00">[0.26, 0.21, 0.2, 0.16, 0.07, 0.05, 0.02, 0.01, 0.01</text>
<text text-anchor="start" x="864" y="-275.8" font-family="Helvetica,sans-Serif" font-size="14.00">0.0, 0.0, 0.0, 0.0, 0.0, 0.0, 0.0, 0.0, 0.0, 0.0</text>
<text text-anchor="start" x="987" y="-260.8" font-family="Helvetica,sans-Serif" font-size="14.00">0.0]</text>
</g>
<!-- 1&#45;&gt;2 -->
<g id="edge2" class="edge">
<title>1&#45;&gt;2</title>
<path fill="none" stroke="black" d="M1843.86,-413.46C1659.61,-389.36 1362.32,-350.46 1174.11,-325.84"/>
<polygon fill="black" stroke="black" points="1174.48,-322.36 1164.11,-324.53 1173.57,-329.3 1174.48,-322.36"/>
</g>
<!-- 9 -->
<g id="node10" class="node">
<title>9</title>
<path fill="#f8dfcc" stroke="black" d="M2152.5,-351C2152.5,-351 1864.5,-351 1864.5,-351 1858.5,-351 1852.5,-345 1852.5,-339 1852.5,-339 1852.5,-265 1852.5,-265 1852.5,-259 1858.5,-253 1864.5,-253 1864.5,-253 2152.5,-253 2152.5,-253 2158.5,-253 2164.5,-259 2164.5,-265 2164.5,-265 2164.5,-339 2164.5,-339 2164.5,-345 2158.5,-351 2152.5,-351"/>
<text text-anchor="start" x="1957" y="-335.8" font-family="Helvetica,sans-Serif" font-size="14.00">fuel_type ≤ 0.42</text>
<text text-anchor="start" x="1994" y="-320.8" font-family="Helvetica,sans-Serif" font-size="14.00">0.64</text>
<text text-anchor="start" x="1987.5" y="-305.8" font-family="Helvetica,sans-Serif" font-size="14.00">37.4%</text>
<text text-anchor="start" x="1860.5" y="-290.8" font-family="Helvetica,sans-Serif" font-size="14.00">[0.49, 0.32, 0.12, 0.04, 0.02, 0.01, 0.0, 0.0, 0.0</text>
<text text-anchor="start" x="1873" y="-275.8" font-family="Helvetica,sans-Serif" font-size="14.00">0.0, 0.0, 0.0, 0.0, 0.0, 0.0, 0.0, 0.0, 0.0, 0.0</text>
<text text-anchor="start" x="1996" y="-260.8" font-family="Helvetica,sans-Serif" font-size="14.00">0.0]</text>
</g>
<!-- 1&#45;&gt;9 -->
<g id="edge9" class="edge">
<title>1&#45;&gt;9</title>
<path fill="none" stroke="black" d="M2008.5,-386.97C2008.5,-378.69 2008.5,-370 2008.5,-361.48"/>
<polygon fill="black" stroke="black" points="2012,-361.21 2008.5,-351.21 2005,-361.21 2012,-361.21"/>
</g>
<!-- 3 -->
<g id="node4" class="node">
<title>3</title>
<path fill="#e78d4b" stroke="black" d="M644,-209.5C644,-209.5 345,-209.5 345,-209.5 339,-209.5 333,-203.5 333,-197.5 333,-197.5 333,-138.5 333,-138.5 333,-132.5 339,-126.5 345,-126.5 345,-126.5 644,-126.5 644,-126.5 650,-126.5 656,-132.5 656,-138.5 656,-138.5 656,-197.5 656,-197.5 656,-203.5 650,-209.5 644,-209.5"/>
<text text-anchor="start" x="443" y="-194.3" font-family="Helvetica,sans-Serif" font-size="14.00">fuel_type ≤ 0.31</text>
<text text-anchor="start" x="480" y="-179.3" font-family="Helvetica,sans-Serif" font-size="14.00">0.16</text>
<text text-anchor="start" x="477.5" y="-164.3" font-family="Helvetica,sans-Serif" font-size="14.00">1.1%</text>
<text text-anchor="start" x="341" y="-149.3" font-family="Helvetica,sans-Serif" font-size="14.00">[0.91, 0.06, 0.01, 0.0, 0.0, 0.01, 0.0, 0.0, 0.0, 0.0</text>
<text text-anchor="start" x="357.5" y="-134.3" font-family="Helvetica,sans-Serif" font-size="14.00">0.0, 0.0, 0.0, 0.0, 0.0, 0.0, 0.0, 0.0, 0.0, 0.0]</text>
</g>
<!-- 2&#45;&gt;3 -->
<g id="edge3" class="edge">
<title>2&#45;&gt;3</title>
<path fill="none" stroke="black" d="M834.84,-257.96C778.52,-243.24 715.54,-226.78 659.21,-212.05"/>
<polygon fill="black" stroke="black" points="660.06,-208.66 649.5,-209.52 658.29,-215.43 660.06,-208.66"/>
</g>
<!-- 6 -->
<g id="node7" class="node">
<title>6</title>
<path fill="#fefbf9" stroke="black" d="M1152,-217C1152,-217 847,-217 847,-217 841,-217 835,-211 835,-205 835,-205 835,-131 835,-131 835,-125 841,-119 847,-119 847,-119 1152,-119 1152,-119 1158,-119 1164,-125 1164,-131 1164,-131 1164,-205 1164,-205 1164,-211 1158,-217 1152,-217"/>
<text text-anchor="start" x="951.5" y="-201.8" font-family="Helvetica,sans-Serif" font-size="14.00">year ≤ 2006.23</text>
<text text-anchor="start" x="985" y="-186.8" font-family="Helvetica,sans-Serif" font-size="14.00">0.82</text>
<text text-anchor="start" x="978.5" y="-171.8" font-family="Helvetica,sans-Serif" font-size="14.00">26.9%</text>
<text text-anchor="start" x="843" y="-156.8" font-family="Helvetica,sans-Serif" font-size="14.00">[0.24, 0.22, 0.2, 0.16, 0.08, 0.05, 0.02, 0.01, 0.01</text>
<text text-anchor="start" x="864" y="-141.8" font-family="Helvetica,sans-Serif" font-size="14.00">0.0, 0.0, 0.0, 0.0, 0.0, 0.0, 0.0, 0.0, 0.0, 0.0</text>
<text text-anchor="start" x="987" y="-126.8" font-family="Helvetica,sans-Serif" font-size="14.00">0.0]</text>
</g>
<!-- 2&#45;&gt;6 -->
<g id="edge6" class="edge">
<title>2&#45;&gt;6</title>
<path fill="none" stroke="black" d="M999.5,-252.97C999.5,-244.69 999.5,-236 999.5,-227.48"/>
<polygon fill="black" stroke="black" points="1003,-227.21 999.5,-217.21 996,-227.21 1003,-227.21"/>
</g>
<!-- 4 -->
<g id="node5" class="node">
<title>4</title>
<path fill="#e78c4a" stroke="black" d="M303,-75.5C303,-75.5 12,-75.5 12,-75.5 6,-75.5 0,-69.5 0,-63.5 0,-63.5 0,-19.5 0,-19.5 0,-13.5 6,-7.5 12,-7.5 12,-7.5 303,-7.5 303,-7.5 309,-7.5 315,-13.5 315,-19.5 315,-19.5 315,-63.5 315,-63.5 315,-69.5 309,-75.5 303,-75.5"/>
<text text-anchor="start" x="143" y="-60.3" font-family="Helvetica,sans-Serif" font-size="14.00">0.15</text>
<text text-anchor="start" x="140.5" y="-45.3" font-family="Helvetica,sans-Serif" font-size="14.00">0.8%</text>
<text text-anchor="start" x="8" y="-30.3" font-family="Helvetica,sans-Serif" font-size="14.00">[0.92, 0.06, 0.01, 0.0, 0.0, 0.0, 0.0, 0.0, 0.0, 0.0</text>
<text text-anchor="start" x="20.5" y="-15.3" font-family="Helvetica,sans-Serif" font-size="14.00">0.0, 0.0, 0.0, 0.0, 0.0, 0.0, 0.0, 0.0, 0.0, 0.0]</text>
</g>
<!-- 3&#45;&gt;4 -->
<g id="edge4" class="edge">
<title>3&#45;&gt;4</title>
<path fill="none" stroke="black" d="M384.62,-126.41C343.37,-111.17 296.76,-93.95 256.54,-79.09"/>
<polygon fill="black" stroke="black" points="257.59,-75.75 247,-75.56 255.17,-82.31 257.59,-75.75"/>
</g>
<!-- 5 -->
<g id="node6" class="node">
<title>5</title>
<path fill="#e89050" stroke="black" d="M644,-75.5C644,-75.5 345,-75.5 345,-75.5 339,-75.5 333,-69.5 333,-63.5 333,-63.5 333,-19.5 333,-19.5 333,-13.5 339,-7.5 345,-7.5 345,-7.5 644,-7.5 644,-7.5 650,-7.5 656,-13.5 656,-19.5 656,-19.5 656,-63.5 656,-63.5 656,-69.5 650,-75.5 644,-75.5"/>
<text text-anchor="start" x="484" y="-60.3" font-family="Helvetica,sans-Serif" font-size="14.00">0.2</text>
<text text-anchor="start" x="477.5" y="-45.3" font-family="Helvetica,sans-Serif" font-size="14.00">0.3%</text>
<text text-anchor="start" x="341" y="-30.3" font-family="Helvetica,sans-Serif" font-size="14.00">[0.89, 0.07, 0.03, 0.0, 0.0, 0.01, 0.0, 0.0, 0.0, 0.0</text>
<text text-anchor="start" x="357.5" y="-15.3" font-family="Helvetica,sans-Serif" font-size="14.00">0.0, 0.0, 0.0, 0.0, 0.0, 0.0, 0.0, 0.0, 0.0, 0.0]</text>
</g>
<!-- 3&#45;&gt;5 -->
<g id="edge5" class="edge">
<title>3&#45;&gt;5</title>
<path fill="none" stroke="black" d="M494.5,-126.23C494.5,-113.36 494.5,-99.1 494.5,-86.04"/>
<polygon fill="black" stroke="black" points="498,-85.88 494.5,-75.88 491,-85.88 498,-85.88"/>
</g>
<!-- 7 -->
<g id="node8" class="node">
<title>7</title>
<path fill="#f9e0ce" stroke="black" d="M966.5,-83C966.5,-83 686.5,-83 686.5,-83 680.5,-83 674.5,-77 674.5,-71 674.5,-71 674.5,-12 674.5,-12 674.5,-6 680.5,0 686.5,0 686.5,0 966.5,0 966.5,0 972.5,0 978.5,-6 978.5,-12 978.5,-12 978.5,-71 978.5,-71 978.5,-77 972.5,-83 966.5,-83"/>
<text text-anchor="start" x="812" y="-67.8" font-family="Helvetica,sans-Serif" font-size="14.00">0.61</text>
<text text-anchor="start" x="805.5" y="-52.8" font-family="Helvetica,sans-Serif" font-size="14.00">12.6%</text>
<text text-anchor="start" x="682.5" y="-37.8" font-family="Helvetica,sans-Serif" font-size="14.00">[0.51, 0.35, 0.11, 0.03, 0.01, 0.0, 0.0, 0.0, 0.0</text>
<text text-anchor="start" x="691" y="-22.8" font-family="Helvetica,sans-Serif" font-size="14.00">0.0, 0.0, 0.0, 0.0, 0.0, 0.0, 0.0, 0.0, 0.0, 0.0</text>
<text text-anchor="start" x="814" y="-7.8" font-family="Helvetica,sans-Serif" font-size="14.00">0.0]</text>
</g>
<!-- 6&#45;&gt;7 -->
<g id="edge7" class="edge">
<title>6&#45;&gt;7</title>
<path fill="none" stroke="black" d="M932.61,-118.87C918.99,-109.06 904.68,-98.77 891.14,-89.02"/>
<polygon fill="black" stroke="black" points="892.98,-86.03 882.82,-83.03 888.89,-91.71 892.98,-86.03"/>
</g>
<!-- 8 -->
<g id="node9" class="node">
<title>8</title>
<path fill="#fffffe" stroke="black" d="M1314,-83C1314,-83 1009,-83 1009,-83 1003,-83 997,-77 997,-71 997,-71 997,-12 997,-12 997,-6 1003,0 1009,0 1009,0 1314,0 1314,0 1320,0 1326,-6 1326,-12 1326,-12 1326,-71 1326,-71 1326,-77 1320,-83 1314,-83"/>
<text text-anchor="start" x="1151" y="-67.8" font-family="Helvetica,sans-Serif" font-size="14.00">0.8</text>
<text text-anchor="start" x="1140.5" y="-52.8" font-family="Helvetica,sans-Serif" font-size="14.00">14.3%</text>
<text text-anchor="start" x="1005" y="-37.8" font-family="Helvetica,sans-Serif" font-size="14.00">[0.0, 0.11, 0.28, 0.29, 0.14, 0.09, 0.04, 0.03, 0.01</text>
<text text-anchor="start" x="1018" y="-22.8" font-family="Helvetica,sans-Serif" font-size="14.00">0.01, 0.01, 0.0, 0.0, 0.0, 0.0, 0.0, 0.0, 0.0, 0.0</text>
<text text-anchor="start" x="1149" y="-7.8" font-family="Helvetica,sans-Serif" font-size="14.00">0.0]</text>
</g>
<!-- 6&#45;&gt;8 -->
<g id="edge8" class="edge">
<title>6&#45;&gt;8</title>
<path fill="none" stroke="black" d="M1062.13,-118.87C1074.77,-109.15 1088.03,-98.96 1100.61,-89.3"/>
<polygon fill="black" stroke="black" points="1102.96,-91.9 1108.76,-83.03 1098.7,-86.35 1102.96,-91.9"/>
</g>
<!-- 10 -->
<g id="node11" class="node">
<title>10</title>
<path fill="#f0b88f" stroke="black" d="M1990,-209.5C1990,-209.5 1691,-209.5 1691,-209.5 1685,-209.5 1679,-203.5 1679,-197.5 1679,-197.5 1679,-138.5 1679,-138.5 1679,-132.5 1685,-126.5 1691,-126.5 1691,-126.5 1990,-126.5 1990,-126.5 1996,-126.5 2002,-132.5 2002,-138.5 2002,-138.5 2002,-197.5 2002,-197.5 2002,-203.5 1996,-209.5 1990,-209.5"/>
<text text-anchor="start" x="1783.5" y="-194.3" font-family="Helvetica,sans-Serif" font-size="14.00">odometer ≤ 14.57</text>
<text text-anchor="start" x="1826" y="-179.3" font-family="Helvetica,sans-Serif" font-size="14.00">0.47</text>
<text text-anchor="start" x="1819.5" y="-164.3" font-family="Helvetica,sans-Serif" font-size="14.00">19.7%</text>
<text text-anchor="start" x="1687" y="-149.3" font-family="Helvetica,sans-Serif" font-size="14.00">[0.68, 0.26, 0.05, 0.01, 0.0, 0.0, 0.0, 0.0, 0.0, 0.0</text>
<text text-anchor="start" x="1703.5" y="-134.3" font-family="Helvetica,sans-Serif" font-size="14.00">0.0, 0.0, 0.0, 0.0, 0.0, 0.0, 0.0, 0.0, 0.0, 0.0]</text>
</g>
<!-- 9&#45;&gt;10 -->
<g id="edge10" class="edge">
<title>9&#45;&gt;10</title>
<path fill="none" stroke="black" d="M1947.37,-252.97C1931.95,-240.86 1915.42,-227.87 1900.08,-215.81"/>
<polygon fill="black" stroke="black" points="1902.2,-213.03 1892.18,-209.6 1897.88,-218.53 1902.2,-213.03"/>
</g>
<!-- 13 -->
<g id="node14" class="node">
<title>13</title>
<path fill="#fcf5e5" stroke="black" d="M2320.5,-217C2320.5,-217 2032.5,-217 2032.5,-217 2026.5,-217 2020.5,-211 2020.5,-205 2020.5,-205 2020.5,-131 2020.5,-131 2020.5,-125 2026.5,-119 2032.5,-119 2032.5,-119 2320.5,-119 2320.5,-119 2326.5,-119 2332.5,-125 2332.5,-131 2332.5,-131 2332.5,-205 2332.5,-205 2332.5,-211 2326.5,-217 2320.5,-217"/>
<text text-anchor="start" x="2128.5" y="-201.8" font-family="Helvetica,sans-Serif" font-size="14.00">year ≤ 1989.79</text>
<text text-anchor="start" x="2162" y="-186.8" font-family="Helvetica,sans-Serif" font-size="14.00">0.73</text>
<text text-anchor="start" x="2155.5" y="-171.8" font-family="Helvetica,sans-Serif" font-size="14.00">17.7%</text>
<text text-anchor="start" x="2028.5" y="-156.8" font-family="Helvetica,sans-Serif" font-size="14.00">[0.28, 0.38, 0.2, 0.08, 0.03, 0.01, 0.01, 0.0, 0.0</text>
<text text-anchor="start" x="2041" y="-141.8" font-family="Helvetica,sans-Serif" font-size="14.00">0.0, 0.0, 0.0, 0.0, 0.0, 0.0, 0.0, 0.0, 0.0, 0.0</text>
<text text-anchor="start" x="2164" y="-126.8" font-family="Helvetica,sans-Serif" font-size="14.00">0.0]</text>
</g>
<!-- 9&#45;&gt;13 -->
<g id="edge13" class="edge">
<title>9&#45;&gt;13</title>
<path fill="none" stroke="black" d="M2069.63,-252.97C2081.79,-243.42 2094.64,-233.32 2107.05,-223.57"/>
<polygon fill="black" stroke="black" points="2109.44,-226.14 2115.14,-217.21 2105.11,-220.64 2109.44,-226.14"/>
</g>
<!-- 11 -->
<g id="node12" class="node">
<title>11</title>
<path fill="#f1bb94" stroke="black" d="M1655,-75.5C1655,-75.5 1356,-75.5 1356,-75.5 1350,-75.5 1344,-69.5 1344,-63.5 1344,-63.5 1344,-19.5 1344,-19.5 1344,-13.5 1350,-7.5 1356,-7.5 1356,-7.5 1655,-7.5 1655,-7.5 1661,-7.5 1667,-13.5 1667,-19.5 1667,-19.5 1667,-63.5 1667,-63.5 1667,-69.5 1661,-75.5 1655,-75.5"/>
<text text-anchor="start" x="1491" y="-60.3" font-family="Helvetica,sans-Serif" font-size="14.00">0.49</text>
<text text-anchor="start" x="1484.5" y="-45.3" font-family="Helvetica,sans-Serif" font-size="14.00">14.9%</text>
<text text-anchor="start" x="1352" y="-30.3" font-family="Helvetica,sans-Serif" font-size="14.00">[0.66, 0.27, 0.06, 0.01, 0.0, 0.0, 0.0, 0.0, 0.0, 0.0</text>
<text text-anchor="start" x="1368.5" y="-15.3" font-family="Helvetica,sans-Serif" font-size="14.00">0.0, 0.0, 0.0, 0.0, 0.0, 0.0, 0.0, 0.0, 0.0, 0.0]</text>
</g>
<!-- 10&#45;&gt;11 -->
<g id="edge11" class="edge">
<title>10&#45;&gt;11</title>
<path fill="none" stroke="black" d="M1731.27,-126.41C1690.26,-111.17 1643.93,-93.95 1603.96,-79.09"/>
<polygon fill="black" stroke="black" points="1605.06,-75.77 1594.47,-75.56 1602.62,-82.33 1605.06,-75.77"/>
</g>
<!-- 12 -->
<g id="node13" class="node">
<title>12</title>
<path fill="#eeae80" stroke="black" d="M1988,-75.5C1988,-75.5 1697,-75.5 1697,-75.5 1691,-75.5 1685,-69.5 1685,-63.5 1685,-63.5 1685,-19.5 1685,-19.5 1685,-13.5 1691,-7.5 1697,-7.5 1697,-7.5 1988,-7.5 1988,-7.5 1994,-7.5 2000,-13.5 2000,-19.5 2000,-19.5 2000,-63.5 2000,-63.5 2000,-69.5 1994,-75.5 1988,-75.5"/>
<text text-anchor="start" x="1828" y="-60.3" font-family="Helvetica,sans-Serif" font-size="14.00">0.41</text>
<text text-anchor="start" x="1825.5" y="-45.3" font-family="Helvetica,sans-Serif" font-size="14.00">4.8%</text>
<text text-anchor="start" x="1693" y="-30.3" font-family="Helvetica,sans-Serif" font-size="14.00">[0.73, 0.24, 0.02, 0.0, 0.0, 0.0, 0.0, 0.0, 0.0, 0.0</text>
<text text-anchor="start" x="1705.5" y="-15.3" font-family="Helvetica,sans-Serif" font-size="14.00">0.0, 0.0, 0.0, 0.0, 0.0, 0.0, 0.0, 0.0, 0.0, 0.0]</text>
</g>
<!-- 10&#45;&gt;12 -->
<g id="edge12" class="edge">
<title>10&#45;&gt;12</title>
<path fill="none" stroke="black" d="M1841.15,-126.23C1841.36,-113.36 1841.59,-99.1 1841.8,-86.04"/>
<polygon fill="black" stroke="black" points="1845.3,-85.93 1841.96,-75.88 1838.3,-85.82 1845.3,-85.93"/>
</g>
<!-- 14 -->
<g id="node15" class="node">
<title>14</title>
<path fill="#ea985e" stroke="black" d="M2321,-75.5C2321,-75.5 2030,-75.5 2030,-75.5 2024,-75.5 2018,-69.5 2018,-63.5 2018,-63.5 2018,-19.5 2018,-19.5 2018,-13.5 2024,-7.5 2030,-7.5 2030,-7.5 2321,-7.5 2321,-7.5 2327,-7.5 2333,-13.5 2333,-19.5 2333,-19.5 2333,-63.5 2333,-63.5 2333,-69.5 2327,-75.5 2321,-75.5"/>
<text text-anchor="start" x="2161" y="-60.3" font-family="Helvetica,sans-Serif" font-size="14.00">0.28</text>
<text text-anchor="start" x="2158.5" y="-45.3" font-family="Helvetica,sans-Serif" font-size="14.00">0.8%</text>
<text text-anchor="start" x="2026" y="-30.3" font-family="Helvetica,sans-Serif" font-size="14.00">[0.84, 0.14, 0.01, 0.0, 0.0, 0.0, 0.0, 0.0, 0.0, 0.0</text>
<text text-anchor="start" x="2038.5" y="-15.3" font-family="Helvetica,sans-Serif" font-size="14.00">0.0, 0.0, 0.0, 0.0, 0.0, 0.0, 0.0, 0.0, 0.0, 0.0]</text>
</g>
<!-- 13&#45;&gt;14 -->
<g id="edge14" class="edge">
<title>13&#45;&gt;14</title>
<path fill="none" stroke="black" d="M2176.11,-118.87C2176.03,-108.09 2175.94,-96.71 2175.85,-86.13"/>
<polygon fill="black" stroke="black" points="2179.35,-85.84 2175.77,-75.86 2172.35,-85.89 2179.35,-85.84"/>
</g>
<!-- 15 -->
<g id="node16" class="node">
<title>15</title>
<path fill="#faf2dc" stroke="black" d="M2659.5,-83C2659.5,-83 2363.5,-83 2363.5,-83 2357.5,-83 2351.5,-77 2351.5,-71 2351.5,-71 2351.5,-12 2351.5,-12 2351.5,-6 2357.5,0 2363.5,0 2363.5,0 2659.5,0 2659.5,0 2665.5,0 2671.5,-6 2671.5,-12 2671.5,-12 2671.5,-71 2671.5,-71 2671.5,-77 2665.5,-83 2659.5,-83"/>
<text text-anchor="start" x="2497" y="-67.8" font-family="Helvetica,sans-Serif" font-size="14.00">0.73</text>
<text text-anchor="start" x="2490.5" y="-52.8" font-family="Helvetica,sans-Serif" font-size="14.00">16.9%</text>
<text text-anchor="start" x="2359.5" y="-37.8" font-family="Helvetica,sans-Serif" font-size="14.00">[0.26, 0.39, 0.21, 0.08, 0.03, 0.01, 0.01, 0.0, 0.0</text>
<text text-anchor="start" x="2376" y="-22.8" font-family="Helvetica,sans-Serif" font-size="14.00">0.0, 0.0, 0.0, 0.0, 0.0, 0.0, 0.0, 0.0, 0.0, 0.0</text>
<text text-anchor="start" x="2499" y="-7.8" font-family="Helvetica,sans-Serif" font-size="14.00">0.0]</text>
</g>
<!-- 13&#45;&gt;15 -->
<g id="edge15" class="edge">
<title>13&#45;&gt;15</title>
<path fill="none" stroke="black" d="M2306.02,-118.87C2334.64,-108.23 2364.82,-97.01 2392.97,-86.55"/>
<polygon fill="black" stroke="black" points="2394.28,-89.8 2402.44,-83.03 2391.84,-83.24 2394.28,-89.8"/>
</g>
<!-- 17 -->
<g id="node18" class="node">
<title>17</title>
<path fill="#f7e9c5" stroke="black" d="M3493,-343.5C3493,-343.5 3194,-343.5 3194,-343.5 3188,-343.5 3182,-337.5 3182,-331.5 3182,-331.5 3182,-272.5 3182,-272.5 3182,-266.5 3188,-260.5 3194,-260.5 3194,-260.5 3493,-260.5 3493,-260.5 3499,-260.5 3505,-266.5 3505,-272.5 3505,-272.5 3505,-331.5 3505,-331.5 3505,-337.5 3499,-343.5 3493,-343.5"/>
<text text-anchor="start" x="3295.5" y="-328.3" font-family="Helvetica,sans-Serif" font-size="14.00">year ≤ 1996.14</text>
<text text-anchor="start" x="3329" y="-313.3" font-family="Helvetica,sans-Serif" font-size="14.00">0.66</text>
<text text-anchor="start" x="3326.5" y="-298.3" font-family="Helvetica,sans-Serif" font-size="14.00">7.7%</text>
<text text-anchor="start" x="3190" y="-283.3" font-family="Helvetica,sans-Serif" font-size="14.00">[0.27, 0.48, 0.2, 0.04, 0.01, 0.0, 0.0, 0.0, 0.0, 0.0</text>
<text text-anchor="start" x="3206.5" y="-268.3" font-family="Helvetica,sans-Serif" font-size="14.00">0.0, 0.0, 0.0, 0.0, 0.0, 0.0, 0.0, 0.0, 0.0, 0.0]</text>
</g>
<!-- 16&#45;&gt;17 -->
<g id="edge17" class="edge">
<title>16&#45;&gt;17</title>
<path fill="none" stroke="black" d="M3343.5,-386.97C3343.5,-376.25 3343.5,-364.84 3343.5,-353.99"/>
<polygon fill="black" stroke="black" points="3347,-353.82 3343.5,-343.82 3340,-353.82 3347,-353.82"/>
</g>
<!-- 24 -->
<g id="node25" class="node">
<title>24</title>
<path fill="#fcfef8" stroke="black" d="M4510,-351C4510,-351 4205,-351 4205,-351 4199,-351 4193,-345 4193,-339 4193,-339 4193,-265 4193,-265 4193,-259 4199,-253 4205,-253 4205,-253 4510,-253 4510,-253 4516,-253 4522,-259 4522,-265 4522,-265 4522,-339 4522,-339 4522,-345 4516,-351 4510,-351"/>
<text text-anchor="start" x="4309.5" y="-335.8" font-family="Helvetica,sans-Serif" font-size="14.00">year ≤ 2009.45</text>
<text text-anchor="start" x="4343" y="-320.8" font-family="Helvetica,sans-Serif" font-size="14.00">0.87</text>
<text text-anchor="start" x="4336.5" y="-305.8" font-family="Helvetica,sans-Serif" font-size="14.00">26.9%</text>
<text text-anchor="start" x="4201" y="-290.8" font-family="Helvetica,sans-Serif" font-size="14.00">[0.0, 0.06, 0.18, 0.21, 0.16, 0.12, 0.08, 0.06, 0.03</text>
<text text-anchor="start" x="4207" y="-275.8" font-family="Helvetica,sans-Serif" font-size="14.00">0.03, 0.02, 0.01, 0.01, 0.01, 0.01, 0.01, 0.0, 0.0</text>
<text text-anchor="start" x="4331.5" y="-260.8" font-family="Helvetica,sans-Serif" font-size="14.00">0.0, 0.0]</text>
</g>
<!-- 16&#45;&gt;24 -->
<g id="edge24" class="edge">
<title>16&#45;&gt;24</title>
<path fill="none" stroke="black" d="M3508.11,-413.57C3693.38,-389.45 3993.16,-350.43 4182.56,-325.77"/>
<polygon fill="black" stroke="black" points="4183.16,-329.22 4192.62,-324.46 4182.26,-322.28 4183.16,-329.22"/>
</g>
<!-- 18 -->
<g id="node19" class="node">
<title>18</title>
<path fill="#f6d1b7" stroke="black" d="M3319.5,-217C3319.5,-217 3031.5,-217 3031.5,-217 3025.5,-217 3019.5,-211 3019.5,-205 3019.5,-205 3019.5,-131 3019.5,-131 3019.5,-125 3025.5,-119 3031.5,-119 3031.5,-119 3319.5,-119 3319.5,-119 3325.5,-119 3331.5,-125 3331.5,-131 3331.5,-131 3331.5,-205 3331.5,-205 3331.5,-211 3325.5,-217 3319.5,-217"/>
<text text-anchor="start" x="3124" y="-201.8" font-family="Helvetica,sans-Serif" font-size="14.00">fuel_type ≤ 0.06</text>
<text text-anchor="start" x="3161" y="-186.8" font-family="Helvetica,sans-Serif" font-size="14.00">0.55</text>
<text text-anchor="start" x="3158.5" y="-171.8" font-family="Helvetica,sans-Serif" font-size="14.00">1.3%</text>
<text text-anchor="start" x="3027.5" y="-156.8" font-family="Helvetica,sans-Serif" font-size="14.00">[0.58, 0.34, 0.06, 0.01, 0.01, 0.01, 0.0, 0.0, 0.0</text>
<text text-anchor="start" x="3040" y="-141.8" font-family="Helvetica,sans-Serif" font-size="14.00">0.0, 0.0, 0.0, 0.0, 0.0, 0.0, 0.0, 0.0, 0.0, 0.0</text>
<text text-anchor="start" x="3163" y="-126.8" font-family="Helvetica,sans-Serif" font-size="14.00">0.0]</text>
</g>
<!-- 17&#45;&gt;18 -->
<g id="edge18" class="edge">
<title>17&#45;&gt;18</title>
<path fill="none" stroke="black" d="M3291.72,-260.32C3276.95,-248.71 3260.6,-235.86 3244.95,-223.57"/>
<polygon fill="black" stroke="black" points="3246.86,-220.62 3236.84,-217.19 3242.54,-226.13 3246.86,-220.62"/>
</g>
<!-- 21 -->
<g id="node22" class="node">
<title>21</title>
<path fill="#f5e4b7" stroke="black" d="M3661,-209.5C3661,-209.5 3362,-209.5 3362,-209.5 3356,-209.5 3350,-203.5 3350,-197.5 3350,-197.5 3350,-138.5 3350,-138.5 3350,-132.5 3356,-126.5 3362,-126.5 3362,-126.5 3661,-126.5 3661,-126.5 3667,-126.5 3673,-132.5 3673,-138.5 3673,-138.5 3673,-197.5 3673,-197.5 3673,-203.5 3667,-209.5 3661,-209.5"/>
<text text-anchor="start" x="3463.5" y="-194.3" font-family="Helvetica,sans-Serif" font-size="14.00">year ≤ 1999.25</text>
<text text-anchor="start" x="3497" y="-179.3" font-family="Helvetica,sans-Serif" font-size="14.00">0.65</text>
<text text-anchor="start" x="3494.5" y="-164.3" font-family="Helvetica,sans-Serif" font-size="14.00">6.4%</text>
<text text-anchor="start" x="3358" y="-149.3" font-family="Helvetica,sans-Serif" font-size="14.00">[0.2, 0.51, 0.23, 0.05, 0.01, 0.0, 0.0, 0.0, 0.0, 0.0</text>
<text text-anchor="start" x="3374.5" y="-134.3" font-family="Helvetica,sans-Serif" font-size="14.00">0.0, 0.0, 0.0, 0.0, 0.0, 0.0, 0.0, 0.0, 0.0, 0.0]</text>
</g>
<!-- 17&#45;&gt;21 -->
<g id="edge21" class="edge">
<title>17&#45;&gt;21</title>
<path fill="none" stroke="black" d="M3395.28,-260.32C3413.08,-246.33 3433.17,-230.54 3451.57,-216.09"/>
<polygon fill="black" stroke="black" points="3454.19,-218.48 3459.89,-209.55 3449.87,-212.97 3454.19,-218.48"/>
</g>
<!-- 19 -->
<g id="node20" class="node">
<title>19</title>
<path fill="#f4c9aa" stroke="black" d="M2989.5,-83C2989.5,-83 2701.5,-83 2701.5,-83 2695.5,-83 2689.5,-77 2689.5,-71 2689.5,-71 2689.5,-12 2689.5,-12 2689.5,-6 2695.5,0 2701.5,0 2701.5,0 2989.5,0 2989.5,0 2995.5,0 3001.5,-6 3001.5,-12 3001.5,-12 3001.5,-71 3001.5,-71 3001.5,-77 2995.5,-83 2989.5,-83"/>
<text text-anchor="start" x="2831" y="-67.8" font-family="Helvetica,sans-Serif" font-size="14.00">0.52</text>
<text text-anchor="start" x="2828.5" y="-52.8" font-family="Helvetica,sans-Serif" font-size="14.00">1.1%</text>
<text text-anchor="start" x="2697.5" y="-37.8" font-family="Helvetica,sans-Serif" font-size="14.00">[0.61, 0.33, 0.03, 0.01, 0.01, 0.01, 0.0, 0.0, 0.0</text>
<text text-anchor="start" x="2710" y="-22.8" font-family="Helvetica,sans-Serif" font-size="14.00">0.0, 0.0, 0.0, 0.0, 0.0, 0.0, 0.0, 0.0, 0.0, 0.0</text>
<text text-anchor="start" x="2833" y="-7.8" font-family="Helvetica,sans-Serif" font-size="14.00">0.0]</text>
</g>
<!-- 18&#45;&gt;19 -->
<g id="edge19" class="edge">
<title>18&#45;&gt;19</title>
<path fill="none" stroke="black" d="M3047.91,-118.87C3019.85,-108.28 2990.25,-97.11 2962.62,-86.69"/>
<polygon fill="black" stroke="black" points="2963.53,-83.29 2952.94,-83.03 2961.06,-89.84 2963.53,-83.29"/>
</g>
<!-- 20 -->
<g id="node21" class="node">
<title>20</title>
<path fill="#fdf5ef" stroke="black" d="M3319.5,-83C3319.5,-83 3031.5,-83 3031.5,-83 3025.5,-83 3019.5,-77 3019.5,-71 3019.5,-71 3019.5,-12 3019.5,-12 3019.5,-6 3025.5,0 3031.5,0 3031.5,0 3319.5,0 3319.5,0 3325.5,0 3331.5,-6 3331.5,-12 3331.5,-12 3331.5,-71 3331.5,-71 3331.5,-77 3325.5,-83 3319.5,-83"/>
<text text-anchor="start" x="3161" y="-67.8" font-family="Helvetica,sans-Serif" font-size="14.00">0.65</text>
<text text-anchor="start" x="3158.5" y="-52.8" font-family="Helvetica,sans-Serif" font-size="14.00">0.3%</text>
<text text-anchor="start" x="3027.5" y="-37.8" font-family="Helvetica,sans-Serif" font-size="14.00">[0.43, 0.38, 0.14, 0.03, 0.01, 0.0, 0.0, 0.01, 0.0</text>
<text text-anchor="start" x="3040" y="-22.8" font-family="Helvetica,sans-Serif" font-size="14.00">0.0, 0.0, 0.0, 0.0, 0.0, 0.0, 0.0, 0.0, 0.0, 0.0</text>
<text text-anchor="start" x="3163" y="-7.8" font-family="Helvetica,sans-Serif" font-size="14.00">0.0]</text>
</g>
<!-- 18&#45;&gt;20 -->
<g id="edge20" class="edge">
<title>18&#45;&gt;20</title>
<path fill="none" stroke="black" d="M3175.5,-118.87C3175.5,-110.5 3175.5,-101.77 3175.5,-93.33"/>
<polygon fill="black" stroke="black" points="3179,-93.23 3175.5,-83.23 3172,-93.23 3179,-93.23"/>
</g>
<!-- 22 -->
<g id="node23" class="node">
<title>22</title>
<path fill="#f8eac7" stroke="black" d="M3661,-75.5C3661,-75.5 3362,-75.5 3362,-75.5 3356,-75.5 3350,-69.5 3350,-63.5 3350,-63.5 3350,-19.5 3350,-19.5 3350,-13.5 3356,-7.5 3362,-7.5 3362,-7.5 3661,-7.5 3661,-7.5 3667,-7.5 3673,-13.5 3673,-19.5 3673,-19.5 3673,-63.5 3673,-63.5 3673,-69.5 3667,-75.5 3661,-75.5"/>
<text text-anchor="start" x="3497" y="-60.3" font-family="Helvetica,sans-Serif" font-size="14.00">0.59</text>
<text text-anchor="start" x="3494.5" y="-45.3" font-family="Helvetica,sans-Serif" font-size="14.00">2.4%</text>
<text text-anchor="start" x="3358" y="-30.3" font-family="Helvetica,sans-Serif" font-size="14.00">[0.34, 0.53, 0.1, 0.01, 0.01, 0.0, 0.0, 0.0, 0.0, 0.0</text>
<text text-anchor="start" x="3374.5" y="-15.3" font-family="Helvetica,sans-Serif" font-size="14.00">0.0, 0.0, 0.0, 0.0, 0.0, 0.0, 0.0, 0.0, 0.0, 0.0]</text>
</g>
<!-- 21&#45;&gt;22 -->
<g id="edge22" class="edge">
<title>21&#45;&gt;22</title>
<path fill="none" stroke="black" d="M3511.5,-126.23C3511.5,-113.36 3511.5,-99.1 3511.5,-86.04"/>
<polygon fill="black" stroke="black" points="3515,-85.88 3511.5,-75.88 3508,-85.88 3515,-85.88"/>
</g>
<!-- 23 -->
<g id="node24" class="node">
<title>23</title>
<path fill="#f8eac8" stroke="black" d="M4002,-75.5C4002,-75.5 3703,-75.5 3703,-75.5 3697,-75.5 3691,-69.5 3691,-63.5 3691,-63.5 3691,-19.5 3691,-19.5 3691,-13.5 3697,-7.5 3703,-7.5 3703,-7.5 4002,-7.5 4002,-7.5 4008,-7.5 4014,-13.5 4014,-19.5 4014,-19.5 4014,-63.5 4014,-63.5 4014,-69.5 4008,-75.5 4002,-75.5"/>
<text text-anchor="start" x="3838" y="-60.3" font-family="Helvetica,sans-Serif" font-size="14.00">0.64</text>
<text text-anchor="start" x="3835.5" y="-45.3" font-family="Helvetica,sans-Serif" font-size="14.00">4.0%</text>
<text text-anchor="start" x="3699" y="-30.3" font-family="Helvetica,sans-Serif" font-size="14.00">[0.11, 0.5, 0.31, 0.07, 0.01, 0.0, 0.0, 0.0, 0.0, 0.0</text>
<text text-anchor="start" x="3715.5" y="-15.3" font-family="Helvetica,sans-Serif" font-size="14.00">0.0, 0.0, 0.0, 0.0, 0.0, 0.0, 0.0, 0.0, 0.0, 0.0]</text>
</g>
<!-- 21&#45;&gt;23 -->
<g id="edge23" class="edge">
<title>21&#45;&gt;23</title>
<path fill="none" stroke="black" d="M3622.68,-126.41C3664.52,-111.13 3711.79,-93.87 3752.54,-79"/>
<polygon fill="black" stroke="black" points="3753.74,-82.28 3761.94,-75.56 3751.34,-75.71 3753.74,-82.28"/>
</g>
<!-- 25 -->
<g id="node26" class="node">
<title>25</title>
<path fill="#fefef6" stroke="black" d="M4505.5,-217C4505.5,-217 4209.5,-217 4209.5,-217 4203.5,-217 4197.5,-211 4197.5,-205 4197.5,-205 4197.5,-131 4197.5,-131 4197.5,-125 4203.5,-119 4209.5,-119 4209.5,-119 4505.5,-119 4505.5,-119 4511.5,-119 4517.5,-125 4517.5,-131 4517.5,-131 4517.5,-205 4517.5,-205 4517.5,-211 4511.5,-217 4505.5,-217"/>
<text text-anchor="start" x="4309.5" y="-201.8" font-family="Helvetica,sans-Serif" font-size="14.00">year ≤ 2006.61</text>
<text text-anchor="start" x="4343" y="-186.8" font-family="Helvetica,sans-Serif" font-size="14.00">0.79</text>
<text text-anchor="start" x="4336.5" y="-171.8" font-family="Helvetica,sans-Serif" font-size="14.00">13.5%</text>
<text text-anchor="start" x="4205.5" y="-156.8" font-family="Helvetica,sans-Serif" font-size="14.00">[0.01, 0.13, 0.3, 0.27, 0.14, 0.09, 0.04, 0.02, 0.0</text>
<text text-anchor="start" x="4222" y="-141.8" font-family="Helvetica,sans-Serif" font-size="14.00">0.0, 0.0, 0.0, 0.0, 0.0, 0.0, 0.0, 0.0, 0.0, 0.0</text>
<text text-anchor="start" x="4345" y="-126.8" font-family="Helvetica,sans-Serif" font-size="14.00">0.0]</text>
</g>
<!-- 24&#45;&gt;25 -->
<g id="edge25" class="edge">
<title>24&#45;&gt;25</title>
<path fill="none" stroke="black" d="M4357.5,-252.97C4357.5,-244.69 4357.5,-236 4357.5,-227.48"/>
<polygon fill="black" stroke="black" points="4361,-227.21 4357.5,-217.21 4354,-227.21 4361,-227.21"/>
</g>
<!-- 28 -->
<g id="node29" class="node">
<title>28</title>
<path fill="#fdfffd" stroke="black" d="M5027,-217C5027,-217 4718,-217 4718,-217 4712,-217 4706,-211 4706,-205 4706,-205 4706,-131 4706,-131 4706,-125 4712,-119 4718,-119 4718,-119 5027,-119 5027,-119 5033,-119 5039,-125 5039,-131 5039,-131 5039,-205 5039,-205 5039,-211 5033,-217 5027,-217"/>
<text text-anchor="start" x="4821" y="-201.8" font-family="Helvetica,sans-Serif" font-size="14.00">fuel_type ≤ 0.68</text>
<text text-anchor="start" x="4858" y="-186.8" font-family="Helvetica,sans-Serif" font-size="14.00">0.89</text>
<text text-anchor="start" x="4851.5" y="-171.8" font-family="Helvetica,sans-Serif" font-size="14.00">13.4%</text>
<text text-anchor="start" x="4724.5" y="-156.8" font-family="Helvetica,sans-Serif" font-size="14.00">[0.0, 0.0, 0.05, 0.14, 0.17, 0.16, 0.12, 0.1, 0.06</text>
<text text-anchor="start" x="4714" y="-141.8" font-family="Helvetica,sans-Serif" font-size="14.00">0.05, 0.04, 0.03, 0.01, 0.02, 0.02, 0.02, 0.01, 0.01</text>
<text text-anchor="start" x="4846.5" y="-126.8" font-family="Helvetica,sans-Serif" font-size="14.00">0.0, 0.0]</text>
</g>
<!-- 24&#45;&gt;28 -->
<g id="edge28" class="edge">
<title>24&#45;&gt;28</title>
<path fill="none" stroke="black" d="M4522.22,-258.78C4577.72,-244.56 4639.86,-228.63 4696.21,-214.18"/>
<polygon fill="black" stroke="black" points="4697.12,-217.57 4705.94,-211.69 4695.38,-210.78 4697.12,-217.57"/>
</g>
<!-- 26 -->
<g id="node27" class="node">
<title>26</title>
<path fill="#fbfbe1" stroke="black" d="M4332.5,-83C4332.5,-83 4044.5,-83 4044.5,-83 4038.5,-83 4032.5,-77 4032.5,-71 4032.5,-71 4032.5,-12 4032.5,-12 4032.5,-6 4038.5,0 4044.5,0 4044.5,0 4332.5,0 4332.5,0 4338.5,0 4344.5,-6 4344.5,-12 4344.5,-12 4344.5,-71 4344.5,-71 4344.5,-77 4338.5,-83 4332.5,-83"/>
<text text-anchor="start" x="4174" y="-67.8" font-family="Helvetica,sans-Serif" font-size="14.00">0.74</text>
<text text-anchor="start" x="4171.5" y="-52.8" font-family="Helvetica,sans-Serif" font-size="14.00">6.5%</text>
<text text-anchor="start" x="4040.5" y="-37.8" font-family="Helvetica,sans-Serif" font-size="14.00">[0.01, 0.21, 0.37, 0.26, 0.1, 0.03, 0.01, 0.0, 0.0</text>
<text text-anchor="start" x="4053" y="-22.8" font-family="Helvetica,sans-Serif" font-size="14.00">0.0, 0.0, 0.0, 0.0, 0.0, 0.0, 0.0, 0.0, 0.0, 0.0</text>
<text text-anchor="start" x="4176" y="-7.8" font-family="Helvetica,sans-Serif" font-size="14.00">0.0]</text>
</g>
<!-- 25&#45;&gt;26 -->
<g id="edge26" class="edge">
<title>25&#45;&gt;26</title>
<path fill="none" stroke="black" d="M4292.16,-118.87C4278.85,-109.06 4264.88,-98.77 4251.65,-89.02"/>
<polygon fill="black" stroke="black" points="4253.65,-86.15 4243.52,-83.03 4249.5,-91.78 4253.65,-86.15"/>
</g>
<!-- 27 -->
<g id="node28" class="node">
<title>27</title>
<path fill="#fbfef5" stroke="black" d="M4680,-83C4680,-83 4375,-83 4375,-83 4369,-83 4363,-77 4363,-71 4363,-71 4363,-12 4363,-12 4363,-6 4369,0 4375,0 4375,0 4680,0 4680,0 4686,0 4692,-6 4692,-12 4692,-12 4692,-71 4692,-71 4692,-77 4686,-83 4680,-83"/>
<text text-anchor="start" x="4517" y="-67.8" font-family="Helvetica,sans-Serif" font-size="14.00">0.8</text>
<text text-anchor="start" x="4510.5" y="-52.8" font-family="Helvetica,sans-Serif" font-size="14.00">7.0%</text>
<text text-anchor="start" x="4371" y="-37.8" font-family="Helvetica,sans-Serif" font-size="14.00">[0.0, 0.05, 0.25, 0.28, 0.18, 0.14, 0.06, 0.04, 0.01</text>
<text text-anchor="start" x="4392" y="-22.8" font-family="Helvetica,sans-Serif" font-size="14.00">0.0, 0.0, 0.0, 0.0, 0.0, 0.0, 0.0, 0.0, 0.0, 0.0</text>
<text text-anchor="start" x="4515" y="-7.8" font-family="Helvetica,sans-Serif" font-size="14.00">0.0]</text>
</g>
<!-- 25&#45;&gt;27 -->
<g id="edge27" class="edge">
<title>25&#45;&gt;27</title>
<path fill="none" stroke="black" d="M4423.23,-118.87C4436.61,-109.06 4450.67,-98.77 4463.98,-89.02"/>
<polygon fill="black" stroke="black" points="4466.15,-91.76 4472.15,-83.03 4462.02,-86.12 4466.15,-91.76"/>
</g>
<!-- 29 -->
<g id="node30" class="node">
<title>29</title>
<path fill="#fbfef9" stroke="black" d="M5023,-83C5023,-83 4722,-83 4722,-83 4716,-83 4710,-77 4710,-71 4710,-71 4710,-12 4710,-12 4710,-6 4716,0 4722,0 4722,0 5023,0 5023,0 5029,0 5035,-6 5035,-12 5035,-12 5035,-71 5035,-71 5035,-77 5029,-83 5023,-83"/>
<text text-anchor="start" x="4858" y="-67.8" font-family="Helvetica,sans-Serif" font-size="14.00">0.88</text>
<text text-anchor="start" x="4851.5" y="-52.8" font-family="Helvetica,sans-Serif" font-size="14.00">10.6%</text>
<text text-anchor="start" x="4720.5" y="-37.8" font-family="Helvetica,sans-Serif" font-size="14.00">[0.0, 0.0, 0.06, 0.17, 0.19, 0.16, 0.12, 0.09, 0.05</text>
<text text-anchor="start" x="4718" y="-22.8" font-family="Helvetica,sans-Serif" font-size="14.00">0.04, 0.03, 0.02, 0.01, 0.01, 0.02, 0.01, 0.01, 0.0</text>
<text text-anchor="start" x="4846.5" y="-7.8" font-family="Helvetica,sans-Serif" font-size="14.00">0.0, 0.0]</text>
</g>
<!-- 28&#45;&gt;29 -->
<g id="edge29" class="edge">
<title>28&#45;&gt;29</title>
<path fill="none" stroke="black" d="M4872.5,-118.87C4872.5,-110.5 4872.5,-101.77 4872.5,-93.33"/>
<polygon fill="black" stroke="black" points="4876,-93.23 4872.5,-83.23 4869,-93.23 4876,-93.23"/>
</g>
<!-- 30 -->
<g id="node31" class="node">
<title>30</title>
<path fill="#f7fef7" stroke="black" d="M5366,-83C5366,-83 5065,-83 5065,-83 5059,-83 5053,-77 5053,-71 5053,-71 5053,-12 5053,-12 5053,-6 5059,0 5065,0 5065,0 5366,0 5366,0 5372,0 5378,-6 5378,-12 5378,-12 5378,-71 5378,-71 5378,-77 5372,-83 5366,-83"/>
<text text-anchor="start" x="5201" y="-67.8" font-family="Helvetica,sans-Serif" font-size="14.00">0.91</text>
<text text-anchor="start" x="5198.5" y="-52.8" font-family="Helvetica,sans-Serif" font-size="14.00">2.8%</text>
<text text-anchor="start" x="5063.5" y="-37.8" font-family="Helvetica,sans-Serif" font-size="14.00">[0.0, 0.0, 0.01, 0.04, 0.09, 0.15, 0.11, 0.11, 0.11</text>
<text text-anchor="start" x="5061" y="-22.8" font-family="Helvetica,sans-Serif" font-size="14.00">0.1, 0.06, 0.04, 0.02, 0.04, 0.03, 0.03, 0.01, 0.02</text>
<text text-anchor="start" x="5181" y="-7.8" font-family="Helvetica,sans-Serif" font-size="14.00">0.01, 0.01]</text>
</g>
<!-- 28&#45;&gt;30 -->
<g id="edge30" class="edge">
<title>28&#45;&gt;30</title>
<path fill="none" stroke="black" d="M5005.11,-118.87C5034.41,-108.23 5065.31,-97.01 5094.14,-86.55"/>
<polygon fill="black" stroke="black" points="5095.63,-89.73 5103.83,-83.03 5093.24,-83.15 5095.63,-89.73"/>
</g>
</g>
</svg>
