<?xml version="1.0" encoding="UTF-8" standalone="no"?>
<!DOCTYPE svg PUBLIC "-//W3C//DTD SVG 1.1//EN"
 "http://www.w3.org/Graphics/SVG/1.1/DTD/svg11.dtd">
<!-- Generated by graphviz version 2.47.1 (20210417.1919)
 -->
<!-- Title: Tree Pages: 1 -->
<svg width="2362pt" height="581pt"
 viewBox="0.00 0.00 2362.00 581.00" xmlns="http://www.w3.org/2000/svg" xmlns:xlink="http://www.w3.org/1999/xlink">
<g id="graph0" class="graph" transform="scale(1 1) rotate(0) translate(4 577)">
<title>Tree</title>
<polygon fill="white" stroke="transparent" points="-4,4 -4,-577 2358,-577 2358,4 -4,4"/>
<!-- 0 -->
<g id="node1" class="node">
<title>0</title>
<path fill="#f6d5be" stroke="black" d="M1182.5,-573C1182.5,-573 1020.5,-573 1020.5,-573 1014.5,-573 1008.5,-567 1008.5,-561 1008.5,-561 1008.5,-517 1008.5,-517 1008.5,-511 1014.5,-505 1020.5,-505 1020.5,-505 1182.5,-505 1182.5,-505 1188.5,-505 1194.5,-511 1194.5,-517 1194.5,-517 1194.5,-561 1194.5,-561 1194.5,-567 1188.5,-573 1182.5,-573"/>
<text text-anchor="start" x="1044" y="-557.8" font-family="Helvetica,sans-Serif" font-size="14.00">transmission ≤ 0.3</text>
<text text-anchor="start" x="1051.5" y="-542.8" font-family="Helvetica,sans-Serif" font-size="14.00">entropy = 1.464</text>
<text text-anchor="start" x="1050" y="-527.8" font-family="Helvetica,sans-Serif" font-size="14.00">samples = 1178</text>
<text text-anchor="start" x="1016.5" y="-512.8" font-family="Helvetica,sans-Serif" font-size="14.00">value = [648, 387, 111, 32]</text>
</g>
<!-- 1 -->
<g id="node2" class="node">
<title>1</title>
<path fill="#f2bf9b" stroke="black" d="M1082.5,-469C1082.5,-469 928.5,-469 928.5,-469 922.5,-469 916.5,-463 916.5,-457 916.5,-457 916.5,-413 916.5,-413 916.5,-407 922.5,-401 928.5,-401 928.5,-401 1082.5,-401 1082.5,-401 1088.5,-401 1094.5,-407 1094.5,-413 1094.5,-413 1094.5,-457 1094.5,-457 1094.5,-463 1088.5,-469 1082.5,-469"/>
<text text-anchor="start" x="953.5" y="-453.8" font-family="Helvetica,sans-Serif" font-size="14.00">year ≤ 1990.487</text>
<text text-anchor="start" x="955.5" y="-438.8" font-family="Helvetica,sans-Serif" font-size="14.00">entropy = 1.258</text>
<text text-anchor="start" x="958" y="-423.8" font-family="Helvetica,sans-Serif" font-size="14.00">samples = 877</text>
<text text-anchor="start" x="924.5" y="-408.8" font-family="Helvetica,sans-Serif" font-size="14.00">value = [565, 246, 53, 13]</text>
</g>
<!-- 0&#45;&gt;1 -->
<g id="edge1" class="edge">
<title>0&#45;&gt;1</title>
<path fill="none" stroke="black" d="M1070.33,-504.88C1061.86,-495.89 1052.6,-486.04 1043.79,-476.68"/>
<polygon fill="black" stroke="black" points="1046.24,-474.18 1036.84,-469.3 1041.15,-478.98 1046.24,-474.18"/>
<text text-anchor="middle" x="1036.08" y="-490.59" font-family="Helvetica,sans-Serif" font-size="14.00">True</text>
</g>
<!-- 18 -->
<g id="node19" class="node">
<title>18</title>
<path fill="#cef8ca" stroke="black" d="M1341.5,-469C1341.5,-469 1195.5,-469 1195.5,-469 1189.5,-469 1183.5,-463 1183.5,-457 1183.5,-457 1183.5,-413 1183.5,-413 1183.5,-407 1189.5,-401 1195.5,-401 1195.5,-401 1341.5,-401 1341.5,-401 1347.5,-401 1353.5,-407 1353.5,-413 1353.5,-413 1353.5,-457 1353.5,-457 1353.5,-463 1347.5,-469 1341.5,-469"/>
<text text-anchor="start" x="1216.5" y="-453.8" font-family="Helvetica,sans-Serif" font-size="14.00">year ≤ 2006.518</text>
<text text-anchor="start" x="1218.5" y="-438.8" font-family="Helvetica,sans-Serif" font-size="14.00">entropy = 1.734</text>
<text text-anchor="start" x="1221" y="-423.8" font-family="Helvetica,sans-Serif" font-size="14.00">samples = 301</text>
<text text-anchor="start" x="1191.5" y="-408.8" font-family="Helvetica,sans-Serif" font-size="14.00">value = [83, 141, 58, 19]</text>
</g>
<!-- 0&#45;&gt;18 -->
<g id="edge18" class="edge">
<title>0&#45;&gt;18</title>
<path fill="none" stroke="black" d="M1155.72,-504.88C1171.55,-495.21 1188.99,-484.56 1205.32,-474.59"/>
<polygon fill="black" stroke="black" points="1207.56,-477.32 1214.27,-469.12 1203.91,-471.35 1207.56,-477.32"/>
<text text-anchor="middle" x="1208.39" y="-489.73" font-family="Helvetica,sans-Serif" font-size="14.00">False</text>
</g>
<!-- 2 -->
<g id="node3" class="node">
<title>2</title>
<path fill="#e58139" stroke="black" d="M886,-357.5C886,-357.5 765,-357.5 765,-357.5 759,-357.5 753,-351.5 753,-345.5 753,-345.5 753,-316.5 753,-316.5 753,-310.5 759,-304.5 765,-304.5 765,-304.5 886,-304.5 886,-304.5 892,-304.5 898,-310.5 898,-316.5 898,-316.5 898,-345.5 898,-345.5 898,-351.5 892,-357.5 886,-357.5"/>
<text text-anchor="start" x="783.5" y="-342.3" font-family="Helvetica,sans-Serif" font-size="14.00">entropy = 0.0</text>
<text text-anchor="start" x="778" y="-327.3" font-family="Helvetica,sans-Serif" font-size="14.00">samples = 160</text>
<text text-anchor="start" x="761" y="-312.3" font-family="Helvetica,sans-Serif" font-size="14.00">value = [160, 0, 0, 0]</text>
</g>
<!-- 1&#45;&gt;2 -->
<g id="edge2" class="edge">
<title>1&#45;&gt;2</title>
<path fill="none" stroke="black" d="M947.06,-400.88C925.32,-388.57 900.77,-374.65 879.46,-362.57"/>
<polygon fill="black" stroke="black" points="880.96,-359.41 870.54,-357.52 877.51,-365.5 880.96,-359.41"/>
</g>
<!-- 3 -->
<g id="node4" class="node">
<title>3</title>
<path fill="#f6d4bc" stroke="black" d="M1082.5,-365C1082.5,-365 928.5,-365 928.5,-365 922.5,-365 916.5,-359 916.5,-353 916.5,-353 916.5,-309 916.5,-309 916.5,-303 922.5,-297 928.5,-297 928.5,-297 1082.5,-297 1082.5,-297 1088.5,-297 1094.5,-303 1094.5,-309 1094.5,-309 1094.5,-353 1094.5,-353 1094.5,-359 1088.5,-365 1082.5,-365"/>
<text text-anchor="start" x="953.5" y="-349.8" font-family="Helvetica,sans-Serif" font-size="14.00">year ≤ 2005.534</text>
<text text-anchor="start" x="955.5" y="-334.8" font-family="Helvetica,sans-Serif" font-size="14.00">entropy = 1.378</text>
<text text-anchor="start" x="958" y="-319.8" font-family="Helvetica,sans-Serif" font-size="14.00">samples = 717</text>
<text text-anchor="start" x="924.5" y="-304.8" font-family="Helvetica,sans-Serif" font-size="14.00">value = [405, 246, 53, 13]</text>
</g>
<!-- 1&#45;&gt;3 -->
<g id="edge3" class="edge">
<title>1&#45;&gt;3</title>
<path fill="none" stroke="black" d="M1005.5,-400.88C1005.5,-392.78 1005.5,-383.98 1005.5,-375.47"/>
<polygon fill="black" stroke="black" points="1009,-375.3 1005.5,-365.3 1002,-375.3 1009,-375.3"/>
</g>
<!-- 4 -->
<g id="node5" class="node">
<title>4</title>
<path fill="#ea975b" stroke="black" d="M539,-261C539,-261 410,-261 410,-261 404,-261 398,-255 398,-249 398,-249 398,-205 398,-205 398,-199 404,-193 410,-193 410,-193 539,-193 539,-193 545,-193 551,-199 551,-205 551,-205 551,-249 551,-249 551,-255 545,-261 539,-261"/>
<text text-anchor="start" x="430.5" y="-245.8" font-family="Helvetica,sans-Serif" font-size="14.00">year ≤ 1994.6</text>
<text text-anchor="start" x="424.5" y="-230.8" font-family="Helvetica,sans-Serif" font-size="14.00">entropy = 0.604</text>
<text text-anchor="start" x="427" y="-215.8" font-family="Helvetica,sans-Serif" font-size="14.00">samples = 474</text>
<text text-anchor="start" x="406" y="-200.8" font-family="Helvetica,sans-Serif" font-size="14.00">value = [404, 70, 0, 0]</text>
</g>
<!-- 3&#45;&gt;4 -->
<g id="edge4" class="edge">
<title>3&#45;&gt;4</title>
<path fill="none" stroke="black" d="M916.38,-299.55C913.06,-298.65 909.76,-297.8 906.5,-297 788.52,-268.12 649.37,-248.4 561.53,-237.66"/>
<polygon fill="black" stroke="black" points="561.69,-234.15 551.34,-236.43 560.84,-241.1 561.69,-234.15"/>
</g>
<!-- 11 -->
<g id="node12" class="node">
<title>11</title>
<path fill="#88ee7f" stroke="black" d="M1074,-261C1074,-261 937,-261 937,-261 931,-261 925,-255 925,-249 925,-249 925,-205 925,-205 925,-199 931,-193 937,-193 937,-193 1074,-193 1074,-193 1080,-193 1086,-199 1086,-205 1086,-205 1086,-249 1086,-249 1086,-255 1080,-261 1074,-261"/>
<text text-anchor="start" x="953.5" y="-245.8" font-family="Helvetica,sans-Serif" font-size="14.00">year ≤ 2010.731</text>
<text text-anchor="start" x="955.5" y="-230.8" font-family="Helvetica,sans-Serif" font-size="14.00">entropy = 1.075</text>
<text text-anchor="start" x="958" y="-215.8" font-family="Helvetica,sans-Serif" font-size="14.00">samples = 243</text>
<text text-anchor="start" x="933" y="-200.8" font-family="Helvetica,sans-Serif" font-size="14.00">value = [1, 176, 53, 13]</text>
</g>
<!-- 3&#45;&gt;11 -->
<g id="edge11" class="edge">
<title>3&#45;&gt;11</title>
<path fill="none" stroke="black" d="M1005.5,-296.88C1005.5,-288.78 1005.5,-279.98 1005.5,-271.47"/>
<polygon fill="black" stroke="black" points="1009,-271.3 1005.5,-261.3 1002,-271.3 1009,-271.3"/>
</g>
<!-- 5 -->
<g id="node6" class="node">
<title>5</title>
<path fill="#e5823a" stroke="black" d="M288,-157C288,-157 167,-157 167,-157 161,-157 155,-151 155,-145 155,-145 155,-101 155,-101 155,-95 161,-89 167,-89 167,-89 288,-89 288,-89 294,-89 300,-95 300,-101 300,-101 300,-145 300,-145 300,-151 294,-157 288,-157"/>
<text text-anchor="start" x="172" y="-141.8" font-family="Helvetica,sans-Serif" font-size="14.00">fuel_type ≤ 0.353</text>
<text text-anchor="start" x="177.5" y="-126.8" font-family="Helvetica,sans-Serif" font-size="14.00">entropy = 0.048</text>
<text text-anchor="start" x="180" y="-111.8" font-family="Helvetica,sans-Serif" font-size="14.00">samples = 185</text>
<text text-anchor="start" x="163" y="-96.8" font-family="Helvetica,sans-Serif" font-size="14.00">value = [184, 1, 0, 0]</text>
</g>
<!-- 4&#45;&gt;5 -->
<g id="edge5" class="edge">
<title>4&#45;&gt;5</title>
<path fill="none" stroke="black" d="M397.7,-194.29C369.71,-182.73 337.97,-169.62 309.54,-157.88"/>
<polygon fill="black" stroke="black" points="310.61,-154.53 300.03,-153.95 307.94,-161 310.61,-154.53"/>
</g>
<!-- 8 -->
<g id="node9" class="node">
<title>8</title>
<path fill="#eda977" stroke="black" d="M539,-157C539,-157 410,-157 410,-157 404,-157 398,-151 398,-145 398,-145 398,-101 398,-101 398,-95 404,-89 410,-89 410,-89 539,-89 539,-89 545,-89 551,-95 551,-101 551,-101 551,-145 551,-145 551,-151 545,-157 539,-157"/>
<text text-anchor="start" x="419" y="-141.8" font-family="Helvetica,sans-Serif" font-size="14.00">fuel_type ≤ 0.792</text>
<text text-anchor="start" x="424.5" y="-126.8" font-family="Helvetica,sans-Serif" font-size="14.00">entropy = 0.793</text>
<text text-anchor="start" x="427" y="-111.8" font-family="Helvetica,sans-Serif" font-size="14.00">samples = 289</text>
<text text-anchor="start" x="406" y="-96.8" font-family="Helvetica,sans-Serif" font-size="14.00">value = [220, 69, 0, 0]</text>
</g>
<!-- 4&#45;&gt;8 -->
<g id="edge8" class="edge">
<title>4&#45;&gt;8</title>
<path fill="none" stroke="black" d="M474.5,-192.88C474.5,-184.78 474.5,-175.98 474.5,-167.47"/>
<polygon fill="black" stroke="black" points="478,-167.3 474.5,-157.3 471,-167.3 478,-167.3"/>
</g>
<!-- 6 -->
<g id="node7" class="node">
<title>6</title>
<path fill="#e58139" stroke="black" d="M125,-53C125,-53 12,-53 12,-53 6,-53 0,-47 0,-41 0,-41 0,-12 0,-12 0,-6 6,0 12,0 12,0 125,0 125,0 131,0 137,-6 137,-12 137,-12 137,-41 137,-41 137,-47 131,-53 125,-53"/>
<text text-anchor="start" x="26.5" y="-37.8" font-family="Helvetica,sans-Serif" font-size="14.00">entropy = 0.0</text>
<text text-anchor="start" x="25" y="-22.8" font-family="Helvetica,sans-Serif" font-size="14.00">samples = 61</text>
<text text-anchor="start" x="8" y="-7.8" font-family="Helvetica,sans-Serif" font-size="14.00">value = [61, 0, 0, 0]</text>
</g>
<!-- 5&#45;&gt;6 -->
<g id="edge6" class="edge">
<title>5&#45;&gt;6</title>
<path fill="none" stroke="black" d="M171.89,-88.95C155.19,-79.02 136.94,-68.18 120.49,-58.4"/>
<polygon fill="black" stroke="black" points="121.94,-55.19 111.55,-53.09 118.36,-61.2 121.94,-55.19"/>
</g>
<!-- 7 -->
<g id="node8" class="node">
<title>7</title>
<path fill="#e5823b" stroke="black" d="M288,-53C288,-53 167,-53 167,-53 161,-53 155,-47 155,-41 155,-41 155,-12 155,-12 155,-6 161,0 167,0 167,0 288,0 288,0 294,0 300,-6 300,-12 300,-12 300,-41 300,-41 300,-47 294,-53 288,-53"/>
<text text-anchor="start" x="177.5" y="-37.8" font-family="Helvetica,sans-Serif" font-size="14.00">entropy = 0.068</text>
<text text-anchor="start" x="180" y="-22.8" font-family="Helvetica,sans-Serif" font-size="14.00">samples = 124</text>
<text text-anchor="start" x="163" y="-7.8" font-family="Helvetica,sans-Serif" font-size="14.00">value = [123, 1, 0, 0]</text>
</g>
<!-- 5&#45;&gt;7 -->
<g id="edge7" class="edge">
<title>5&#45;&gt;7</title>
<path fill="none" stroke="black" d="M227.5,-88.95C227.5,-80.72 227.5,-71.85 227.5,-63.48"/>
<polygon fill="black" stroke="black" points="231,-63.24 227.5,-53.24 224,-63.24 231,-63.24"/>
</g>
<!-- 9 -->
<g id="node10" class="node">
<title>9</title>
<path fill="#f6d5bc" stroke="black" d="M451,-53C451,-53 330,-53 330,-53 324,-53 318,-47 318,-41 318,-41 318,-12 318,-12 318,-6 324,0 330,0 330,0 451,0 451,0 457,0 463,-6 463,-12 463,-12 463,-41 463,-41 463,-47 457,-53 451,-53"/>
<text text-anchor="start" x="344.5" y="-37.8" font-family="Helvetica,sans-Serif" font-size="14.00">entropy = 0.97</text>
<text text-anchor="start" x="343" y="-22.8" font-family="Helvetica,sans-Serif" font-size="14.00">samples = 153</text>
<text text-anchor="start" x="326" y="-7.8" font-family="Helvetica,sans-Serif" font-size="14.00">value = [92, 61, 0, 0]</text>
</g>
<!-- 8&#45;&gt;9 -->
<g id="edge9" class="edge">
<title>8&#45;&gt;9</title>
<path fill="none" stroke="black" d="M445.12,-88.95C436.99,-79.8 428.16,-69.87 420.02,-60.71"/>
<polygon fill="black" stroke="black" points="422.64,-58.39 413.38,-53.24 417.4,-63.04 422.64,-58.39"/>
</g>
<!-- 10 -->
<g id="node11" class="node">
<title>10</title>
<path fill="#e78945" stroke="black" d="M614,-53C614,-53 493,-53 493,-53 487,-53 481,-47 481,-41 481,-41 481,-12 481,-12 481,-6 487,0 493,0 493,0 614,0 614,0 620,0 626,-6 626,-12 626,-12 626,-41 626,-41 626,-47 620,-53 614,-53"/>
<text text-anchor="start" x="503.5" y="-37.8" font-family="Helvetica,sans-Serif" font-size="14.00">entropy = 0.323</text>
<text text-anchor="start" x="506" y="-22.8" font-family="Helvetica,sans-Serif" font-size="14.00">samples = 136</text>
<text text-anchor="start" x="489" y="-7.8" font-family="Helvetica,sans-Serif" font-size="14.00">value = [128, 8, 0, 0]</text>
</g>
<!-- 8&#45;&gt;10 -->
<g id="edge10" class="edge">
<title>8&#45;&gt;10</title>
<path fill="none" stroke="black" d="M502.13,-88.95C509.7,-79.89 517.91,-70.07 525.51,-60.99"/>
<polygon fill="black" stroke="black" points="528.26,-63.15 531.98,-53.24 522.89,-58.66 528.26,-63.15"/>
</g>
<!-- 12 -->
<g id="node13" class="node">
<title>12</title>
<path fill="#4fe642" stroke="black" d="M924,-157C924,-157 803,-157 803,-157 797,-157 791,-151 791,-145 791,-145 791,-101 791,-101 791,-95 797,-89 803,-89 803,-89 924,-89 924,-89 930,-89 936,-95 936,-101 936,-101 936,-145 936,-145 936,-151 930,-157 924,-157"/>
<text text-anchor="start" x="815.5" y="-141.8" font-family="Helvetica,sans-Serif" font-size="14.00">year ≤ 2007.84</text>
<text text-anchor="start" x="813.5" y="-126.8" font-family="Helvetica,sans-Serif" font-size="14.00">entropy = 0.273</text>
<text text-anchor="start" x="816" y="-111.8" font-family="Helvetica,sans-Serif" font-size="14.00">samples = 169</text>
<text text-anchor="start" x="799" y="-96.8" font-family="Helvetica,sans-Serif" font-size="14.00">value = [1, 162, 6, 0]</text>
</g>
<!-- 11&#45;&gt;12 -->
<g id="edge12" class="edge">
<title>11&#45;&gt;12</title>
<path fill="none" stroke="black" d="M959.4,-192.88C946.25,-183.44 931.8,-173.06 918.2,-163.29"/>
<polygon fill="black" stroke="black" points="920.02,-160.29 909.86,-157.3 915.94,-165.98 920.02,-160.29"/>
</g>
<!-- 15 -->
<g id="node16" class="node">
<title>15</title>
<path fill="#92c9f1" stroke="black" d="M1095,-157C1095,-157 966,-157 966,-157 960,-157 954,-151 954,-145 954,-145 954,-101 954,-101 954,-95 960,-89 966,-89 966,-89 1095,-89 1095,-89 1101,-89 1107,-95 1107,-101 1107,-101 1107,-145 1107,-145 1107,-151 1101,-157 1095,-157"/>
<text text-anchor="start" x="978.5" y="-141.8" font-family="Helvetica,sans-Serif" font-size="14.00">year ≤ 2012.817</text>
<text text-anchor="start" x="980.5" y="-126.8" font-family="Helvetica,sans-Serif" font-size="14.00">entropy = 1.311</text>
<text text-anchor="start" x="987" y="-111.8" font-family="Helvetica,sans-Serif" font-size="14.00">samples = 74</text>
<text text-anchor="start" x="962" y="-96.8" font-family="Helvetica,sans-Serif" font-size="14.00">value = [0, 14, 47, 13]</text>
</g>
<!-- 11&#45;&gt;15 -->
<g id="edge15" class="edge">
<title>11&#45;&gt;15</title>
<path fill="none" stroke="black" d="M1013.62,-192.88C1015.63,-184.69 1017.81,-175.79 1019.91,-167.19"/>
<polygon fill="black" stroke="black" points="1023.36,-167.85 1022.34,-157.3 1016.56,-166.18 1023.36,-167.85"/>
</g>
<!-- 13 -->
<g id="node14" class="node">
<title>13</title>
<path fill="#49e53b" stroke="black" d="M769,-53C769,-53 656,-53 656,-53 650,-53 644,-47 644,-41 644,-41 644,-12 644,-12 644,-6 650,0 656,0 656,0 769,0 769,0 775,0 781,-6 781,-12 781,-12 781,-41 781,-41 781,-47 775,-53 769,-53"/>
<text text-anchor="start" x="662.5" y="-37.8" font-family="Helvetica,sans-Serif" font-size="14.00">entropy = 0.091</text>
<text text-anchor="start" x="669" y="-22.8" font-family="Helvetica,sans-Serif" font-size="14.00">samples = 86</text>
<text text-anchor="start" x="652" y="-7.8" font-family="Helvetica,sans-Serif" font-size="14.00">value = [1, 85, 0, 0]</text>
</g>
<!-- 12&#45;&gt;13 -->
<g id="edge13" class="edge">
<title>12&#45;&gt;13</title>
<path fill="none" stroke="black" d="M810.69,-88.95C795.05,-79.16 777.97,-68.48 762.52,-58.8"/>
<polygon fill="black" stroke="black" points="763.96,-55.57 753.62,-53.24 760.24,-61.51 763.96,-55.57"/>
</g>
<!-- 14 -->
<g id="node15" class="node">
<title>14</title>
<path fill="#55e748" stroke="black" d="M924,-53C924,-53 811,-53 811,-53 805,-53 799,-47 799,-41 799,-41 799,-12 799,-12 799,-6 805,0 811,0 811,0 924,0 924,0 930,0 936,-6 936,-12 936,-12 936,-41 936,-41 936,-47 930,-53 924,-53"/>
<text text-anchor="start" x="817.5" y="-37.8" font-family="Helvetica,sans-Serif" font-size="14.00">entropy = 0.374</text>
<text text-anchor="start" x="824" y="-22.8" font-family="Helvetica,sans-Serif" font-size="14.00">samples = 83</text>
<text text-anchor="start" x="807" y="-7.8" font-family="Helvetica,sans-Serif" font-size="14.00">value = [0, 77, 6, 0]</text>
</g>
<!-- 12&#45;&gt;14 -->
<g id="edge14" class="edge">
<title>12&#45;&gt;14</title>
<path fill="none" stroke="black" d="M864.9,-88.95C865.25,-80.72 865.62,-71.85 865.98,-63.48"/>
<polygon fill="black" stroke="black" points="869.48,-63.38 866.41,-53.24 862.49,-63.08 869.48,-63.38"/>
</g>
<!-- 16 -->
<g id="node17" class="node">
<title>16</title>
<path fill="#c4e2f7" stroke="black" d="M1087,-53C1087,-53 966,-53 966,-53 960,-53 954,-47 954,-41 954,-41 954,-12 954,-12 954,-6 960,0 966,0 966,0 1087,0 1087,0 1093,0 1099,-6 1099,-12 1099,-12 1099,-41 1099,-41 1099,-47 1093,-53 1087,-53"/>
<text text-anchor="start" x="976.5" y="-37.8" font-family="Helvetica,sans-Serif" font-size="14.00">entropy = 0.977</text>
<text text-anchor="start" x="983" y="-22.8" font-family="Helvetica,sans-Serif" font-size="14.00">samples = 34</text>
<text text-anchor="start" x="962" y="-7.8" font-family="Helvetica,sans-Serif" font-size="14.00">value = [0, 14, 20, 0]</text>
</g>
<!-- 15&#45;&gt;16 -->
<g id="edge16" class="edge">
<title>15&#45;&gt;16</title>
<path fill="none" stroke="black" d="M1029.1,-88.95C1028.75,-80.72 1028.38,-71.85 1028.02,-63.48"/>
<polygon fill="black" stroke="black" points="1031.51,-63.08 1027.59,-53.24 1024.52,-63.38 1031.51,-63.08"/>
</g>
<!-- 17 -->
<g id="node18" class="node">
<title>17</title>
<path fill="#98ccf2" stroke="black" d="M1250,-53C1250,-53 1129,-53 1129,-53 1123,-53 1117,-47 1117,-41 1117,-41 1117,-12 1117,-12 1117,-6 1123,0 1129,0 1129,0 1250,0 1250,0 1256,0 1262,-6 1262,-12 1262,-12 1262,-41 1262,-41 1262,-47 1256,-53 1250,-53"/>
<text text-anchor="start" x="1143.5" y="-37.8" font-family="Helvetica,sans-Serif" font-size="14.00">entropy = 0.91</text>
<text text-anchor="start" x="1146" y="-22.8" font-family="Helvetica,sans-Serif" font-size="14.00">samples = 40</text>
<text text-anchor="start" x="1125" y="-7.8" font-family="Helvetica,sans-Serif" font-size="14.00">value = [0, 0, 27, 13]</text>
</g>
<!-- 15&#45;&gt;17 -->
<g id="edge17" class="edge">
<title>15&#45;&gt;17</title>
<path fill="none" stroke="black" d="M1086.11,-88.95C1102.81,-79.02 1121.06,-68.18 1137.51,-58.4"/>
<polygon fill="black" stroke="black" points="1139.64,-61.2 1146.45,-53.09 1136.06,-55.19 1139.64,-61.2"/>
</g>
<!-- 19 -->
<g id="node20" class="node">
<title>19</title>
<path fill="#f2c09c" stroke="black" d="M1329,-365C1329,-365 1208,-365 1208,-365 1202,-365 1196,-359 1196,-353 1196,-353 1196,-309 1196,-309 1196,-303 1202,-297 1208,-297 1208,-297 1329,-297 1329,-297 1335,-297 1341,-303 1341,-309 1341,-309 1341,-353 1341,-353 1341,-359 1335,-365 1329,-365"/>
<text text-anchor="start" x="1216.5" y="-349.8" font-family="Helvetica,sans-Serif" font-size="14.00">year ≤ 1991.875</text>
<text text-anchor="start" x="1218.5" y="-334.8" font-family="Helvetica,sans-Serif" font-size="14.00">entropy = 0.918</text>
<text text-anchor="start" x="1221" y="-319.8" font-family="Helvetica,sans-Serif" font-size="14.00">samples = 123</text>
<text text-anchor="start" x="1204" y="-304.8" font-family="Helvetica,sans-Serif" font-size="14.00">value = [82, 41, 0, 0]</text>
</g>
<!-- 18&#45;&gt;19 -->
<g id="edge19" class="edge">
<title>18&#45;&gt;19</title>
<path fill="none" stroke="black" d="M1268.5,-400.88C1268.5,-392.78 1268.5,-383.98 1268.5,-375.47"/>
<polygon fill="black" stroke="black" points="1272,-375.3 1268.5,-365.3 1265,-375.3 1272,-375.3"/>
</g>
<!-- 26 -->
<g id="node27" class="node">
<title>26</title>
<path fill="#bff6ba" stroke="black" d="M1798,-365C1798,-365 1661,-365 1661,-365 1655,-365 1649,-359 1649,-353 1649,-353 1649,-309 1649,-309 1649,-303 1655,-297 1661,-297 1661,-297 1798,-297 1798,-297 1804,-297 1810,-303 1810,-309 1810,-309 1810,-353 1810,-353 1810,-359 1804,-365 1798,-365"/>
<text text-anchor="start" x="1677.5" y="-349.8" font-family="Helvetica,sans-Serif" font-size="14.00">year ≤ 2007.688</text>
<text text-anchor="start" x="1679.5" y="-334.8" font-family="Helvetica,sans-Serif" font-size="14.00">entropy = 1.381</text>
<text text-anchor="start" x="1682" y="-319.8" font-family="Helvetica,sans-Serif" font-size="14.00">samples = 178</text>
<text text-anchor="start" x="1657" y="-304.8" font-family="Helvetica,sans-Serif" font-size="14.00">value = [1, 100, 58, 19]</text>
</g>
<!-- 18&#45;&gt;26 -->
<g id="edge26" class="edge">
<title>18&#45;&gt;26</title>
<path fill="none" stroke="black" d="M1353.59,-415.17C1434.59,-397.25 1556.08,-370.37 1638.87,-352.05"/>
<polygon fill="black" stroke="black" points="1639.76,-355.44 1648.77,-349.86 1638.25,-348.61 1639.76,-355.44"/>
</g>
<!-- 20 -->
<g id="node21" class="node">
<title>20</title>
<path fill="#e58139" stroke="black" d="M1270.5,-253.5C1270.5,-253.5 1166.5,-253.5 1166.5,-253.5 1160.5,-253.5 1154.5,-247.5 1154.5,-241.5 1154.5,-241.5 1154.5,-212.5 1154.5,-212.5 1154.5,-206.5 1160.5,-200.5 1166.5,-200.5 1166.5,-200.5 1270.5,-200.5 1270.5,-200.5 1276.5,-200.5 1282.5,-206.5 1282.5,-212.5 1282.5,-212.5 1282.5,-241.5 1282.5,-241.5 1282.5,-247.5 1276.5,-253.5 1270.5,-253.5"/>
<text text-anchor="start" x="1176.5" y="-238.3" font-family="Helvetica,sans-Serif" font-size="14.00">entropy = 0.0</text>
<text text-anchor="start" x="1179" y="-223.3" font-family="Helvetica,sans-Serif" font-size="14.00">samples = 3</text>
<text text-anchor="start" x="1162.5" y="-208.3" font-family="Helvetica,sans-Serif" font-size="14.00">value = [3, 0, 0, 0]</text>
</g>
<!-- 19&#45;&gt;20 -->
<g id="edge20" class="edge">
<title>19&#45;&gt;20</title>
<path fill="none" stroke="black" d="M1252.27,-296.88C1246.88,-285.89 1240.86,-273.62 1235.42,-262.52"/>
<polygon fill="black" stroke="black" points="1238.55,-260.96 1231.01,-253.52 1232.27,-264.04 1238.55,-260.96"/>
</g>
<!-- 21 -->
<g id="node22" class="node">
<title>21</title>
<path fill="#f2c2a0" stroke="black" d="M1434,-261C1434,-261 1313,-261 1313,-261 1307,-261 1301,-255 1301,-249 1301,-249 1301,-205 1301,-205 1301,-199 1307,-193 1313,-193 1313,-193 1434,-193 1434,-193 1440,-193 1446,-199 1446,-205 1446,-205 1446,-249 1446,-249 1446,-255 1440,-261 1434,-261"/>
<text text-anchor="start" x="1334" y="-245.8" font-family="Helvetica,sans-Serif" font-size="14.00">type ≤ 0.614</text>
<text text-anchor="start" x="1323.5" y="-230.8" font-family="Helvetica,sans-Serif" font-size="14.00">entropy = 0.926</text>
<text text-anchor="start" x="1326" y="-215.8" font-family="Helvetica,sans-Serif" font-size="14.00">samples = 120</text>
<text text-anchor="start" x="1309" y="-200.8" font-family="Helvetica,sans-Serif" font-size="14.00">value = [79, 41, 0, 0]</text>
</g>
<!-- 19&#45;&gt;21 -->
<g id="edge21" class="edge">
<title>19&#45;&gt;21</title>
<path fill="none" stroke="black" d="M1302.59,-296.88C1311.94,-287.8 1322.19,-277.85 1331.91,-268.4"/>
<polygon fill="black" stroke="black" points="1334.49,-270.78 1339.22,-261.3 1329.61,-265.76 1334.49,-270.78"/>
</g>
<!-- 22 -->
<g id="node23" class="node">
<title>22</title>
<path fill="#f2c19d" stroke="black" d="M1409,-157C1409,-157 1288,-157 1288,-157 1282,-157 1276,-151 1276,-145 1276,-145 1276,-101 1276,-101 1276,-95 1282,-89 1288,-89 1288,-89 1409,-89 1409,-89 1415,-89 1421,-95 1421,-101 1421,-101 1421,-145 1421,-145 1421,-151 1415,-157 1409,-157"/>
<text text-anchor="start" x="1296.5" y="-141.8" font-family="Helvetica,sans-Serif" font-size="14.00">year ≤ 2000.607</text>
<text text-anchor="start" x="1298.5" y="-126.8" font-family="Helvetica,sans-Serif" font-size="14.00">entropy = 0.921</text>
<text text-anchor="start" x="1301" y="-111.8" font-family="Helvetica,sans-Serif" font-size="14.00">samples = 119</text>
<text text-anchor="start" x="1284" y="-96.8" font-family="Helvetica,sans-Serif" font-size="14.00">value = [79, 40, 0, 0]</text>
</g>
<!-- 21&#45;&gt;22 -->
<g id="edge22" class="edge">
<title>21&#45;&gt;22</title>
<path fill="none" stroke="black" d="M1365.38,-192.88C1363.37,-184.69 1361.19,-175.79 1359.09,-167.19"/>
<polygon fill="black" stroke="black" points="1362.44,-166.18 1356.66,-157.3 1355.64,-167.85 1362.44,-166.18"/>
</g>
<!-- 25 -->
<g id="node26" class="node">
<title>25</title>
<path fill="#47e539" stroke="black" d="M1555.5,-149.5C1555.5,-149.5 1451.5,-149.5 1451.5,-149.5 1445.5,-149.5 1439.5,-143.5 1439.5,-137.5 1439.5,-137.5 1439.5,-108.5 1439.5,-108.5 1439.5,-102.5 1445.5,-96.5 1451.5,-96.5 1451.5,-96.5 1555.5,-96.5 1555.5,-96.5 1561.5,-96.5 1567.5,-102.5 1567.5,-108.5 1567.5,-108.5 1567.5,-137.5 1567.5,-137.5 1567.5,-143.5 1561.5,-149.5 1555.5,-149.5"/>
<text text-anchor="start" x="1461.5" y="-134.3" font-family="Helvetica,sans-Serif" font-size="14.00">entropy = 0.0</text>
<text text-anchor="start" x="1464" y="-119.3" font-family="Helvetica,sans-Serif" font-size="14.00">samples = 1</text>
<text text-anchor="start" x="1447.5" y="-104.3" font-family="Helvetica,sans-Serif" font-size="14.00">value = [0, 1, 0, 0]</text>
</g>
<!-- 21&#45;&gt;25 -->
<g id="edge25" class="edge">
<title>21&#45;&gt;25</title>
<path fill="none" stroke="black" d="M1415.71,-192.88C1430.85,-181.01 1447.87,-167.65 1462.87,-155.88"/>
<polygon fill="black" stroke="black" points="1465.27,-158.45 1470.97,-149.52 1460.95,-152.94 1465.27,-158.45"/>
</g>
<!-- 23 -->
<g id="node24" class="node">
<title>23</title>
<path fill="#e58139" stroke="black" d="M1405,-53C1405,-53 1292,-53 1292,-53 1286,-53 1280,-47 1280,-41 1280,-41 1280,-12 1280,-12 1280,-6 1286,0 1292,0 1292,0 1405,0 1405,0 1411,0 1417,-6 1417,-12 1417,-12 1417,-41 1417,-41 1417,-47 1411,-53 1405,-53"/>
<text text-anchor="start" x="1306.5" y="-37.8" font-family="Helvetica,sans-Serif" font-size="14.00">entropy = 0.0</text>
<text text-anchor="start" x="1305" y="-22.8" font-family="Helvetica,sans-Serif" font-size="14.00">samples = 36</text>
<text text-anchor="start" x="1288" y="-7.8" font-family="Helvetica,sans-Serif" font-size="14.00">value = [36, 0, 0, 0]</text>
</g>
<!-- 22&#45;&gt;23 -->
<g id="edge23" class="edge">
<title>22&#45;&gt;23</title>
<path fill="none" stroke="black" d="M1348.5,-88.95C1348.5,-80.72 1348.5,-71.85 1348.5,-63.48"/>
<polygon fill="black" stroke="black" points="1352,-63.24 1348.5,-53.24 1345,-63.24 1352,-63.24"/>
</g>
<!-- 24 -->
<g id="node25" class="node">
<title>24</title>
<path fill="#fdf6f1" stroke="black" d="M1568,-53C1568,-53 1447,-53 1447,-53 1441,-53 1435,-47 1435,-41 1435,-41 1435,-12 1435,-12 1435,-6 1441,0 1447,0 1447,0 1568,0 1568,0 1574,0 1580,-6 1580,-12 1580,-12 1580,-41 1580,-41 1580,-47 1574,-53 1568,-53"/>
<text text-anchor="start" x="1457.5" y="-37.8" font-family="Helvetica,sans-Serif" font-size="14.00">entropy = 0.999</text>
<text text-anchor="start" x="1464" y="-22.8" font-family="Helvetica,sans-Serif" font-size="14.00">samples = 83</text>
<text text-anchor="start" x="1443" y="-7.8" font-family="Helvetica,sans-Serif" font-size="14.00">value = [43, 40, 0, 0]</text>
</g>
<!-- 22&#45;&gt;24 -->
<g id="edge24" class="edge">
<title>22&#45;&gt;24</title>
<path fill="none" stroke="black" d="M1404.11,-88.95C1420.81,-79.02 1439.06,-68.18 1455.51,-58.4"/>
<polygon fill="black" stroke="black" points="1457.64,-61.2 1464.45,-53.09 1454.06,-55.19 1457.64,-61.2"/>
</g>
<!-- 27 -->
<g id="node28" class="node">
<title>27</title>
<path fill="#4ee640" stroke="black" d="M1786,-261C1786,-261 1673,-261 1673,-261 1667,-261 1661,-255 1661,-249 1661,-249 1661,-205 1661,-205 1661,-199 1667,-193 1673,-193 1673,-193 1786,-193 1786,-193 1792,-193 1798,-199 1798,-205 1798,-205 1798,-249 1798,-249 1798,-255 1792,-261 1786,-261"/>
<text text-anchor="start" x="1674" y="-245.8" font-family="Helvetica,sans-Serif" font-size="14.00">fuel_type ≤ 0.272</text>
<text text-anchor="start" x="1679.5" y="-230.8" font-family="Helvetica,sans-Serif" font-size="14.00">entropy = 0.216</text>
<text text-anchor="start" x="1686" y="-215.8" font-family="Helvetica,sans-Serif" font-size="14.00">samples = 29</text>
<text text-anchor="start" x="1669" y="-200.8" font-family="Helvetica,sans-Serif" font-size="14.00">value = [1, 28, 0, 0]</text>
</g>
<!-- 26&#45;&gt;27 -->
<g id="edge27" class="edge">
<title>26&#45;&gt;27</title>
<path fill="none" stroke="black" d="M1729.5,-296.88C1729.5,-288.78 1729.5,-279.98 1729.5,-271.47"/>
<polygon fill="black" stroke="black" points="1733,-271.3 1729.5,-261.3 1726,-271.3 1733,-271.3"/>
</g>
<!-- 30 -->
<g id="node31" class="node">
<title>30</title>
<path fill="#e3fbe1" stroke="black" d="M2033,-261C2033,-261 1904,-261 1904,-261 1898,-261 1892,-255 1892,-249 1892,-249 1892,-205 1892,-205 1892,-199 1898,-193 1904,-193 1904,-193 2033,-193 2033,-193 2039,-193 2045,-199 2045,-205 2045,-205 2045,-249 2045,-249 2045,-255 2039,-261 2033,-261"/>
<text text-anchor="start" x="1916.5" y="-245.8" font-family="Helvetica,sans-Serif" font-size="14.00">year ≤ 2013.583</text>
<text text-anchor="start" x="1918.5" y="-230.8" font-family="Helvetica,sans-Serif" font-size="14.00">entropy = 1.416</text>
<text text-anchor="start" x="1921" y="-215.8" font-family="Helvetica,sans-Serif" font-size="14.00">samples = 149</text>
<text text-anchor="start" x="1900" y="-200.8" font-family="Helvetica,sans-Serif" font-size="14.00">value = [0, 72, 58, 19]</text>
</g>
<!-- 26&#45;&gt;30 -->
<g id="edge30" class="edge">
<title>26&#45;&gt;30</title>
<path fill="none" stroke="black" d="M1807.1,-296.88C1831.15,-286.62 1857.79,-275.25 1882.39,-264.75"/>
<polygon fill="black" stroke="black" points="1883.88,-267.92 1891.7,-260.78 1881.13,-261.48 1883.88,-267.92"/>
</g>
<!-- 28 -->
<g id="node29" class="node">
<title>28</title>
<path fill="#47e539" stroke="black" d="M1711,-149.5C1711,-149.5 1598,-149.5 1598,-149.5 1592,-149.5 1586,-143.5 1586,-137.5 1586,-137.5 1586,-108.5 1586,-108.5 1586,-102.5 1592,-96.5 1598,-96.5 1598,-96.5 1711,-96.5 1711,-96.5 1717,-96.5 1723,-102.5 1723,-108.5 1723,-108.5 1723,-137.5 1723,-137.5 1723,-143.5 1717,-149.5 1711,-149.5"/>
<text text-anchor="start" x="1612.5" y="-134.3" font-family="Helvetica,sans-Serif" font-size="14.00">entropy = 0.0</text>
<text text-anchor="start" x="1611" y="-119.3" font-family="Helvetica,sans-Serif" font-size="14.00">samples = 16</text>
<text text-anchor="start" x="1594" y="-104.3" font-family="Helvetica,sans-Serif" font-size="14.00">value = [0, 16, 0, 0]</text>
</g>
<!-- 27&#45;&gt;28 -->
<g id="edge28" class="edge">
<title>27&#45;&gt;28</title>
<path fill="none" stroke="black" d="M1705.15,-192.88C1696.9,-181.67 1687.68,-169.13 1679.39,-157.85"/>
<polygon fill="black" stroke="black" points="1682.01,-155.5 1673.26,-149.52 1676.37,-159.65 1682.01,-155.5"/>
</g>
<!-- 29 -->
<g id="node30" class="node">
<title>29</title>
<path fill="#56e749" stroke="black" d="M1866,-149.5C1866,-149.5 1753,-149.5 1753,-149.5 1747,-149.5 1741,-143.5 1741,-137.5 1741,-137.5 1741,-108.5 1741,-108.5 1741,-102.5 1747,-96.5 1753,-96.5 1753,-96.5 1866,-96.5 1866,-96.5 1872,-96.5 1878,-102.5 1878,-108.5 1878,-108.5 1878,-137.5 1878,-137.5 1878,-143.5 1872,-149.5 1866,-149.5"/>
<text text-anchor="start" x="1759.5" y="-134.3" font-family="Helvetica,sans-Serif" font-size="14.00">entropy = 0.391</text>
<text text-anchor="start" x="1766" y="-119.3" font-family="Helvetica,sans-Serif" font-size="14.00">samples = 13</text>
<text text-anchor="start" x="1749" y="-104.3" font-family="Helvetica,sans-Serif" font-size="14.00">value = [1, 12, 0, 0]</text>
</g>
<!-- 27&#45;&gt;29 -->
<g id="edge29" class="edge">
<title>27&#45;&gt;29</title>
<path fill="none" stroke="black" d="M1755.47,-192.88C1764.36,-181.56 1774.3,-168.88 1783.21,-157.52"/>
<polygon fill="black" stroke="black" points="1786.07,-159.55 1789.48,-149.52 1780.56,-155.23 1786.07,-159.55"/>
</g>
<!-- 31 -->
<g id="node32" class="node">
<title>31</title>
<path fill="#baf5b5" stroke="black" d="M2029,-157C2029,-157 1908,-157 1908,-157 1902,-157 1896,-151 1896,-145 1896,-145 1896,-101 1896,-101 1896,-95 1902,-89 1908,-89 1908,-89 2029,-89 2029,-89 2035,-89 2041,-95 2041,-101 2041,-101 2041,-145 2041,-145 2041,-151 2035,-157 2029,-157"/>
<text text-anchor="start" x="1916.5" y="-141.8" font-family="Helvetica,sans-Serif" font-size="14.00">year ≤ 2008.706</text>
<text text-anchor="start" x="1918.5" y="-126.8" font-family="Helvetica,sans-Serif" font-size="14.00">entropy = 0.961</text>
<text text-anchor="start" x="1921" y="-111.8" font-family="Helvetica,sans-Serif" font-size="14.00">samples = 117</text>
<text text-anchor="start" x="1904" y="-96.8" font-family="Helvetica,sans-Serif" font-size="14.00">value = [0, 72, 45, 0]</text>
</g>
<!-- 30&#45;&gt;31 -->
<g id="edge31" class="edge">
<title>30&#45;&gt;31</title>
<path fill="none" stroke="black" d="M1968.5,-192.88C1968.5,-184.78 1968.5,-175.98 1968.5,-167.47"/>
<polygon fill="black" stroke="black" points="1972,-167.3 1968.5,-157.3 1965,-167.3 1972,-167.3"/>
</g>
<!-- 34 -->
<g id="node35" class="node">
<title>34</title>
<path fill="#f2c0f7" stroke="black" d="M2192,-157C2192,-157 2071,-157 2071,-157 2065,-157 2059,-151 2059,-145 2059,-145 2059,-101 2059,-101 2059,-95 2065,-89 2071,-89 2071,-89 2192,-89 2192,-89 2198,-89 2204,-95 2204,-101 2204,-101 2204,-145 2204,-145 2204,-151 2198,-157 2192,-157"/>
<text text-anchor="start" x="2076" y="-141.8" font-family="Helvetica,sans-Serif" font-size="14.00">fuel_type ≤ 0.957</text>
<text text-anchor="start" x="2081.5" y="-126.8" font-family="Helvetica,sans-Serif" font-size="14.00">entropy = 0.974</text>
<text text-anchor="start" x="2088" y="-111.8" font-family="Helvetica,sans-Serif" font-size="14.00">samples = 32</text>
<text text-anchor="start" x="2067" y="-96.8" font-family="Helvetica,sans-Serif" font-size="14.00">value = [0, 0, 13, 19]</text>
</g>
<!-- 30&#45;&gt;34 -->
<g id="edge34" class="edge">
<title>30&#45;&gt;34</title>
<path fill="none" stroke="black" d="M2021.42,-192.88C2036.87,-183.21 2053.89,-172.56 2069.84,-162.59"/>
<polygon fill="black" stroke="black" points="2071.94,-165.4 2078.57,-157.12 2068.23,-159.46 2071.94,-165.4"/>
</g>
<!-- 32 -->
<g id="node33" class="node">
<title>32</title>
<path fill="#47e539" stroke="black" d="M1867,-53C1867,-53 1754,-53 1754,-53 1748,-53 1742,-47 1742,-41 1742,-41 1742,-12 1742,-12 1742,-6 1748,0 1754,0 1754,0 1867,0 1867,0 1873,0 1879,-6 1879,-12 1879,-12 1879,-41 1879,-41 1879,-47 1873,-53 1867,-53"/>
<text text-anchor="start" x="1768.5" y="-37.8" font-family="Helvetica,sans-Serif" font-size="14.00">entropy = 0.0</text>
<text text-anchor="start" x="1767" y="-22.8" font-family="Helvetica,sans-Serif" font-size="14.00">samples = 18</text>
<text text-anchor="start" x="1750" y="-7.8" font-family="Helvetica,sans-Serif" font-size="14.00">value = [0, 18, 0, 0]</text>
</g>
<!-- 31&#45;&gt;32 -->
<g id="edge32" class="edge">
<title>31&#45;&gt;32</title>
<path fill="none" stroke="black" d="M1913.24,-88.95C1896.65,-79.02 1878.51,-68.18 1862.16,-58.4"/>
<polygon fill="black" stroke="black" points="1863.66,-55.22 1853.28,-53.09 1860.07,-61.22 1863.66,-55.22"/>
</g>
<!-- 33 -->
<g id="node34" class="node">
<title>33</title>
<path fill="#e0fbde" stroke="black" d="M2030,-53C2030,-53 1909,-53 1909,-53 1903,-53 1897,-47 1897,-41 1897,-41 1897,-12 1897,-12 1897,-6 1903,0 1909,0 1909,0 2030,0 2030,0 2036,0 2042,-6 2042,-12 2042,-12 2042,-41 2042,-41 2042,-47 2036,-53 2030,-53"/>
<text text-anchor="start" x="1919.5" y="-37.8" font-family="Helvetica,sans-Serif" font-size="14.00">entropy = 0.994</text>
<text text-anchor="start" x="1926" y="-22.8" font-family="Helvetica,sans-Serif" font-size="14.00">samples = 99</text>
<text text-anchor="start" x="1905" y="-7.8" font-family="Helvetica,sans-Serif" font-size="14.00">value = [0, 54, 45, 0]</text>
</g>
<!-- 31&#45;&gt;33 -->
<g id="edge33" class="edge">
<title>31&#45;&gt;33</title>
<path fill="none" stroke="black" d="M1968.85,-88.95C1968.94,-80.72 1969.03,-71.85 1969.12,-63.48"/>
<polygon fill="black" stroke="black" points="1972.62,-63.27 1969.23,-53.24 1965.62,-63.2 1972.62,-63.27"/>
</g>
<!-- 35 -->
<g id="node36" class="node">
<title>35</title>
<path fill="#e16aec" stroke="black" d="M2187,-53C2187,-53 2074,-53 2074,-53 2068,-53 2062,-47 2062,-41 2062,-41 2062,-12 2062,-12 2062,-6 2068,0 2074,0 2074,0 2187,0 2187,0 2193,0 2199,-6 2199,-12 2199,-12 2199,-41 2199,-41 2199,-47 2193,-53 2187,-53"/>
<text text-anchor="start" x="2080.5" y="-37.8" font-family="Helvetica,sans-Serif" font-size="14.00">entropy = 0.722</text>
<text text-anchor="start" x="2087" y="-22.8" font-family="Helvetica,sans-Serif" font-size="14.00">samples = 15</text>
<text text-anchor="start" x="2070" y="-7.8" font-family="Helvetica,sans-Serif" font-size="14.00">value = [0, 0, 3, 12]</text>
</g>
<!-- 34&#45;&gt;35 -->
<g id="edge35" class="edge">
<title>34&#45;&gt;35</title>
<path fill="none" stroke="black" d="M2131.15,-88.95C2131.06,-80.72 2130.97,-71.85 2130.88,-63.48"/>
<polygon fill="black" stroke="black" points="2134.38,-63.2 2130.77,-53.24 2127.38,-63.27 2134.38,-63.2"/>
</g>
<!-- 36 -->
<g id="node37" class="node">
<title>36</title>
<path fill="#c4e2f7" stroke="black" d="M2342,-53C2342,-53 2229,-53 2229,-53 2223,-53 2217,-47 2217,-41 2217,-41 2217,-12 2217,-12 2217,-6 2223,0 2229,0 2229,0 2342,0 2342,0 2348,0 2354,-6 2354,-12 2354,-12 2354,-41 2354,-41 2354,-47 2348,-53 2342,-53"/>
<text text-anchor="start" x="2235.5" y="-37.8" font-family="Helvetica,sans-Serif" font-size="14.00">entropy = 0.977</text>
<text text-anchor="start" x="2242" y="-22.8" font-family="Helvetica,sans-Serif" font-size="14.00">samples = 17</text>
<text text-anchor="start" x="2225" y="-7.8" font-family="Helvetica,sans-Serif" font-size="14.00">value = [0, 0, 10, 7]</text>
</g>
<!-- 34&#45;&gt;36 -->
<g id="edge36" class="edge">
<title>34&#45;&gt;36</title>
<path fill="none" stroke="black" d="M2185.36,-88.95C2201.46,-79.07 2219.05,-68.28 2234.93,-58.53"/>
<polygon fill="black" stroke="black" points="2236.87,-61.45 2243.56,-53.24 2233.2,-55.48 2236.87,-61.45"/>
</g>
</g>
</svg>
