<?xml version="1.0" encoding="UTF-8" standalone="no"?>
<!DOCTYPE svg PUBLIC "-//W3C//DTD SVG 1.1//EN"
 "http://www.w3.org/Graphics/SVG/1.1/DTD/svg11.dtd">
<!-- Generated by graphviz version 2.47.1 (20210417.1919)
 -->
<!-- Title: Tree Pages: 1 -->
<svg width="746pt" height="225pt"
 viewBox="0.00 0.00 746.00 225.00" xmlns="http://www.w3.org/2000/svg" xmlns:xlink="http://www.w3.org/1999/xlink">
<g id="graph0" class="graph" transform="scale(1 1) rotate(0) translate(4 221)">
<title>Tree</title>
<polygon fill="white" stroke="transparent" points="-4,4 -4,-221 742,-221 742,4 -4,4"/>
<!-- 0 -->
<g id="node1" class="node">
<title>0</title>
<path fill="#fdf7f3" stroke="black" d="M531,-217C531,-217 200,-217 200,-217 194,-217 188,-211 188,-205 188,-205 188,-131 188,-131 188,-125 194,-119 200,-119 200,-119 531,-119 531,-119 537,-119 543,-125 543,-131 543,-131 543,-205 543,-205 543,-211 537,-217 531,-217"/>
<text text-anchor="start" x="313.5" y="-201.8" font-family="Helvetica,sans-Serif" font-size="14.00">year ≤ 2000.048</text>
<text text-anchor="start" x="347" y="-186.8" font-family="Helvetica,sans-Serif" font-size="14.00">0.819</text>
<text text-anchor="start" x="340.5" y="-171.8" font-family="Helvetica,sans-Serif" font-size="14.00">100.0%</text>
<text text-anchor="start" x="198.5" y="-156.8" font-family="Helvetica,sans-Serif" font-size="14.00">[0.279, 0.232, 0.163, 0.118, 0.07, 0.049, 0.028, 0.02</text>
<text text-anchor="start" x="196" y="-141.8" font-family="Helvetica,sans-Serif" font-size="14.00">0.01, 0.009, 0.006, 0.004, 0.002, 0.002, 0.002, 0.002</text>
<text text-anchor="start" x="278.5" y="-126.8" font-family="Helvetica,sans-Serif" font-size="14.00">0.001, 0.001, 0.001, 0.001]</text>
</g>
<!-- 1 -->
<g id="node2" class="node">
<title>1</title>
<path fill="#f0b890" stroke="black" d="M341,-83C341,-83 12,-83 12,-83 6,-83 0,-77 0,-71 0,-71 0,-12 0,-12 0,-6 6,0 12,0 12,0 341,0 341,0 347,0 353,-6 353,-12 353,-12 353,-71 353,-71 353,-77 347,-83 341,-83"/>
<text text-anchor="start" x="158" y="-67.8" font-family="Helvetica,sans-Serif" font-size="14.00">0.464</text>
<text text-anchor="start" x="155.5" y="-52.8" font-family="Helvetica,sans-Serif" font-size="14.00">38.9%</text>
<text text-anchor="start" x="8" y="-37.8" font-family="Helvetica,sans-Serif" font-size="14.00">[0.68, 0.268, 0.041, 0.007, 0.002, 0.001, 0.0, 0.0, 0.0</text>
<text text-anchor="start" x="41" y="-22.8" font-family="Helvetica,sans-Serif" font-size="14.00">0.0, 0.0, 0.0, 0.0, 0.0, 0.0, 0.0, 0.0, 0.0, 0.0</text>
<text text-anchor="start" x="164" y="-7.8" font-family="Helvetica,sans-Serif" font-size="14.00">0.0]</text>
</g>
<!-- 0&#45;&gt;1 -->
<g id="edge1" class="edge">
<title>0&#45;&gt;1</title>
<path fill="none" stroke="black" d="M292.43,-118.87C277.41,-108.97 261.62,-98.57 246.7,-88.74"/>
<polygon fill="black" stroke="black" points="248.31,-85.61 238.03,-83.03 244.46,-91.46 248.31,-85.61"/>
<text text-anchor="middle" x="243.07" y="-103.82" font-family="Helvetica,sans-Serif" font-size="14.00">True</text>
</g>
<!-- 2 -->
<g id="node3" class="node">
<title>2</title>
<path fill="#fefef7" stroke="black" d="M726,-83C726,-83 383,-83 383,-83 377,-83 371,-77 371,-71 371,-71 371,-12 371,-12 371,-6 377,0 383,0 383,0 726,0 726,0 732,0 738,-6 738,-12 738,-12 738,-71 738,-71 738,-77 732,-83 726,-83"/>
<text text-anchor="start" x="540" y="-67.8" font-family="Helvetica,sans-Serif" font-size="14.00">0.84</text>
<text text-anchor="start" x="533.5" y="-52.8" font-family="Helvetica,sans-Serif" font-size="14.00">61.1%</text>
<text text-anchor="start" x="379" y="-37.8" font-family="Helvetica,sans-Serif" font-size="14.00">[0.024, 0.208, 0.241, 0.189, 0.113, 0.079, 0.045, 0.033</text>
<text text-anchor="start" x="385" y="-22.8" font-family="Helvetica,sans-Serif" font-size="14.00">0.017, 0.014, 0.01, 0.007, 0.003, 0.004, 0.004, 0.004</text>
<text text-anchor="start" x="467.5" y="-7.8" font-family="Helvetica,sans-Serif" font-size="14.00">0.002, 0.002, 0.001, 0.001]</text>
</g>
<!-- 0&#45;&gt;2 -->
<g id="edge2" class="edge">
<title>0&#45;&gt;2</title>
<path fill="none" stroke="black" d="M438.57,-118.87C453.59,-108.97 469.38,-98.57 484.3,-88.74"/>
<polygon fill="black" stroke="black" points="486.54,-91.46 492.97,-83.03 482.69,-85.61 486.54,-91.46"/>
<text text-anchor="middle" x="487.93" y="-103.82" font-family="Helvetica,sans-Serif" font-size="14.00">False</text>
</g>
</g>
</svg>
