<?xml version="1.0" encoding="UTF-8" standalone="no"?>
<!DOCTYPE svg PUBLIC "-//W3C//DTD SVG 1.1//EN"
 "http://www.w3.org/Graphics/SVG/1.1/DTD/svg11.dtd">
<!-- Generated by graphviz version 2.47.1 (20210417.1919)
 -->
<!-- Title: Tree Pages: 1 -->
<svg width="2891pt" height="493pt"
 viewBox="0.00 0.00 2890.50 493.00" xmlns="http://www.w3.org/2000/svg" xmlns:xlink="http://www.w3.org/1999/xlink">
<g id="graph0" class="graph" transform="scale(1 1) rotate(0) translate(4 489)">
<title>Tree</title>
<polygon fill="white" stroke="transparent" points="-4,4 -4,-489 2886.5,-489 2886.5,4 -4,4"/>
<!-- 0 -->
<g id="node1" class="node">
<title>0</title>
<path fill="#fdf7f3" stroke="black" d="M1480.5,-485C1480.5,-485 1149.5,-485 1149.5,-485 1143.5,-485 1137.5,-479 1137.5,-473 1137.5,-473 1137.5,-399 1137.5,-399 1137.5,-393 1143.5,-387 1149.5,-387 1149.5,-387 1480.5,-387 1480.5,-387 1486.5,-387 1492.5,-393 1492.5,-399 1492.5,-399 1492.5,-473 1492.5,-473 1492.5,-479 1486.5,-485 1480.5,-485"/>
<text text-anchor="start" x="1263" y="-469.8" font-family="Helvetica,sans-Serif" font-size="14.00">year ≤ 2000.069</text>
<text text-anchor="start" x="1296.5" y="-454.8" font-family="Helvetica,sans-Serif" font-size="14.00">0.819</text>
<text text-anchor="start" x="1290" y="-439.8" font-family="Helvetica,sans-Serif" font-size="14.00">100.0%</text>
<text text-anchor="start" x="1148" y="-424.8" font-family="Helvetica,sans-Serif" font-size="14.00">[0.279, 0.232, 0.163, 0.118, 0.07, 0.049, 0.028, 0.02</text>
<text text-anchor="start" x="1145.5" y="-409.8" font-family="Helvetica,sans-Serif" font-size="14.00">0.01, 0.009, 0.006, 0.004, 0.002, 0.002, 0.002, 0.002</text>
<text text-anchor="start" x="1228" y="-394.8" font-family="Helvetica,sans-Serif" font-size="14.00">0.001, 0.001, 0.001, 0.001]</text>
</g>
<!-- 1 -->
<g id="node2" class="node">
<title>1</title>
<path fill="#f0b890" stroke="black" d="M1289.5,-351C1289.5,-351 960.5,-351 960.5,-351 954.5,-351 948.5,-345 948.5,-339 948.5,-339 948.5,-265 948.5,-265 948.5,-259 954.5,-253 960.5,-253 960.5,-253 1289.5,-253 1289.5,-253 1295.5,-253 1301.5,-259 1301.5,-265 1301.5,-265 1301.5,-339 1301.5,-339 1301.5,-345 1295.5,-351 1289.5,-351"/>
<text text-anchor="start" x="1063" y="-335.8" font-family="Helvetica,sans-Serif" font-size="14.00">transmission ≤ 0.91</text>
<text text-anchor="start" x="1106.5" y="-320.8" font-family="Helvetica,sans-Serif" font-size="14.00">0.464</text>
<text text-anchor="start" x="1104" y="-305.8" font-family="Helvetica,sans-Serif" font-size="14.00">38.9%</text>
<text text-anchor="start" x="956.5" y="-290.8" font-family="Helvetica,sans-Serif" font-size="14.00">[0.68, 0.268, 0.041, 0.007, 0.002, 0.001, 0.0, 0.0, 0.0</text>
<text text-anchor="start" x="989.5" y="-275.8" font-family="Helvetica,sans-Serif" font-size="14.00">0.0, 0.0, 0.0, 0.0, 0.0, 0.0, 0.0, 0.0, 0.0, 0.0</text>
<text text-anchor="start" x="1112.5" y="-260.8" font-family="Helvetica,sans-Serif" font-size="14.00">0.0]</text>
</g>
<!-- 0&#45;&gt;1 -->
<g id="edge1" class="edge">
<title>0&#45;&gt;1</title>
<path fill="none" stroke="black" d="M1245.87,-386.97C1231.85,-377.24 1217.03,-366.93 1202.74,-357.01"/>
<polygon fill="black" stroke="black" points="1204.61,-354.05 1194.4,-351.21 1200.61,-359.79 1204.61,-354.05"/>
<text text-anchor="middle" x="1198.83" y="-372.12" font-family="Helvetica,sans-Serif" font-size="14.00">True</text>
</g>
<!-- 8 -->
<g id="node9" class="node">
<title>8</title>
<path fill="#fefef7" stroke="black" d="M1839.5,-351C1839.5,-351 1496.5,-351 1496.5,-351 1490.5,-351 1484.5,-345 1484.5,-339 1484.5,-339 1484.5,-265 1484.5,-265 1484.5,-259 1490.5,-253 1496.5,-253 1496.5,-253 1839.5,-253 1839.5,-253 1845.5,-253 1851.5,-259 1851.5,-265 1851.5,-265 1851.5,-339 1851.5,-339 1851.5,-345 1845.5,-351 1839.5,-351"/>
<text text-anchor="start" x="1616" y="-335.8" font-family="Helvetica,sans-Serif" font-size="14.00">year ≤ 2001.771</text>
<text text-anchor="start" x="1653.5" y="-320.8" font-family="Helvetica,sans-Serif" font-size="14.00">0.84</text>
<text text-anchor="start" x="1647" y="-305.8" font-family="Helvetica,sans-Serif" font-size="14.00">61.1%</text>
<text text-anchor="start" x="1492.5" y="-290.8" font-family="Helvetica,sans-Serif" font-size="14.00">[0.024, 0.208, 0.241, 0.189, 0.113, 0.079, 0.045, 0.033</text>
<text text-anchor="start" x="1498.5" y="-275.8" font-family="Helvetica,sans-Serif" font-size="14.00">0.017, 0.014, 0.01, 0.007, 0.003, 0.004, 0.004, 0.004</text>
<text text-anchor="start" x="1581" y="-260.8" font-family="Helvetica,sans-Serif" font-size="14.00">0.002, 0.002, 0.001, 0.001]</text>
</g>
<!-- 0&#45;&gt;8 -->
<g id="edge8" class="edge">
<title>0&#45;&gt;8</title>
<path fill="none" stroke="black" d="M1443.44,-386.97C1471.51,-376.47 1501.34,-365.32 1529.77,-354.69"/>
<polygon fill="black" stroke="black" points="1531.22,-357.88 1539.36,-351.1 1528.77,-351.33 1531.22,-357.88"/>
<text text-anchor="middle" x="1528.99" y="-370.15" font-family="Helvetica,sans-Serif" font-size="14.00">False</text>
</g>
<!-- 2 -->
<g id="node3" class="node">
<title>2</title>
<path fill="#eeaf81" stroke="black" d="M661.5,-217C661.5,-217 332.5,-217 332.5,-217 326.5,-217 320.5,-211 320.5,-205 320.5,-205 320.5,-131 320.5,-131 320.5,-125 326.5,-119 332.5,-119 332.5,-119 661.5,-119 661.5,-119 667.5,-119 673.5,-125 673.5,-131 673.5,-131 673.5,-205 673.5,-205 673.5,-211 667.5,-217 661.5,-217"/>
<text text-anchor="start" x="441.5" y="-201.8" font-family="Helvetica,sans-Serif" font-size="14.00">fuel_type ≤ 0.775</text>
<text text-anchor="start" x="482.5" y="-186.8" font-family="Helvetica,sans-Serif" font-size="14.00">0.42</text>
<text text-anchor="start" x="476" y="-171.8" font-family="Helvetica,sans-Serif" font-size="14.00">34.0%</text>
<text text-anchor="start" x="328.5" y="-156.8" font-family="Helvetica,sans-Serif" font-size="14.00">[0.723, 0.239, 0.03, 0.006, 0.002, 0.001, 0.0, 0.0, 0.0</text>
<text text-anchor="start" x="361.5" y="-141.8" font-family="Helvetica,sans-Serif" font-size="14.00">0.0, 0.0, 0.0, 0.0, 0.0, 0.0, 0.0, 0.0, 0.0, 0.0</text>
<text text-anchor="start" x="484.5" y="-126.8" font-family="Helvetica,sans-Serif" font-size="14.00">0.0]</text>
</g>
<!-- 1&#45;&gt;2 -->
<g id="edge2" class="edge">
<title>1&#45;&gt;2</title>
<path fill="none" stroke="black" d="M948.4,-263.88C865.78,-246.51 767.35,-225.83 683.52,-208.21"/>
<polygon fill="black" stroke="black" points="684.14,-204.76 673.64,-206.13 682.7,-211.61 684.14,-204.76"/>
</g>
<!-- 5 -->
<g id="node6" class="node">
<title>5</title>
<path fill="#fbf4e3" stroke="black" d="M1292.5,-217C1292.5,-217 957.5,-217 957.5,-217 951.5,-217 945.5,-211 945.5,-205 945.5,-205 945.5,-131 945.5,-131 945.5,-125 951.5,-119 957.5,-119 957.5,-119 1292.5,-119 1292.5,-119 1298.5,-119 1304.5,-125 1304.5,-131 1304.5,-131 1304.5,-205 1304.5,-205 1304.5,-211 1298.5,-217 1292.5,-217"/>
<text text-anchor="start" x="1069.5" y="-201.8" font-family="Helvetica,sans-Serif" font-size="14.00">fuel_type ≤ 0.792</text>
<text text-anchor="start" x="1106.5" y="-186.8" font-family="Helvetica,sans-Serif" font-size="14.00">0.617</text>
<text text-anchor="start" x="1108" y="-171.8" font-family="Helvetica,sans-Serif" font-size="14.00">4.9%</text>
<text text-anchor="start" x="953.5" y="-156.8" font-family="Helvetica,sans-Serif" font-size="14.00">[0.383, 0.471, 0.12, 0.014, 0.005, 0.004, 0.001, 0.001</text>
<text text-anchor="start" x="973" y="-141.8" font-family="Helvetica,sans-Serif" font-size="14.00">0.0, 0.001, 0.0, 0.001, 0.0, 0.0, 0.0, 0.0, 0.0, 0.0</text>
<text text-anchor="start" x="1099" y="-126.8" font-family="Helvetica,sans-Serif" font-size="14.00">0.0, 0.0]</text>
</g>
<!-- 1&#45;&gt;5 -->
<g id="edge5" class="edge">
<title>1&#45;&gt;5</title>
<path fill="none" stroke="black" d="M1125,-252.97C1125,-244.69 1125,-236 1125,-227.48"/>
<polygon fill="black" stroke="black" points="1128.5,-227.21 1125,-217.21 1121.5,-227.21 1128.5,-227.21"/>
</g>
<!-- 3 -->
<g id="node4" class="node">
<title>3</title>
<path fill="#eba06a" stroke="black" d="M300,-83C300,-83 12,-83 12,-83 6,-83 0,-77 0,-71 0,-71 0,-12 0,-12 0,-6 6,0 12,0 12,0 300,0 300,0 306,0 312,-6 312,-12 312,-12 312,-71 312,-71 312,-77 306,-83 300,-83"/>
<text text-anchor="start" x="137.5" y="-67.8" font-family="Helvetica,sans-Serif" font-size="14.00">0.327</text>
<text text-anchor="start" x="135" y="-52.8" font-family="Helvetica,sans-Serif" font-size="14.00">23.4%</text>
<text text-anchor="start" x="8" y="-37.8" font-family="Helvetica,sans-Serif" font-size="14.00">[0.798, 0.19, 0.01, 0.001, 0.0, 0.0, 0.0, 0.0, 0.0</text>
<text text-anchor="start" x="20.5" y="-22.8" font-family="Helvetica,sans-Serif" font-size="14.00">0.0, 0.0, 0.0, 0.0, 0.0, 0.0, 0.0, 0.0, 0.0, 0.0</text>
<text text-anchor="start" x="143.5" y="-7.8" font-family="Helvetica,sans-Serif" font-size="14.00">0.0]</text>
</g>
<!-- 2&#45;&gt;3 -->
<g id="edge3" class="edge">
<title>2&#45;&gt;3</title>
<path fill="none" stroke="black" d="M365.16,-118.87C336.03,-108.23 305.31,-97.01 276.65,-86.55"/>
<polygon fill="black" stroke="black" points="277.61,-83.17 267.02,-83.03 275.21,-89.75 277.61,-83.17"/>
</g>
<!-- 4 -->
<g id="node5" class="node">
<title>4</title>
<path fill="#f7d6bf" stroke="black" d="M652,-83C652,-83 342,-83 342,-83 336,-83 330,-77 330,-71 330,-71 330,-12 330,-12 330,-6 336,0 342,0 342,0 652,0 652,0 658,0 664,-6 664,-12 664,-12 664,-71 664,-71 664,-77 658,-83 652,-83"/>
<text text-anchor="start" x="478.5" y="-67.8" font-family="Helvetica,sans-Serif" font-size="14.00">0.564</text>
<text text-anchor="start" x="476" y="-52.8" font-family="Helvetica,sans-Serif" font-size="14.00">10.6%</text>
<text text-anchor="start" x="338" y="-37.8" font-family="Helvetica,sans-Serif" font-size="14.00">[0.558, 0.346, 0.073, 0.015, 0.006, 0.002, 0.0, 0.0</text>
<text text-anchor="start" x="361.5" y="-22.8" font-family="Helvetica,sans-Serif" font-size="14.00">0.0, 0.0, 0.0, 0.0, 0.0, 0.0, 0.0, 0.0, 0.0, 0.0</text>
<text text-anchor="start" x="471" y="-7.8" font-family="Helvetica,sans-Serif" font-size="14.00">0.0, 0.0]</text>
</g>
<!-- 2&#45;&gt;4 -->
<g id="edge4" class="edge">
<title>2&#45;&gt;4</title>
<path fill="none" stroke="black" d="M497,-118.87C497,-110.5 497,-101.77 497,-93.33"/>
<polygon fill="black" stroke="black" points="500.5,-93.23 497,-83.23 493.5,-93.23 500.5,-93.23"/>
</g>
<!-- 6 -->
<g id="node7" class="node">
<title>6</title>
<path fill="#fefcf8" stroke="black" d="M1020,-83C1020,-83 694,-83 694,-83 688,-83 682,-77 682,-71 682,-71 682,-12 682,-12 682,-6 688,0 694,0 694,0 1020,0 1020,0 1026,0 1032,-6 1032,-12 1032,-12 1032,-71 1032,-71 1032,-77 1026,-83 1020,-83"/>
<text text-anchor="start" x="846.5" y="-67.8" font-family="Helvetica,sans-Serif" font-size="14.00">0.6</text>
<text text-anchor="start" x="840" y="-52.8" font-family="Helvetica,sans-Serif" font-size="14.00">3.9%</text>
<text text-anchor="start" x="690" y="-37.8" font-family="Helvetica,sans-Serif" font-size="14.00">[0.432, 0.452, 0.092, 0.011, 0.004, 0.005, 0.001, 0.0</text>
<text text-anchor="start" x="705" y="-22.8" font-family="Helvetica,sans-Serif" font-size="14.00">0.0, 0.001, 0.0, 0.001, 0.0, 0.0, 0.0, 0.0, 0.0, 0.0</text>
<text text-anchor="start" x="831" y="-7.8" font-family="Helvetica,sans-Serif" font-size="14.00">0.0, 0.0]</text>
</g>
<!-- 5&#45;&gt;6 -->
<g id="edge6" class="edge">
<title>5&#45;&gt;6</title>
<path fill="none" stroke="black" d="M1021.38,-118.87C999.09,-108.51 975.61,-97.6 953.59,-87.37"/>
<polygon fill="black" stroke="black" points="954.79,-84.07 944.25,-83.03 951.85,-90.42 954.79,-84.07"/>
</g>
<!-- 7 -->
<g id="node8" class="node">
<title>7</title>
<path fill="#f4e0ae" stroke="black" d="M1372,-83C1372,-83 1062,-83 1062,-83 1056,-83 1050,-77 1050,-71 1050,-71 1050,-12 1050,-12 1050,-6 1056,0 1062,0 1062,0 1372,0 1372,0 1378,0 1384,-6 1384,-12 1384,-12 1384,-71 1384,-71 1384,-77 1378,-83 1372,-83"/>
<text text-anchor="start" x="1198.5" y="-67.8" font-family="Helvetica,sans-Serif" font-size="14.00">0.611</text>
<text text-anchor="start" x="1200" y="-52.8" font-family="Helvetica,sans-Serif" font-size="14.00">1.0%</text>
<text text-anchor="start" x="1058" y="-37.8" font-family="Helvetica,sans-Serif" font-size="14.00">[0.184, 0.548, 0.233, 0.025, 0.007, 0.0, 0.0, 0.004</text>
<text text-anchor="start" x="1081.5" y="-22.8" font-family="Helvetica,sans-Serif" font-size="14.00">0.0, 0.0, 0.0, 0.0, 0.0, 0.0, 0.0, 0.0, 0.0, 0.0</text>
<text text-anchor="start" x="1191" y="-7.8" font-family="Helvetica,sans-Serif" font-size="14.00">0.0, 0.0]</text>
</g>
<!-- 5&#45;&gt;7 -->
<g id="edge7" class="edge">
<title>5&#45;&gt;7</title>
<path fill="none" stroke="black" d="M1160.57,-118.87C1167.23,-109.85 1174.19,-100.43 1180.87,-91.39"/>
<polygon fill="black" stroke="black" points="1183.77,-93.35 1186.9,-83.23 1178.14,-89.19 1183.77,-93.35"/>
</g>
<!-- 9 -->
<g id="node10" class="node">
<title>9</title>
<path fill="#f2d99b" stroke="black" d="M1839.5,-217C1839.5,-217 1496.5,-217 1496.5,-217 1490.5,-217 1484.5,-211 1484.5,-205 1484.5,-205 1484.5,-131 1484.5,-131 1484.5,-125 1490.5,-119 1496.5,-119 1496.5,-119 1839.5,-119 1839.5,-119 1845.5,-119 1851.5,-125 1851.5,-131 1851.5,-131 1851.5,-205 1851.5,-205 1851.5,-211 1845.5,-217 1839.5,-217"/>
<text text-anchor="start" x="1602" y="-201.8" font-family="Helvetica,sans-Serif" font-size="14.00">transmission ≤ 0.222</text>
<text text-anchor="start" x="1653.5" y="-186.8" font-family="Helvetica,sans-Serif" font-size="14.00">0.57</text>
<text text-anchor="start" x="1651" y="-171.8" font-family="Helvetica,sans-Serif" font-size="14.00">4.8%</text>
<text text-anchor="start" x="1492.5" y="-156.8" font-family="Helvetica,sans-Serif" font-size="14.00">[0.151, 0.604, 0.202, 0.035, 0.003, 0.001, 0.001, 0.001</text>
<text text-anchor="start" x="1524.5" y="-141.8" font-family="Helvetica,sans-Serif" font-size="14.00">0.0, 0.001, 0.0, 0.0, 0.0, 0.0, 0.0, 0.0, 0.0, 0.0</text>
<text text-anchor="start" x="1642" y="-126.8" font-family="Helvetica,sans-Serif" font-size="14.00">0.0, 0.0]</text>
</g>
<!-- 8&#45;&gt;9 -->
<g id="edge9" class="edge">
<title>8&#45;&gt;9</title>
<path fill="none" stroke="black" d="M1668,-252.97C1668,-244.69 1668,-236 1668,-227.48"/>
<polygon fill="black" stroke="black" points="1671.5,-227.21 1668,-217.21 1664.5,-227.21 1671.5,-227.21"/>
</g>
<!-- 12 -->
<g id="node13" class="node">
<title>12</title>
<path fill="#fdfef5" stroke="black" d="M2485.5,-217C2485.5,-217 2142.5,-217 2142.5,-217 2136.5,-217 2130.5,-211 2130.5,-205 2130.5,-205 2130.5,-131 2130.5,-131 2130.5,-125 2136.5,-119 2142.5,-119 2142.5,-119 2485.5,-119 2485.5,-119 2491.5,-119 2497.5,-125 2497.5,-131 2497.5,-131 2497.5,-205 2497.5,-205 2497.5,-211 2491.5,-217 2485.5,-217"/>
<text text-anchor="start" x="2262" y="-201.8" font-family="Helvetica,sans-Serif" font-size="14.00">year ≤ 2007.096</text>
<text text-anchor="start" x="2295.5" y="-186.8" font-family="Helvetica,sans-Serif" font-size="14.00">0.842</text>
<text text-anchor="start" x="2293" y="-171.8" font-family="Helvetica,sans-Serif" font-size="14.00">56.3%</text>
<text text-anchor="start" x="2138.5" y="-156.8" font-family="Helvetica,sans-Serif" font-size="14.00">[0.013, 0.174, 0.244, 0.202, 0.122, 0.086, 0.049, 0.036</text>
<text text-anchor="start" x="2140.5" y="-141.8" font-family="Helvetica,sans-Serif" font-size="14.00">0.018, 0.015, 0.011, 0.007, 0.003, 0.004, 0.004, 0.004</text>
<text text-anchor="start" x="2227" y="-126.8" font-family="Helvetica,sans-Serif" font-size="14.00">0.002, 0.002, 0.001, 0.001]</text>
</g>
<!-- 8&#45;&gt;12 -->
<g id="edge12" class="edge">
<title>8&#45;&gt;12</title>
<path fill="none" stroke="black" d="M1851.82,-263.44C1935.77,-246.28 2035.24,-225.96 2120.35,-208.57"/>
<polygon fill="black" stroke="black" points="2121.29,-211.95 2130.39,-206.52 2119.89,-205.09 2121.29,-211.95"/>
</g>
<!-- 10 -->
<g id="node11" class="node">
<title>10</title>
<path fill="#f1d693" stroke="black" d="M1740,-83C1740,-83 1414,-83 1414,-83 1408,-83 1402,-77 1402,-71 1402,-71 1402,-12 1402,-12 1402,-6 1408,0 1414,0 1414,0 1740,0 1740,0 1746,0 1752,-6 1752,-12 1752,-12 1752,-71 1752,-71 1752,-77 1746,-83 1740,-83"/>
<text text-anchor="start" x="1558.5" y="-67.8" font-family="Helvetica,sans-Serif" font-size="14.00">0.546</text>
<text text-anchor="start" x="1560" y="-52.8" font-family="Helvetica,sans-Serif" font-size="14.00">3.4%</text>
<text text-anchor="start" x="1410" y="-37.8" font-family="Helvetica,sans-Serif" font-size="14.00">[0.183, 0.628, 0.161, 0.024, 0.001, 0.002, 0.001, 0.0</text>
<text text-anchor="start" x="1441.5" y="-22.8" font-family="Helvetica,sans-Serif" font-size="14.00">0.0, 0.0, 0.0, 0.0, 0.0, 0.0, 0.0, 0.0, 0.0, 0.0</text>
<text text-anchor="start" x="1551" y="-7.8" font-family="Helvetica,sans-Serif" font-size="14.00">0.0, 0.0]</text>
</g>
<!-- 9&#45;&gt;10 -->
<g id="edge10" class="edge">
<title>9&#45;&gt;10</title>
<path fill="none" stroke="black" d="M1632.82,-118.87C1626.23,-109.85 1619.34,-100.43 1612.74,-91.39"/>
<polygon fill="black" stroke="black" points="1615.5,-89.24 1606.77,-83.23 1609.85,-93.37 1615.5,-89.24"/>
</g>
<!-- 11 -->
<g id="node12" class="node">
<title>11</title>
<path fill="#f6e4b8" stroke="black" d="M2100,-83C2100,-83 1782,-83 1782,-83 1776,-83 1770,-77 1770,-71 1770,-71 1770,-12 1770,-12 1770,-6 1776,0 1782,0 1782,0 2100,0 2100,0 2106,0 2112,-6 2112,-12 2112,-12 2112,-71 2112,-71 2112,-77 2106,-83 2100,-83"/>
<text text-anchor="start" x="1930.5" y="-67.8" font-family="Helvetica,sans-Serif" font-size="14.00">0.6</text>
<text text-anchor="start" x="1924" y="-52.8" font-family="Helvetica,sans-Serif" font-size="14.00">1.4%</text>
<text text-anchor="start" x="1778" y="-37.8" font-family="Helvetica,sans-Serif" font-size="14.00">[0.076, 0.549, 0.298, 0.06, 0.007, 0.0, 0.002, 0.005</text>
<text text-anchor="start" x="1797.5" y="-22.8" font-family="Helvetica,sans-Serif" font-size="14.00">0.0, 0.002, 0.0, 0.0, 0.0, 0.0, 0.0, 0.0, 0.0, 0.0</text>
<text text-anchor="start" x="1915" y="-7.8" font-family="Helvetica,sans-Serif" font-size="14.00">0.0, 0.0]</text>
</g>
<!-- 9&#45;&gt;11 -->
<g id="edge11" class="edge">
<title>9&#45;&gt;11</title>
<path fill="none" stroke="black" d="M1773.55,-118.87C1796.36,-108.46 1820.39,-97.5 1842.91,-87.23"/>
<polygon fill="black" stroke="black" points="1844.48,-90.37 1852.12,-83.03 1841.57,-84 1844.48,-90.37"/>
</g>
<!-- 13 -->
<g id="node14" class="node">
<title>13</title>
<path fill="#fffefc" stroke="black" d="M2485.5,-83C2485.5,-83 2142.5,-83 2142.5,-83 2136.5,-83 2130.5,-77 2130.5,-71 2130.5,-71 2130.5,-12 2130.5,-12 2130.5,-6 2136.5,0 2142.5,0 2142.5,0 2485.5,0 2485.5,0 2491.5,0 2497.5,-6 2497.5,-12 2497.5,-12 2497.5,-71 2497.5,-71 2497.5,-77 2491.5,-83 2485.5,-83"/>
<text text-anchor="start" x="2295.5" y="-67.8" font-family="Helvetica,sans-Serif" font-size="14.00">0.724</text>
<text text-anchor="start" x="2293" y="-52.8" font-family="Helvetica,sans-Serif" font-size="14.00">23.6%</text>
<text text-anchor="start" x="2138.5" y="-37.8" font-family="Helvetica,sans-Serif" font-size="14.00">[0.029, 0.352, 0.342, 0.167, 0.069, 0.029, 0.008, 0.003</text>
<text text-anchor="start" x="2170.5" y="-22.8" font-family="Helvetica,sans-Serif" font-size="14.00">0.0, 0.0, 0.001, 0.0, 0.0, 0.0, 0.0, 0.0, 0.0, 0.0</text>
<text text-anchor="start" x="2288" y="-7.8" font-family="Helvetica,sans-Serif" font-size="14.00">0.0, 0.0]</text>
</g>
<!-- 12&#45;&gt;13 -->
<g id="edge13" class="edge">
<title>12&#45;&gt;13</title>
<path fill="none" stroke="black" d="M2314,-118.87C2314,-110.5 2314,-101.77 2314,-93.33"/>
<polygon fill="black" stroke="black" points="2317.5,-93.23 2314,-83.23 2310.5,-93.23 2317.5,-93.23"/>
</g>
<!-- 14 -->
<g id="node15" class="node">
<title>14</title>
<path fill="#fafdf2" stroke="black" d="M2870.5,-83C2870.5,-83 2527.5,-83 2527.5,-83 2521.5,-83 2515.5,-77 2515.5,-71 2515.5,-71 2515.5,-12 2515.5,-12 2515.5,-6 2521.5,0 2527.5,0 2527.5,0 2870.5,0 2870.5,0 2876.5,0 2882.5,-6 2882.5,-12 2882.5,-12 2882.5,-71 2882.5,-71 2882.5,-77 2876.5,-83 2870.5,-83"/>
<text text-anchor="start" x="2680.5" y="-67.8" font-family="Helvetica,sans-Serif" font-size="14.00">0.862</text>
<text text-anchor="start" x="2678" y="-52.8" font-family="Helvetica,sans-Serif" font-size="14.00">32.7%</text>
<text text-anchor="start" x="2523.5" y="-37.8" font-family="Helvetica,sans-Serif" font-size="14.00">[0.002, 0.046, 0.173, 0.227, 0.161, 0.127, 0.079, 0.059</text>
<text text-anchor="start" x="2525.5" y="-22.8" font-family="Helvetica,sans-Serif" font-size="14.00">0.031, 0.026, 0.018, 0.012, 0.006, 0.007, 0.008, 0.007</text>
<text text-anchor="start" x="2612" y="-7.8" font-family="Helvetica,sans-Serif" font-size="14.00">0.003, 0.003, 0.002, 0.002]</text>
</g>
<!-- 12&#45;&gt;14 -->
<g id="edge14" class="edge">
<title>12&#45;&gt;14</title>
<path fill="none" stroke="black" d="M2462.58,-118.95C2495.91,-108.17 2531.1,-96.79 2563.86,-86.2"/>
<polygon fill="black" stroke="black" points="2565.04,-89.5 2573.48,-83.09 2562.89,-82.84 2565.04,-89.5"/>
</g>
</g>
</svg>
