<?xml version="1.0" encoding="UTF-8" standalone="no"?>
<!DOCTYPE svg PUBLIC "-//W3C//DTD SVG 1.1//EN"
 "http://www.w3.org/Graphics/SVG/1.1/DTD/svg11.dtd">
<!-- Generated by graphviz version 2.47.1 (20210417.1919)
 -->
<!-- Title: Tree Pages: 1 -->
<svg width="1502pt" height="359pt"
 viewBox="0.00 0.00 1502.00 359.00" xmlns="http://www.w3.org/2000/svg" xmlns:xlink="http://www.w3.org/1999/xlink">
<g id="graph0" class="graph" transform="scale(1 1) rotate(0) translate(4 355)">
<title>Tree</title>
<polygon fill="white" stroke="transparent" points="-4,4 -4,-355 1498,-355 1498,4 -4,4"/>
<!-- 0 -->
<g id="node1" class="node">
<title>0</title>
<path fill="#fdf7f3" stroke="black" d="M902,-351C902,-351 571,-351 571,-351 565,-351 559,-345 559,-339 559,-339 559,-265 559,-265 559,-259 565,-253 571,-253 571,-253 902,-253 902,-253 908,-253 914,-259 914,-265 914,-265 914,-339 914,-339 914,-345 908,-351 902,-351"/>
<text text-anchor="start" x="684.5" y="-335.8" font-family="Helvetica,sans-Serif" font-size="14.00">year ≤ 2000.767</text>
<text text-anchor="start" x="718" y="-320.8" font-family="Helvetica,sans-Serif" font-size="14.00">0.819</text>
<text text-anchor="start" x="711.5" y="-305.8" font-family="Helvetica,sans-Serif" font-size="14.00">100.0%</text>
<text text-anchor="start" x="569.5" y="-290.8" font-family="Helvetica,sans-Serif" font-size="14.00">[0.279, 0.232, 0.163, 0.118, 0.07, 0.049, 0.028, 0.02</text>
<text text-anchor="start" x="567" y="-275.8" font-family="Helvetica,sans-Serif" font-size="14.00">0.01, 0.009, 0.006, 0.004, 0.002, 0.002, 0.002, 0.002</text>
<text text-anchor="start" x="649.5" y="-260.8" font-family="Helvetica,sans-Serif" font-size="14.00">0.001, 0.001, 0.001, 0.001]</text>
</g>
<!-- 1 -->
<g id="node2" class="node">
<title>1</title>
<path fill="#f0b890" stroke="black" d="M712,-217C712,-217 383,-217 383,-217 377,-217 371,-211 371,-205 371,-205 371,-131 371,-131 371,-125 377,-119 383,-119 383,-119 712,-119 712,-119 718,-119 724,-125 724,-131 724,-131 724,-205 724,-205 724,-211 718,-217 712,-217"/>
<text text-anchor="start" x="495.5" y="-201.8" font-family="Helvetica,sans-Serif" font-size="14.00">year ≤ 1993.364</text>
<text text-anchor="start" x="529" y="-186.8" font-family="Helvetica,sans-Serif" font-size="14.00">0.464</text>
<text text-anchor="start" x="526.5" y="-171.8" font-family="Helvetica,sans-Serif" font-size="14.00">38.9%</text>
<text text-anchor="start" x="379" y="-156.8" font-family="Helvetica,sans-Serif" font-size="14.00">[0.68, 0.268, 0.041, 0.007, 0.002, 0.001, 0.0, 0.0, 0.0</text>
<text text-anchor="start" x="412" y="-141.8" font-family="Helvetica,sans-Serif" font-size="14.00">0.0, 0.0, 0.0, 0.0, 0.0, 0.0, 0.0, 0.0, 0.0, 0.0</text>
<text text-anchor="start" x="535" y="-126.8" font-family="Helvetica,sans-Serif" font-size="14.00">0.0]</text>
</g>
<!-- 0&#45;&gt;1 -->
<g id="edge1" class="edge">
<title>0&#45;&gt;1</title>
<path fill="none" stroke="black" d="M667.73,-252.97C653.79,-243.24 639.04,-232.93 624.83,-223.01"/>
<polygon fill="black" stroke="black" points="626.74,-220.07 616.53,-217.21 622.73,-225.81 626.74,-220.07"/>
<text text-anchor="middle" x="620.9" y="-238.13" font-family="Helvetica,sans-Serif" font-size="14.00">True</text>
</g>
<!-- 4 -->
<g id="node5" class="node">
<title>4</title>
<path fill="#fefef7" stroke="black" d="M1097,-217C1097,-217 754,-217 754,-217 748,-217 742,-211 742,-205 742,-205 742,-131 742,-131 742,-125 748,-119 754,-119 754,-119 1097,-119 1097,-119 1103,-119 1109,-125 1109,-131 1109,-131 1109,-205 1109,-205 1109,-211 1103,-217 1097,-217"/>
<text text-anchor="start" x="873.5" y="-201.8" font-family="Helvetica,sans-Serif" font-size="14.00">year ≤ 2002.023</text>
<text text-anchor="start" x="911" y="-186.8" font-family="Helvetica,sans-Serif" font-size="14.00">0.84</text>
<text text-anchor="start" x="904.5" y="-171.8" font-family="Helvetica,sans-Serif" font-size="14.00">61.1%</text>
<text text-anchor="start" x="750" y="-156.8" font-family="Helvetica,sans-Serif" font-size="14.00">[0.024, 0.208, 0.241, 0.189, 0.113, 0.079, 0.045, 0.033</text>
<text text-anchor="start" x="756" y="-141.8" font-family="Helvetica,sans-Serif" font-size="14.00">0.017, 0.014, 0.01, 0.007, 0.003, 0.004, 0.004, 0.004</text>
<text text-anchor="start" x="838.5" y="-126.8" font-family="Helvetica,sans-Serif" font-size="14.00">0.002, 0.002, 0.001, 0.001]</text>
</g>
<!-- 0&#45;&gt;4 -->
<g id="edge4" class="edge">
<title>0&#45;&gt;4</title>
<path fill="none" stroke="black" d="M805.27,-252.97C819.21,-243.24 833.96,-232.93 848.17,-223.01"/>
<polygon fill="black" stroke="black" points="850.27,-225.81 856.47,-217.21 846.26,-220.07 850.27,-225.81"/>
<text text-anchor="middle" x="852.1" y="-238.13" font-family="Helvetica,sans-Serif" font-size="14.00">False</text>
</g>
<!-- 2 -->
<g id="node3" class="node">
<title>2</title>
<path fill="#e89253" stroke="black" d="M341,-83C341,-83 12,-83 12,-83 6,-83 0,-77 0,-71 0,-71 0,-12 0,-12 0,-6 6,0 12,0 12,0 341,0 341,0 347,0 353,-6 353,-12 353,-12 353,-71 353,-71 353,-77 347,-83 341,-83"/>
<text text-anchor="start" x="158" y="-67.8" font-family="Helvetica,sans-Serif" font-size="14.00">0.216</text>
<text text-anchor="start" x="159.5" y="-52.8" font-family="Helvetica,sans-Serif" font-size="14.00">9.9%</text>
<text text-anchor="start" x="8" y="-37.8" font-family="Helvetica,sans-Serif" font-size="14.00">[0.88, 0.1, 0.013, 0.003, 0.001, 0.002, 0.0, 0.001, 0.0</text>
<text text-anchor="start" x="41" y="-22.8" font-family="Helvetica,sans-Serif" font-size="14.00">0.0, 0.0, 0.0, 0.0, 0.0, 0.0, 0.0, 0.0, 0.0, 0.0</text>
<text text-anchor="start" x="164" y="-7.8" font-family="Helvetica,sans-Serif" font-size="14.00">0.0]</text>
</g>
<!-- 1&#45;&gt;2 -->
<g id="edge2" class="edge">
<title>1&#45;&gt;2</title>
<path fill="none" stroke="black" d="M404.33,-118.95C372.34,-108.22 338.58,-96.89 307.13,-86.34"/>
<polygon fill="black" stroke="black" points="308.05,-82.95 297.45,-83.09 305.82,-89.59 308.05,-82.95"/>
</g>
<!-- 3 -->
<g id="node4" class="node">
<title>3</title>
<path fill="#f4c9ab" stroke="black" d="M712,-83C712,-83 383,-83 383,-83 377,-83 371,-77 371,-71 371,-71 371,-12 371,-12 371,-6 377,0 383,0 383,0 712,0 712,0 718,0 724,-6 724,-12 724,-12 724,-71 724,-71 724,-77 718,-83 712,-83"/>
<text text-anchor="start" x="529" y="-67.8" font-family="Helvetica,sans-Serif" font-size="14.00">0.517</text>
<text text-anchor="start" x="526.5" y="-52.8" font-family="Helvetica,sans-Serif" font-size="14.00">29.0%</text>
<text text-anchor="start" x="379" y="-37.8" font-family="Helvetica,sans-Serif" font-size="14.00">[0.612, 0.325, 0.05, 0.008, 0.003, 0.001, 0.0, 0.0, 0.0</text>
<text text-anchor="start" x="412" y="-22.8" font-family="Helvetica,sans-Serif" font-size="14.00">0.0, 0.0, 0.0, 0.0, 0.0, 0.0, 0.0, 0.0, 0.0, 0.0</text>
<text text-anchor="start" x="535" y="-7.8" font-family="Helvetica,sans-Serif" font-size="14.00">0.0]</text>
</g>
<!-- 1&#45;&gt;3 -->
<g id="edge3" class="edge">
<title>1&#45;&gt;3</title>
<path fill="none" stroke="black" d="M547.5,-118.87C547.5,-110.5 547.5,-101.77 547.5,-93.33"/>
<polygon fill="black" stroke="black" points="551,-93.23 547.5,-83.23 544,-93.23 551,-93.23"/>
</g>
<!-- 5 -->
<g id="node6" class="node">
<title>5</title>
<path fill="#f3dba1" stroke="black" d="M1097,-83C1097,-83 754,-83 754,-83 748,-83 742,-77 742,-71 742,-71 742,-12 742,-12 742,-6 748,0 754,0 754,0 1097,0 1097,0 1103,0 1109,-6 1109,-12 1109,-12 1109,-71 1109,-71 1109,-77 1103,-83 1097,-83"/>
<text text-anchor="start" x="907" y="-67.8" font-family="Helvetica,sans-Serif" font-size="14.00">0.575</text>
<text text-anchor="start" x="908.5" y="-52.8" font-family="Helvetica,sans-Serif" font-size="14.00">9.3%</text>
<text text-anchor="start" x="750" y="-37.8" font-family="Helvetica,sans-Serif" font-size="14.00">[0.113, 0.596, 0.233, 0.044, 0.008, 0.003, 0.001, 0.001</text>
<text text-anchor="start" x="790" y="-22.8" font-family="Helvetica,sans-Serif" font-size="14.00">0.0, 0.0, 0.0, 0.0, 0.0, 0.0, 0.0, 0.0, 0.0, 0.0</text>
<text text-anchor="start" x="899.5" y="-7.8" font-family="Helvetica,sans-Serif" font-size="14.00">0.0, 0.0]</text>
</g>
<!-- 4&#45;&gt;5 -->
<g id="edge5" class="edge">
<title>4&#45;&gt;5</title>
<path fill="none" stroke="black" d="M925.5,-118.87C925.5,-110.5 925.5,-101.77 925.5,-93.33"/>
<polygon fill="black" stroke="black" points="929,-93.23 925.5,-83.23 922,-93.23 929,-93.23"/>
</g>
<!-- 6 -->
<g id="node7" class="node">
<title>6</title>
<path fill="#fefef8" stroke="black" d="M1482,-83C1482,-83 1139,-83 1139,-83 1133,-83 1127,-77 1127,-71 1127,-71 1127,-12 1127,-12 1127,-6 1133,0 1139,0 1139,0 1482,0 1482,0 1488,0 1494,-6 1494,-12 1494,-12 1494,-71 1494,-71 1494,-77 1488,-83 1482,-83"/>
<text text-anchor="start" x="1292" y="-67.8" font-family="Helvetica,sans-Serif" font-size="14.00">0.845</text>
<text text-anchor="start" x="1289.5" y="-52.8" font-family="Helvetica,sans-Serif" font-size="14.00">51.8%</text>
<text text-anchor="start" x="1135" y="-37.8" font-family="Helvetica,sans-Serif" font-size="14.00">[0.008, 0.139, 0.242, 0.215, 0.132, 0.093, 0.053, 0.039</text>
<text text-anchor="start" x="1141" y="-22.8" font-family="Helvetica,sans-Serif" font-size="14.00">0.02, 0.017, 0.012, 0.008, 0.004, 0.005, 0.005, 0.004</text>
<text text-anchor="start" x="1223.5" y="-7.8" font-family="Helvetica,sans-Serif" font-size="14.00">0.002, 0.002, 0.001, 0.001]</text>
</g>
<!-- 4&#45;&gt;6 -->
<g id="edge6" class="edge">
<title>4&#45;&gt;6</title>
<path fill="none" stroke="black" d="M1074.08,-118.95C1107.41,-108.17 1142.6,-96.79 1175.36,-86.2"/>
<polygon fill="black" stroke="black" points="1176.54,-89.5 1184.98,-83.09 1174.39,-82.84 1176.54,-89.5"/>
</g>
</g>
</svg>
