<?xml version="1.0" encoding="UTF-8" standalone="no"?>
<!DOCTYPE svg PUBLIC "-//W3C//DTD SVG 1.1//EN"
 "http://www.w3.org/Graphics/SVG/1.1/DTD/svg11.dtd">
<!-- Generated by graphviz version 2.47.1 (20210417.1919)
 -->
<!-- Title: Tree Pages: 1 -->
<svg width="3275pt" height="685pt"
 viewBox="0.00 0.00 3275.00 685.00" xmlns="http://www.w3.org/2000/svg" xmlns:xlink="http://www.w3.org/1999/xlink">
<g id="graph0" class="graph" transform="scale(1 1) rotate(0) translate(4 681)">
<title>Tree</title>
<polygon fill="white" stroke="transparent" points="-4,4 -4,-681 3271,-681 3271,4 -4,4"/>
<!-- 0 -->
<g id="node1" class="node">
<title>0</title>
<path fill="#f6d5be" stroke="black" d="M1818.5,-677C1818.5,-677 1657.5,-677 1657.5,-677 1651.5,-677 1645.5,-671 1645.5,-665 1645.5,-665 1645.5,-621 1645.5,-621 1645.5,-615 1651.5,-609 1657.5,-609 1657.5,-609 1818.5,-609 1818.5,-609 1824.5,-609 1830.5,-615 1830.5,-621 1830.5,-621 1830.5,-665 1830.5,-665 1830.5,-671 1824.5,-677 1818.5,-677"/>
<text text-anchor="start" x="1686" y="-661.8" font-family="Helvetica,sans-Serif" font-size="14.00">year ≤ 1991.142</text>
<text text-anchor="start" x="1719.5" y="-646.8" font-family="Helvetica,sans-Serif" font-size="14.00">1.464</text>
<text text-anchor="start" x="1713" y="-631.8" font-family="Helvetica,sans-Serif" font-size="14.00">100.0%</text>
<text text-anchor="start" x="1653.5" y="-616.8" font-family="Helvetica,sans-Serif" font-size="14.00">[0.55, 0.329, 0.094, 0.027]</text>
</g>
<!-- 1 -->
<g id="node2" class="node">
<title>1</title>
<path fill="#e58139" stroke="black" d="M1701,-565.5C1701,-565.5 1597,-565.5 1597,-565.5 1591,-565.5 1585,-559.5 1585,-553.5 1585,-553.5 1585,-524.5 1585,-524.5 1585,-518.5 1591,-512.5 1597,-512.5 1597,-512.5 1701,-512.5 1701,-512.5 1707,-512.5 1713,-518.5 1713,-524.5 1713,-524.5 1713,-553.5 1713,-553.5 1713,-559.5 1707,-565.5 1701,-565.5"/>
<text text-anchor="start" x="1638.5" y="-550.3" font-family="Helvetica,sans-Serif" font-size="14.00">0.0</text>
<text text-anchor="start" x="1628" y="-535.3" font-family="Helvetica,sans-Serif" font-size="14.00">18.0%</text>
<text text-anchor="start" x="1593" y="-520.3" font-family="Helvetica,sans-Serif" font-size="14.00">[1.0, 0.0, 0.0, 0.0]</text>
</g>
<!-- 0&#45;&gt;1 -->
<g id="edge1" class="edge">
<title>0&#45;&gt;1</title>
<path fill="none" stroke="black" d="M1709.1,-608.88C1699.12,-597.45 1687.95,-584.63 1677.96,-573.19"/>
<polygon fill="black" stroke="black" points="1680.48,-570.75 1671.27,-565.52 1675.2,-575.36 1680.48,-570.75"/>
<text text-anchor="middle" x="1669.57" y="-586.76" font-family="Helvetica,sans-Serif" font-size="14.00">True</text>
</g>
<!-- 2 -->
<g id="node3" class="node">
<title>2</title>
<path fill="#fdf4ee" stroke="black" d="M1913,-573C1913,-573 1743,-573 1743,-573 1737,-573 1731,-567 1731,-561 1731,-561 1731,-517 1731,-517 1731,-511 1737,-505 1743,-505 1743,-505 1913,-505 1913,-505 1919,-505 1925,-511 1925,-517 1925,-517 1925,-561 1925,-561 1925,-567 1919,-573 1913,-573"/>
<text text-anchor="start" x="1776" y="-557.8" font-family="Helvetica,sans-Serif" font-size="14.00">year ≤ 2014.737</text>
<text text-anchor="start" x="1809.5" y="-542.8" font-family="Helvetica,sans-Serif" font-size="14.00">1.568</text>
<text text-anchor="start" x="1807" y="-527.8" font-family="Helvetica,sans-Serif" font-size="14.00">82.0%</text>
<text text-anchor="start" x="1739" y="-512.8" font-family="Helvetica,sans-Serif" font-size="14.00">[0.451, 0.401, 0.115, 0.033]</text>
</g>
<!-- 0&#45;&gt;2 -->
<g id="edge2" class="edge">
<title>0&#45;&gt;2</title>
<path fill="none" stroke="black" d="M1767.22,-608.88C1775.08,-599.98 1783.67,-590.24 1791.86,-580.96"/>
<polygon fill="black" stroke="black" points="1794.63,-583.11 1798.62,-573.3 1789.38,-578.48 1794.63,-583.11"/>
<text text-anchor="middle" x="1800.18" y="-594.55" font-family="Helvetica,sans-Serif" font-size="14.00">False</text>
</g>
<!-- 3 -->
<g id="node4" class="node">
<title>3</title>
<path fill="#fdf3ec" stroke="black" d="M1353,-469C1353,-469 1183,-469 1183,-469 1177,-469 1171,-463 1171,-457 1171,-457 1171,-413 1171,-413 1171,-407 1177,-401 1183,-401 1183,-401 1353,-401 1353,-401 1359,-401 1365,-407 1365,-413 1365,-413 1365,-457 1365,-457 1365,-463 1359,-469 1353,-469"/>
<text text-anchor="start" x="1211" y="-453.8" font-family="Helvetica,sans-Serif" font-size="14.00">odometer ≤ 5.048</text>
<text text-anchor="start" x="1253.5" y="-438.8" font-family="Helvetica,sans-Serif" font-size="14.00">1.39</text>
<text text-anchor="start" x="1247" y="-423.8" font-family="Helvetica,sans-Serif" font-size="14.00">77.3%</text>
<text text-anchor="start" x="1179" y="-408.8" font-family="Helvetica,sans-Serif" font-size="14.00">[0.479, 0.425, 0.091, 0.005]</text>
</g>
<!-- 2&#45;&gt;3 -->
<g id="edge3" class="edge">
<title>2&#45;&gt;3</title>
<path fill="none" stroke="black" d="M1730.83,-507.12C1727.86,-506.38 1724.91,-505.67 1722,-505 1604.69,-477.99 1467.82,-458.84 1375.27,-447.67"/>
<polygon fill="black" stroke="black" points="1375.68,-444.19 1365.34,-446.48 1374.85,-451.14 1375.68,-444.19"/>
</g>
<!-- 28 -->
<g id="node29" class="node">
<title>28</title>
<path fill="#f8fcfe" stroke="black" d="M2433.5,-469C2433.5,-469 2296.5,-469 2296.5,-469 2290.5,-469 2284.5,-463 2284.5,-457 2284.5,-457 2284.5,-413 2284.5,-413 2284.5,-407 2290.5,-401 2296.5,-401 2296.5,-401 2433.5,-401 2433.5,-401 2439.5,-401 2445.5,-407 2445.5,-413 2445.5,-413 2445.5,-457 2445.5,-457 2445.5,-463 2439.5,-469 2433.5,-469"/>
<text text-anchor="start" x="2308" y="-453.8" font-family="Helvetica,sans-Serif" font-size="14.00">odometer ≤ 7.739</text>
<text text-anchor="start" x="2354.5" y="-438.8" font-family="Helvetica,sans-Serif" font-size="14.00">1.0</text>
<text text-anchor="start" x="2348" y="-423.8" font-family="Helvetica,sans-Serif" font-size="14.00">4.7%</text>
<text text-anchor="start" x="2292.5" y="-408.8" font-family="Helvetica,sans-Serif" font-size="14.00">[0.0, 0.0, 0.509, 0.491]</text>
</g>
<!-- 2&#45;&gt;28 -->
<g id="edge28" class="edge">
<title>2&#45;&gt;28</title>
<path fill="none" stroke="black" d="M1925.25,-519.53C2024.5,-500.68 2177.33,-471.65 2274.18,-453.25"/>
<polygon fill="black" stroke="black" points="2275.08,-456.64 2284.25,-451.34 2273.77,-449.77 2275.08,-456.64"/>
</g>
<!-- 4 -->
<g id="node5" class="node">
<title>4</title>
<path fill="#ebf5fc" stroke="black" d="M568,-365C568,-365 398,-365 398,-365 392,-365 386,-359 386,-353 386,-353 386,-309 386,-309 386,-303 392,-297 398,-297 398,-297 568,-297 568,-297 574,-297 580,-303 580,-309 580,-309 580,-353 580,-353 580,-359 574,-365 568,-365"/>
<text text-anchor="start" x="431" y="-349.8" font-family="Helvetica,sans-Serif" font-size="14.00">year ≤ 2000.474</text>
<text text-anchor="start" x="464.5" y="-334.8" font-family="Helvetica,sans-Serif" font-size="14.00">1.774</text>
<text text-anchor="start" x="466" y="-319.8" font-family="Helvetica,sans-Serif" font-size="14.00">7.6%</text>
<text text-anchor="start" x="394" y="-304.8" font-family="Helvetica,sans-Serif" font-size="14.00">[0.326, 0.225, 0.393, 0.056]</text>
</g>
<!-- 3&#45;&gt;4 -->
<g id="edge4" class="edge">
<title>3&#45;&gt;4</title>
<path fill="none" stroke="black" d="M1170.96,-421.39C1023.49,-402.23 743.95,-365.91 590.5,-345.97"/>
<polygon fill="black" stroke="black" points="590.5,-342.44 580.13,-344.62 589.6,-349.38 590.5,-342.44"/>
</g>
<!-- 13 -->
<g id="node14" class="node">
<title>13</title>
<path fill="#fdf4ee" stroke="black" d="M1344.5,-365C1344.5,-365 1191.5,-365 1191.5,-365 1185.5,-365 1179.5,-359 1179.5,-353 1179.5,-353 1179.5,-309 1179.5,-309 1179.5,-303 1185.5,-297 1191.5,-297 1191.5,-297 1344.5,-297 1344.5,-297 1350.5,-297 1356.5,-303 1356.5,-309 1356.5,-309 1356.5,-353 1356.5,-353 1356.5,-359 1350.5,-365 1344.5,-365"/>
<text text-anchor="start" x="1211" y="-349.8" font-family="Helvetica,sans-Serif" font-size="14.00">odometer ≤ 7.846</text>
<text text-anchor="start" x="1249.5" y="-334.8" font-family="Helvetica,sans-Serif" font-size="14.00">1.261</text>
<text text-anchor="start" x="1247" y="-319.8" font-family="Helvetica,sans-Serif" font-size="14.00">69.8%</text>
<text text-anchor="start" x="1187.5" y="-304.8" font-family="Helvetica,sans-Serif" font-size="14.00">[0.495, 0.446, 0.058, 0.0]</text>
</g>
<!-- 3&#45;&gt;13 -->
<g id="edge13" class="edge">
<title>3&#45;&gt;13</title>
<path fill="none" stroke="black" d="M1268,-400.88C1268,-392.78 1268,-383.98 1268,-375.47"/>
<polygon fill="black" stroke="black" points="1271.5,-375.3 1268,-365.3 1264.5,-375.3 1271.5,-375.3"/>
</g>
<!-- 5 -->
<g id="node6" class="node">
<title>5</title>
<path fill="#e58139" stroke="black" d="M356,-253.5C356,-253.5 252,-253.5 252,-253.5 246,-253.5 240,-247.5 240,-241.5 240,-241.5 240,-212.5 240,-212.5 240,-206.5 246,-200.5 252,-200.5 252,-200.5 356,-200.5 356,-200.5 362,-200.5 368,-206.5 368,-212.5 368,-212.5 368,-241.5 368,-241.5 368,-247.5 362,-253.5 356,-253.5"/>
<text text-anchor="start" x="293.5" y="-238.3" font-family="Helvetica,sans-Serif" font-size="14.00">0.0</text>
<text text-anchor="start" x="287" y="-223.3" font-family="Helvetica,sans-Serif" font-size="14.00">2.0%</text>
<text text-anchor="start" x="248" y="-208.3" font-family="Helvetica,sans-Serif" font-size="14.00">[1.0, 0.0, 0.0, 0.0]</text>
</g>
<!-- 4&#45;&gt;5 -->
<g id="edge5" class="edge">
<title>4&#45;&gt;5</title>
<path fill="none" stroke="black" d="M424.88,-296.88C403.27,-284.57 378.85,-270.65 357.66,-258.57"/>
<polygon fill="black" stroke="black" points="359.21,-255.43 348.78,-253.52 355.74,-261.51 359.21,-255.43"/>
</g>
<!-- 6 -->
<g id="node7" class="node">
<title>6</title>
<path fill="#bddef6" stroke="black" d="M568,-261C568,-261 398,-261 398,-261 392,-261 386,-255 386,-249 386,-249 386,-205 386,-205 386,-199 392,-193 398,-193 398,-193 568,-193 568,-193 574,-193 580,-199 580,-205 580,-205 580,-249 580,-249 580,-255 574,-261 568,-261"/>
<text text-anchor="start" x="426" y="-245.8" font-family="Helvetica,sans-Serif" font-size="14.00">odometer ≤ 0.064</text>
<text text-anchor="start" x="464.5" y="-230.8" font-family="Helvetica,sans-Serif" font-size="14.00">1.573</text>
<text text-anchor="start" x="466" y="-215.8" font-family="Helvetica,sans-Serif" font-size="14.00">5.5%</text>
<text text-anchor="start" x="394" y="-200.8" font-family="Helvetica,sans-Serif" font-size="14.00">[0.077, 0.308, 0.538, 0.077]</text>
</g>
<!-- 4&#45;&gt;6 -->
<g id="edge6" class="edge">
<title>4&#45;&gt;6</title>
<path fill="none" stroke="black" d="M483,-296.88C483,-288.78 483,-279.98 483,-271.47"/>
<polygon fill="black" stroke="black" points="486.5,-271.3 483,-261.3 479.5,-271.3 486.5,-271.3"/>
</g>
<!-- 7 -->
<g id="node8" class="node">
<title>7</title>
<path fill="#eca06a" stroke="black" d="M262,-157C262,-157 158,-157 158,-157 152,-157 146,-151 146,-145 146,-145 146,-101 146,-101 146,-95 152,-89 158,-89 158,-89 262,-89 262,-89 268,-89 274,-95 274,-101 274,-101 274,-145 274,-145 274,-151 268,-157 262,-157"/>
<text text-anchor="start" x="158" y="-141.8" font-family="Helvetica,sans-Serif" font-size="14.00">year ≤ 2005.706</text>
<text text-anchor="start" x="191.5" y="-126.8" font-family="Helvetica,sans-Serif" font-size="14.00">0.722</text>
<text text-anchor="start" x="193" y="-111.8" font-family="Helvetica,sans-Serif" font-size="14.00">0.4%</text>
<text text-anchor="start" x="154" y="-96.8" font-family="Helvetica,sans-Serif" font-size="14.00">[0.8, 0.0, 0.2, 0.0]</text>
</g>
<!-- 6&#45;&gt;7 -->
<g id="edge7" class="edge">
<title>6&#45;&gt;7</title>
<path fill="none" stroke="black" d="M394.36,-192.88C358.64,-179.54 317.92,-164.32 283.84,-151.59"/>
<polygon fill="black" stroke="black" points="285.01,-148.29 274.42,-148.07 282.56,-154.85 285.01,-148.29"/>
</g>
<!-- 10 -->
<g id="node11" class="node">
<title>10</title>
<path fill="#baddf6" stroke="black" d="M568,-157C568,-157 398,-157 398,-157 392,-157 386,-151 386,-145 386,-145 386,-101 386,-101 386,-95 392,-89 398,-89 398,-89 568,-89 568,-89 574,-89 580,-95 580,-101 580,-101 580,-145 580,-145 580,-151 574,-157 568,-157"/>
<text text-anchor="start" x="426" y="-141.8" font-family="Helvetica,sans-Serif" font-size="14.00">odometer ≤ 2.067</text>
<text text-anchor="start" x="468.5" y="-126.8" font-family="Helvetica,sans-Serif" font-size="14.00">1.39</text>
<text text-anchor="start" x="466" y="-111.8" font-family="Helvetica,sans-Serif" font-size="14.00">5.1%</text>
<text text-anchor="start" x="394" y="-96.8" font-family="Helvetica,sans-Serif" font-size="14.00">[0.017, 0.333, 0.567, 0.083]</text>
</g>
<!-- 6&#45;&gt;10 -->
<g id="edge10" class="edge">
<title>6&#45;&gt;10</title>
<path fill="none" stroke="black" d="M483,-192.88C483,-184.78 483,-175.98 483,-167.47"/>
<polygon fill="black" stroke="black" points="486.5,-167.3 483,-157.3 479.5,-167.3 486.5,-167.3"/>
</g>
<!-- 8 -->
<g id="node9" class="node">
<title>8</title>
<path fill="#e58139" stroke="black" d="M116,-53C116,-53 12,-53 12,-53 6,-53 0,-47 0,-41 0,-41 0,-12 0,-12 0,-6 6,0 12,0 12,0 116,0 116,0 122,0 128,-6 128,-12 128,-12 128,-41 128,-41 128,-47 122,-53 116,-53"/>
<text text-anchor="start" x="53.5" y="-37.8" font-family="Helvetica,sans-Serif" font-size="14.00">0.0</text>
<text text-anchor="start" x="47" y="-22.8" font-family="Helvetica,sans-Serif" font-size="14.00">0.3%</text>
<text text-anchor="start" x="8" y="-7.8" font-family="Helvetica,sans-Serif" font-size="14.00">[1.0, 0.0, 0.0, 0.0]</text>
</g>
<!-- 7&#45;&gt;8 -->
<g id="edge8" class="edge">
<title>7&#45;&gt;8</title>
<path fill="none" stroke="black" d="M158.94,-88.95C143.81,-79.16 127.31,-68.48 112.36,-58.8"/>
<polygon fill="black" stroke="black" points="114.06,-55.73 103.76,-53.24 110.26,-61.61 114.06,-55.73"/>
</g>
<!-- 9 -->
<g id="node10" class="node">
<title>9</title>
<path fill="#399de5" stroke="black" d="M262,-53C262,-53 158,-53 158,-53 152,-53 146,-47 146,-41 146,-41 146,-12 146,-12 146,-6 152,0 158,0 158,0 262,0 262,0 268,0 274,-6 274,-12 274,-12 274,-41 274,-41 274,-47 268,-53 262,-53"/>
<text text-anchor="start" x="199.5" y="-37.8" font-family="Helvetica,sans-Serif" font-size="14.00">0.0</text>
<text text-anchor="start" x="193" y="-22.8" font-family="Helvetica,sans-Serif" font-size="14.00">0.1%</text>
<text text-anchor="start" x="154" y="-7.8" font-family="Helvetica,sans-Serif" font-size="14.00">[0.0, 0.0, 1.0, 0.0]</text>
</g>
<!-- 7&#45;&gt;9 -->
<g id="edge9" class="edge">
<title>7&#45;&gt;9</title>
<path fill="none" stroke="black" d="M210,-88.95C210,-80.72 210,-71.85 210,-63.48"/>
<polygon fill="black" stroke="black" points="213.5,-63.24 210,-53.24 206.5,-63.24 213.5,-63.24"/>
</g>
<!-- 11 -->
<g id="node12" class="node">
<title>11</title>
<path fill="#f8defb" stroke="black" d="M457.5,-53C457.5,-53 304.5,-53 304.5,-53 298.5,-53 292.5,-47 292.5,-41 292.5,-41 292.5,-12 292.5,-12 292.5,-6 298.5,0 304.5,0 304.5,0 457.5,0 457.5,0 463.5,0 469.5,-6 469.5,-12 469.5,-12 469.5,-41 469.5,-41 469.5,-47 463.5,-53 457.5,-53"/>
<text text-anchor="start" x="366.5" y="-37.8" font-family="Helvetica,sans-Serif" font-size="14.00">1.53</text>
<text text-anchor="start" x="364" y="-22.8" font-family="Helvetica,sans-Serif" font-size="14.00">0.8%</text>
<text text-anchor="start" x="300.5" y="-7.8" font-family="Helvetica,sans-Serif" font-size="14.00">[0.0, 0.222, 0.333, 0.444]</text>
</g>
<!-- 10&#45;&gt;11 -->
<g id="edge11" class="edge">
<title>10&#45;&gt;11</title>
<path fill="none" stroke="black" d="M447.33,-88.95C437.25,-79.62 426.3,-69.47 416.26,-60.16"/>
<polygon fill="black" stroke="black" points="418.49,-57.47 408.78,-53.24 413.74,-62.6 418.49,-57.47"/>
</g>
<!-- 12 -->
<g id="node13" class="node">
<title>12</title>
<path fill="#b1d8f5" stroke="black" d="M652.5,-53C652.5,-53 499.5,-53 499.5,-53 493.5,-53 487.5,-47 487.5,-41 487.5,-41 487.5,-12 487.5,-12 487.5,-6 493.5,0 499.5,0 499.5,0 652.5,0 652.5,0 658.5,0 664.5,-6 664.5,-12 664.5,-12 664.5,-41 664.5,-41 664.5,-47 658.5,-53 652.5,-53"/>
<text text-anchor="start" x="557.5" y="-37.8" font-family="Helvetica,sans-Serif" font-size="14.00">1.189</text>
<text text-anchor="start" x="559" y="-22.8" font-family="Helvetica,sans-Serif" font-size="14.00">4.3%</text>
<text text-anchor="start" x="495.5" y="-7.8" font-family="Helvetica,sans-Serif" font-size="14.00">[0.02, 0.353, 0.608, 0.02]</text>
</g>
<!-- 10&#45;&gt;12 -->
<g id="edge12" class="edge">
<title>10&#45;&gt;12</title>
<path fill="none" stroke="black" d="M515.53,-88.95C524.62,-79.71 534.5,-69.67 543.58,-60.44"/>
<polygon fill="black" stroke="black" points="546.15,-62.82 550.67,-53.24 541.16,-57.91 546.15,-62.82"/>
</g>
<!-- 14 -->
<g id="node15" class="node">
<title>14</title>
<path fill="#a2f29b" stroke="black" d="M1215.5,-261C1215.5,-261 1062.5,-261 1062.5,-261 1056.5,-261 1050.5,-255 1050.5,-249 1050.5,-249 1050.5,-205 1050.5,-205 1050.5,-199 1056.5,-193 1062.5,-193 1062.5,-193 1215.5,-193 1215.5,-193 1221.5,-193 1227.5,-199 1227.5,-205 1227.5,-205 1227.5,-249 1227.5,-249 1227.5,-255 1221.5,-261 1215.5,-261"/>
<text text-anchor="start" x="1087" y="-245.8" font-family="Helvetica,sans-Serif" font-size="14.00">year ≤ 2004.129</text>
<text text-anchor="start" x="1120.5" y="-230.8" font-family="Helvetica,sans-Serif" font-size="14.00">1.283</text>
<text text-anchor="start" x="1122" y="-215.8" font-family="Helvetica,sans-Serif" font-size="14.00">9.4%</text>
<text text-anchor="start" x="1058.5" y="-200.8" font-family="Helvetica,sans-Serif" font-size="14.00">[0.117, 0.631, 0.252, 0.0]</text>
</g>
<!-- 13&#45;&gt;14 -->
<g id="edge14" class="edge">
<title>13&#45;&gt;14</title>
<path fill="none" stroke="black" d="M1226.12,-296.88C1214.29,-287.53 1201.3,-277.26 1189.04,-267.57"/>
<polygon fill="black" stroke="black" points="1191.13,-264.76 1181.11,-261.3 1186.79,-270.25 1191.13,-264.76"/>
</g>
<!-- 21 -->
<g id="node22" class="node">
<title>21</title>
<path fill="#f9e1d1" stroke="black" d="M1559.5,-261C1559.5,-261 1406.5,-261 1406.5,-261 1400.5,-261 1394.5,-255 1394.5,-249 1394.5,-249 1394.5,-205 1394.5,-205 1394.5,-199 1400.5,-193 1406.5,-193 1406.5,-193 1559.5,-193 1559.5,-193 1565.5,-193 1571.5,-199 1571.5,-205 1571.5,-205 1571.5,-249 1571.5,-249 1571.5,-255 1565.5,-261 1559.5,-261"/>
<text text-anchor="start" x="1435" y="-245.8" font-family="Helvetica,sans-Serif" font-size="14.00">year ≤ 2003.39</text>
<text text-anchor="start" x="1464.5" y="-230.8" font-family="Helvetica,sans-Serif" font-size="14.00">1.143</text>
<text text-anchor="start" x="1462" y="-215.8" font-family="Helvetica,sans-Serif" font-size="14.00">60.4%</text>
<text text-anchor="start" x="1402.5" y="-200.8" font-family="Helvetica,sans-Serif" font-size="14.00">[0.554, 0.418, 0.028, 0.0]</text>
</g>
<!-- 13&#45;&gt;21 -->
<g id="edge21" class="edge">
<title>13&#45;&gt;21</title>
<path fill="none" stroke="black" d="M1337.8,-296.88C1358.94,-286.86 1382.3,-275.77 1403.99,-265.48"/>
<polygon fill="black" stroke="black" points="1405.64,-268.57 1413.18,-261.12 1402.64,-262.25 1405.64,-268.57"/>
</g>
<!-- 15 -->
<g id="node16" class="node">
<title>15</title>
<path fill="#e78c4b" stroke="black" d="M961.5,-157C961.5,-157 824.5,-157 824.5,-157 818.5,-157 812.5,-151 812.5,-145 812.5,-145 812.5,-101 812.5,-101 812.5,-95 818.5,-89 824.5,-89 824.5,-89 961.5,-89 961.5,-89 967.5,-89 973.5,-95 973.5,-101 973.5,-101 973.5,-145 973.5,-145 973.5,-151 967.5,-157 961.5,-157"/>
<text text-anchor="start" x="836" y="-141.8" font-family="Helvetica,sans-Serif" font-size="14.00">odometer ≤ 6.325</text>
<text text-anchor="start" x="874.5" y="-126.8" font-family="Helvetica,sans-Serif" font-size="14.00">0.414</text>
<text text-anchor="start" x="876" y="-111.8" font-family="Helvetica,sans-Serif" font-size="14.00">1.0%</text>
<text text-anchor="start" x="820.5" y="-96.8" font-family="Helvetica,sans-Serif" font-size="14.00">[0.917, 0.083, 0.0, 0.0]</text>
</g>
<!-- 14&#45;&gt;15 -->
<g id="edge15" class="edge">
<title>14&#45;&gt;15</title>
<path fill="none" stroke="black" d="M1059.13,-192.88C1034.62,-182.72 1007.5,-171.48 982.4,-161.07"/>
<polygon fill="black" stroke="black" points="983.47,-157.72 972.89,-157.12 980.79,-164.19 983.47,-157.72"/>
</g>
<!-- 18 -->
<g id="node19" class="node">
<title>18</title>
<path fill="#95f08d" stroke="black" d="M1211.5,-157C1211.5,-157 1066.5,-157 1066.5,-157 1060.5,-157 1054.5,-151 1054.5,-145 1054.5,-145 1054.5,-101 1054.5,-101 1054.5,-95 1060.5,-89 1066.5,-89 1066.5,-89 1211.5,-89 1211.5,-89 1217.5,-89 1223.5,-95 1223.5,-101 1223.5,-101 1223.5,-145 1223.5,-145 1223.5,-151 1217.5,-157 1211.5,-157"/>
<text text-anchor="start" x="1082" y="-141.8" font-family="Helvetica,sans-Serif" font-size="14.00">odometer ≤ 6.372</text>
<text text-anchor="start" x="1120.5" y="-126.8" font-family="Helvetica,sans-Serif" font-size="14.00">0.992</text>
<text text-anchor="start" x="1122" y="-111.8" font-family="Helvetica,sans-Serif" font-size="14.00">8.4%</text>
<text text-anchor="start" x="1062.5" y="-96.8" font-family="Helvetica,sans-Serif" font-size="14.00">[0.02, 0.697, 0.283, 0.0]</text>
</g>
<!-- 14&#45;&gt;18 -->
<g id="edge18" class="edge">
<title>14&#45;&gt;18</title>
<path fill="none" stroke="black" d="M1139,-192.88C1139,-184.78 1139,-175.98 1139,-167.47"/>
<polygon fill="black" stroke="black" points="1142.5,-167.3 1139,-157.3 1135.5,-167.3 1142.5,-167.3"/>
</g>
<!-- 16 -->
<g id="node17" class="node">
<title>16</title>
<path fill="#ffffff" stroke="black" d="M799,-53C799,-53 695,-53 695,-53 689,-53 683,-47 683,-41 683,-41 683,-12 683,-12 683,-6 689,0 695,0 695,0 799,0 799,0 805,0 811,-6 811,-12 811,-12 811,-41 811,-41 811,-47 805,-53 799,-53"/>
<text text-anchor="start" x="736.5" y="-37.8" font-family="Helvetica,sans-Serif" font-size="14.00">1.0</text>
<text text-anchor="start" x="730" y="-22.8" font-family="Helvetica,sans-Serif" font-size="14.00">0.2%</text>
<text text-anchor="start" x="691" y="-7.8" font-family="Helvetica,sans-Serif" font-size="14.00">[0.5, 0.5, 0.0, 0.0]</text>
</g>
<!-- 15&#45;&gt;16 -->
<g id="edge16" class="edge">
<title>15&#45;&gt;16</title>
<path fill="none" stroke="black" d="M841.94,-88.95C826.81,-79.16 810.31,-68.48 795.36,-58.8"/>
<polygon fill="black" stroke="black" points="797.06,-55.73 786.76,-53.24 793.26,-61.61 797.06,-55.73"/>
</g>
<!-- 17 -->
<g id="node18" class="node">
<title>17</title>
<path fill="#e58139" stroke="black" d="M945,-53C945,-53 841,-53 841,-53 835,-53 829,-47 829,-41 829,-41 829,-12 829,-12 829,-6 835,0 841,0 841,0 945,0 945,0 951,0 957,-6 957,-12 957,-12 957,-41 957,-41 957,-47 951,-53 945,-53"/>
<text text-anchor="start" x="882.5" y="-37.8" font-family="Helvetica,sans-Serif" font-size="14.00">0.0</text>
<text text-anchor="start" x="876" y="-22.8" font-family="Helvetica,sans-Serif" font-size="14.00">0.8%</text>
<text text-anchor="start" x="837" y="-7.8" font-family="Helvetica,sans-Serif" font-size="14.00">[1.0, 0.0, 0.0, 0.0]</text>
</g>
<!-- 15&#45;&gt;17 -->
<g id="edge17" class="edge">
<title>15&#45;&gt;17</title>
<path fill="none" stroke="black" d="M893,-88.95C893,-80.72 893,-71.85 893,-63.48"/>
<polygon fill="black" stroke="black" points="896.5,-63.24 893,-53.24 889.5,-63.24 896.5,-63.24"/>
</g>
<!-- 19 -->
<g id="node20" class="node">
<title>19</title>
<path fill="#c6f7c2" stroke="black" d="M1124.5,-53C1124.5,-53 987.5,-53 987.5,-53 981.5,-53 975.5,-47 975.5,-41 975.5,-41 975.5,-12 975.5,-12 975.5,-6 981.5,0 987.5,0 987.5,0 1124.5,0 1124.5,0 1130.5,0 1136.5,-6 1136.5,-12 1136.5,-12 1136.5,-41 1136.5,-41 1136.5,-47 1130.5,-53 1124.5,-53"/>
<text text-anchor="start" x="1037.5" y="-37.8" font-family="Helvetica,sans-Serif" font-size="14.00">0.976</text>
<text text-anchor="start" x="1039" y="-22.8" font-family="Helvetica,sans-Serif" font-size="14.00">4.2%</text>
<text text-anchor="start" x="983.5" y="-7.8" font-family="Helvetica,sans-Serif" font-size="14.00">[0.0, 0.592, 0.408, 0.0]</text>
</g>
<!-- 18&#45;&gt;19 -->
<g id="edge19" class="edge">
<title>18&#45;&gt;19</title>
<path fill="none" stroke="black" d="M1109.97,-88.95C1102.02,-79.89 1093.39,-70.07 1085.41,-60.99"/>
<polygon fill="black" stroke="black" points="1087.83,-58.44 1078.6,-53.24 1082.57,-63.06 1087.83,-58.44"/>
</g>
<!-- 20 -->
<g id="node21" class="node">
<title>20</title>
<path fill="#73eb68" stroke="black" d="M1287,-53C1287,-53 1167,-53 1167,-53 1161,-53 1155,-47 1155,-41 1155,-41 1155,-12 1155,-12 1155,-6 1161,0 1167,0 1167,0 1287,0 1287,0 1293,0 1299,-6 1299,-12 1299,-12 1299,-41 1299,-41 1299,-47 1293,-53 1287,-53"/>
<text text-anchor="start" x="1208.5" y="-37.8" font-family="Helvetica,sans-Serif" font-size="14.00">0.866</text>
<text text-anchor="start" x="1210" y="-22.8" font-family="Helvetica,sans-Serif" font-size="14.00">4.2%</text>
<text text-anchor="start" x="1163" y="-7.8" font-family="Helvetica,sans-Serif" font-size="14.00">[0.04, 0.8, 0.16, 0.0]</text>
</g>
<!-- 18&#45;&gt;20 -->
<g id="edge20" class="edge">
<title>18&#45;&gt;20</title>
<path fill="none" stroke="black" d="M1169.78,-88.95C1178.3,-79.8 1187.54,-69.87 1196.07,-60.71"/>
<polygon fill="black" stroke="black" points="1198.78,-62.94 1203.03,-53.24 1193.66,-58.17 1198.78,-62.94"/>
</g>
<!-- 22 -->
<g id="node23" class="node">
<title>22</title>
<path fill="#e78d4c" stroke="black" d="M1551.5,-157C1551.5,-157 1414.5,-157 1414.5,-157 1408.5,-157 1402.5,-151 1402.5,-145 1402.5,-145 1402.5,-101 1402.5,-101 1402.5,-95 1408.5,-89 1414.5,-89 1414.5,-89 1551.5,-89 1551.5,-89 1557.5,-89 1563.5,-95 1563.5,-101 1563.5,-101 1563.5,-145 1563.5,-145 1563.5,-151 1557.5,-157 1551.5,-157"/>
<text text-anchor="start" x="1427.5" y="-141.8" font-family="Helvetica,sans-Serif" font-size="14.00">fuel_type ≤ 0.913</text>
<text text-anchor="start" x="1464.5" y="-126.8" font-family="Helvetica,sans-Serif" font-size="14.00">0.426</text>
<text text-anchor="start" x="1462" y="-111.8" font-family="Helvetica,sans-Serif" font-size="14.00">35.2%</text>
<text text-anchor="start" x="1410.5" y="-96.8" font-family="Helvetica,sans-Serif" font-size="14.00">[0.913, 0.087, 0.0, 0.0]</text>
</g>
<!-- 21&#45;&gt;22 -->
<g id="edge22" class="edge">
<title>21&#45;&gt;22</title>
<path fill="none" stroke="black" d="M1483,-192.88C1483,-184.78 1483,-175.98 1483,-167.47"/>
<polygon fill="black" stroke="black" points="1486.5,-167.3 1483,-157.3 1479.5,-167.3 1486.5,-167.3"/>
</g>
<!-- 25 -->
<g id="node26" class="node">
<title>25</title>
<path fill="#5ee852" stroke="black" d="M1832.5,-157C1832.5,-157 1679.5,-157 1679.5,-157 1673.5,-157 1667.5,-151 1667.5,-145 1667.5,-145 1667.5,-101 1667.5,-101 1667.5,-95 1673.5,-89 1679.5,-89 1679.5,-89 1832.5,-89 1832.5,-89 1838.5,-89 1844.5,-95 1844.5,-101 1844.5,-101 1844.5,-145 1844.5,-145 1844.5,-151 1838.5,-157 1832.5,-157"/>
<text text-anchor="start" x="1704" y="-141.8" font-family="Helvetica,sans-Serif" font-size="14.00">year ≤ 2005.551</text>
<text text-anchor="start" x="1737.5" y="-126.8" font-family="Helvetica,sans-Serif" font-size="14.00">0.641</text>
<text text-anchor="start" x="1735" y="-111.8" font-family="Helvetica,sans-Serif" font-size="14.00">25.1%</text>
<text text-anchor="start" x="1675.5" y="-96.8" font-family="Helvetica,sans-Serif" font-size="14.00">[0.051, 0.882, 0.068, 0.0]</text>
</g>
<!-- 21&#45;&gt;25 -->
<g id="edge25" class="edge">
<title>21&#45;&gt;25</title>
<path fill="none" stroke="black" d="M1571.64,-192.88C1599.19,-182.59 1629.73,-171.18 1657.89,-160.66"/>
<polygon fill="black" stroke="black" points="1659.2,-163.9 1667.34,-157.12 1656.75,-157.35 1659.2,-163.9"/>
</g>
<!-- 23 -->
<g id="node24" class="node">
<title>23</title>
<path fill="#ea9b62" stroke="black" d="M1466.5,-53C1466.5,-53 1329.5,-53 1329.5,-53 1323.5,-53 1317.5,-47 1317.5,-41 1317.5,-41 1317.5,-12 1317.5,-12 1317.5,-6 1323.5,0 1329.5,0 1329.5,0 1466.5,0 1466.5,0 1472.5,0 1478.5,-6 1478.5,-12 1478.5,-12 1478.5,-41 1478.5,-41 1478.5,-47 1472.5,-53 1466.5,-53"/>
<text text-anchor="start" x="1379.5" y="-37.8" font-family="Helvetica,sans-Serif" font-size="14.00">0.665</text>
<text text-anchor="start" x="1377" y="-22.8" font-family="Helvetica,sans-Serif" font-size="14.00">15.2%</text>
<text text-anchor="start" x="1325.5" y="-7.8" font-family="Helvetica,sans-Serif" font-size="14.00">[0.827, 0.173, 0.0, 0.0]</text>
</g>
<!-- 22&#45;&gt;23 -->
<g id="edge23" class="edge">
<title>22&#45;&gt;23</title>
<path fill="none" stroke="black" d="M1453.27,-88.95C1445.04,-79.8 1436.11,-69.87 1427.87,-60.71"/>
<polygon fill="black" stroke="black" points="1430.44,-58.33 1421.15,-53.24 1425.23,-63.01 1430.44,-58.33"/>
</g>
<!-- 24 -->
<g id="node25" class="node">
<title>24</title>
<path fill="#e6843d" stroke="black" d="M1645.5,-53C1645.5,-53 1508.5,-53 1508.5,-53 1502.5,-53 1496.5,-47 1496.5,-41 1496.5,-41 1496.5,-12 1496.5,-12 1496.5,-6 1502.5,0 1508.5,0 1508.5,0 1645.5,0 1645.5,0 1651.5,0 1657.5,-6 1657.5,-12 1657.5,-12 1657.5,-41 1657.5,-41 1657.5,-47 1651.5,-53 1645.5,-53"/>
<text text-anchor="start" x="1558.5" y="-37.8" font-family="Helvetica,sans-Serif" font-size="14.00">0.148</text>
<text text-anchor="start" x="1556" y="-22.8" font-family="Helvetica,sans-Serif" font-size="14.00">20.0%</text>
<text text-anchor="start" x="1504.5" y="-7.8" font-family="Helvetica,sans-Serif" font-size="14.00">[0.979, 0.021, 0.0, 0.0]</text>
</g>
<!-- 22&#45;&gt;24 -->
<g id="edge24" class="edge">
<title>22&#45;&gt;24</title>
<path fill="none" stroke="black" d="M1515.88,-88.95C1525.07,-79.71 1535.05,-69.67 1544.24,-60.44"/>
<polygon fill="black" stroke="black" points="1546.83,-62.79 1551.4,-53.24 1541.87,-57.86 1546.83,-62.79"/>
</g>
<!-- 26 -->
<g id="node27" class="node">
<title>26</title>
<path fill="#6aea5f" stroke="black" d="M1824.5,-53C1824.5,-53 1687.5,-53 1687.5,-53 1681.5,-53 1675.5,-47 1675.5,-41 1675.5,-41 1675.5,-12 1675.5,-12 1675.5,-6 1681.5,0 1687.5,0 1687.5,0 1824.5,0 1824.5,0 1830.5,0 1836.5,-6 1836.5,-12 1836.5,-12 1836.5,-41 1836.5,-41 1836.5,-47 1830.5,-53 1824.5,-53"/>
<text text-anchor="start" x="1737.5" y="-37.8" font-family="Helvetica,sans-Serif" font-size="14.00">0.637</text>
<text text-anchor="start" x="1739" y="-22.8" font-family="Helvetica,sans-Serif" font-size="14.00">5.3%</text>
<text text-anchor="start" x="1683.5" y="-7.8" font-family="Helvetica,sans-Serif" font-size="14.00">[0.161, 0.839, 0.0, 0.0]</text>
</g>
<!-- 25&#45;&gt;26 -->
<g id="edge26" class="edge">
<title>25&#45;&gt;26</title>
<path fill="none" stroke="black" d="M1756,-88.95C1756,-80.72 1756,-71.85 1756,-63.48"/>
<polygon fill="black" stroke="black" points="1759.5,-63.24 1756,-53.24 1752.5,-63.24 1759.5,-63.24"/>
</g>
<!-- 27 -->
<g id="node28" class="node">
<title>27</title>
<path fill="#5ce850" stroke="black" d="M2019.5,-53C2019.5,-53 1866.5,-53 1866.5,-53 1860.5,-53 1854.5,-47 1854.5,-41 1854.5,-41 1854.5,-12 1854.5,-12 1854.5,-6 1860.5,0 1866.5,0 1866.5,0 2019.5,0 2019.5,0 2025.5,0 2031.5,-6 2031.5,-12 2031.5,-12 2031.5,-41 2031.5,-41 2031.5,-47 2025.5,-53 2019.5,-53"/>
<text text-anchor="start" x="1924.5" y="-37.8" font-family="Helvetica,sans-Serif" font-size="14.00">0.567</text>
<text text-anchor="start" x="1922" y="-22.8" font-family="Helvetica,sans-Serif" font-size="14.00">19.9%</text>
<text text-anchor="start" x="1862.5" y="-7.8" font-family="Helvetica,sans-Serif" font-size="14.00">[0.021, 0.893, 0.085, 0.0]</text>
</g>
<!-- 25&#45;&gt;27 -->
<g id="edge27" class="edge">
<title>25&#45;&gt;27</title>
<path fill="none" stroke="black" d="M1821.4,-88.95C1841.5,-78.79 1863.5,-67.67 1883.2,-57.72"/>
<polygon fill="black" stroke="black" points="1885.02,-60.72 1892.37,-53.09 1881.86,-54.47 1885.02,-60.72"/>
</g>
<!-- 29 -->
<g id="node30" class="node">
<title>29</title>
<path fill="#e3f1fb" stroke="black" d="M2433.5,-365C2433.5,-365 2296.5,-365 2296.5,-365 2290.5,-365 2284.5,-359 2284.5,-353 2284.5,-353 2284.5,-309 2284.5,-309 2284.5,-303 2290.5,-297 2296.5,-297 2296.5,-297 2433.5,-297 2433.5,-297 2439.5,-297 2445.5,-303 2445.5,-309 2445.5,-309 2445.5,-353 2445.5,-353 2445.5,-359 2439.5,-365 2433.5,-365"/>
<text text-anchor="start" x="2308" y="-349.8" font-family="Helvetica,sans-Serif" font-size="14.00">odometer ≤ 6.628</text>
<text text-anchor="start" x="2346.5" y="-334.8" font-family="Helvetica,sans-Serif" font-size="14.00">0.996</text>
<text text-anchor="start" x="2348" y="-319.8" font-family="Helvetica,sans-Serif" font-size="14.00">4.4%</text>
<text text-anchor="start" x="2292.5" y="-304.8" font-family="Helvetica,sans-Serif" font-size="14.00">[0.0, 0.0, 0.538, 0.462]</text>
</g>
<!-- 28&#45;&gt;29 -->
<g id="edge29" class="edge">
<title>28&#45;&gt;29</title>
<path fill="none" stroke="black" d="M2365,-400.88C2365,-392.78 2365,-383.98 2365,-375.47"/>
<polygon fill="black" stroke="black" points="2368.5,-375.3 2365,-365.3 2361.5,-375.3 2368.5,-375.3"/>
</g>
<!-- 44 -->
<g id="node45" class="node">
<title>44</title>
<path fill="#d739e5" stroke="black" d="M2580,-357.5C2580,-357.5 2476,-357.5 2476,-357.5 2470,-357.5 2464,-351.5 2464,-345.5 2464,-345.5 2464,-316.5 2464,-316.5 2464,-310.5 2470,-304.5 2476,-304.5 2476,-304.5 2580,-304.5 2580,-304.5 2586,-304.5 2592,-310.5 2592,-316.5 2592,-316.5 2592,-345.5 2592,-345.5 2592,-351.5 2586,-357.5 2580,-357.5"/>
<text text-anchor="start" x="2517.5" y="-342.3" font-family="Helvetica,sans-Serif" font-size="14.00">0.0</text>
<text text-anchor="start" x="2511" y="-327.3" font-family="Helvetica,sans-Serif" font-size="14.00">0.3%</text>
<text text-anchor="start" x="2472" y="-312.3" font-family="Helvetica,sans-Serif" font-size="14.00">[0.0, 0.0, 0.0, 1.0]</text>
</g>
<!-- 28&#45;&gt;44 -->
<g id="edge44" class="edge">
<title>28&#45;&gt;44</title>
<path fill="none" stroke="black" d="M2417.92,-400.88C2437.43,-388.68 2459.44,-374.9 2478.62,-362.9"/>
<polygon fill="black" stroke="black" points="2480.6,-365.79 2487.22,-357.52 2476.88,-359.86 2480.6,-365.79"/>
</g>
<!-- 30 -->
<g id="node31" class="node">
<title>30</title>
<path fill="#b6dbf5" stroke="black" d="M2433.5,-261C2433.5,-261 2296.5,-261 2296.5,-261 2290.5,-261 2284.5,-255 2284.5,-249 2284.5,-249 2284.5,-205 2284.5,-205 2284.5,-199 2290.5,-193 2296.5,-193 2296.5,-193 2433.5,-193 2433.5,-193 2439.5,-193 2445.5,-199 2445.5,-205 2445.5,-205 2445.5,-249 2445.5,-249 2445.5,-255 2439.5,-261 2433.5,-261"/>
<text text-anchor="start" x="2299" y="-245.8" font-family="Helvetica,sans-Serif" font-size="14.00">transmission ≤ 0.904</text>
<text text-anchor="start" x="2346.5" y="-230.8" font-family="Helvetica,sans-Serif" font-size="14.00">0.963</text>
<text text-anchor="start" x="2348" y="-215.8" font-family="Helvetica,sans-Serif" font-size="14.00">2.6%</text>
<text text-anchor="start" x="2292.5" y="-200.8" font-family="Helvetica,sans-Serif" font-size="14.00">[0.0, 0.0, 0.613, 0.387]</text>
</g>
<!-- 29&#45;&gt;30 -->
<g id="edge30" class="edge">
<title>29&#45;&gt;30</title>
<path fill="none" stroke="black" d="M2365,-296.88C2365,-288.78 2365,-279.98 2365,-271.47"/>
<polygon fill="black" stroke="black" points="2368.5,-271.3 2365,-261.3 2361.5,-271.3 2368.5,-271.3"/>
</g>
<!-- 37 -->
<g id="node38" class="node">
<title>37</title>
<path fill="#f5cef8" stroke="black" d="M2867.5,-261C2867.5,-261 2730.5,-261 2730.5,-261 2724.5,-261 2718.5,-255 2718.5,-249 2718.5,-249 2718.5,-205 2718.5,-205 2718.5,-199 2724.5,-193 2730.5,-193 2730.5,-193 2867.5,-193 2867.5,-193 2873.5,-193 2879.5,-199 2879.5,-205 2879.5,-205 2879.5,-249 2879.5,-249 2879.5,-255 2873.5,-261 2867.5,-261"/>
<text text-anchor="start" x="2747" y="-245.8" font-family="Helvetica,sans-Serif" font-size="14.00">year ≤ 2015.826</text>
<text text-anchor="start" x="2780.5" y="-230.8" font-family="Helvetica,sans-Serif" font-size="14.00">0.985</text>
<text text-anchor="start" x="2782" y="-215.8" font-family="Helvetica,sans-Serif" font-size="14.00">1.8%</text>
<text text-anchor="start" x="2726.5" y="-200.8" font-family="Helvetica,sans-Serif" font-size="14.00">[0.0, 0.0, 0.429, 0.571]</text>
</g>
<!-- 29&#45;&gt;37 -->
<g id="edge37" class="edge">
<title>29&#45;&gt;37</title>
<path fill="none" stroke="black" d="M2445.76,-299.72C2448.87,-298.77 2451.96,-297.86 2455,-297 2539.66,-273.14 2638.26,-254.24 2708.14,-242.3"/>
<polygon fill="black" stroke="black" points="2708.96,-245.71 2718.24,-240.59 2707.79,-238.81 2708.96,-245.71"/>
</g>
<!-- 31 -->
<g id="node32" class="node">
<title>31</title>
<path fill="#93caf1" stroke="black" d="M2344.5,-157C2344.5,-157 2207.5,-157 2207.5,-157 2201.5,-157 2195.5,-151 2195.5,-145 2195.5,-145 2195.5,-101 2195.5,-101 2195.5,-95 2201.5,-89 2207.5,-89 2207.5,-89 2344.5,-89 2344.5,-89 2350.5,-89 2356.5,-95 2356.5,-101 2356.5,-101 2356.5,-145 2356.5,-145 2356.5,-151 2350.5,-157 2344.5,-157"/>
<text text-anchor="start" x="2224" y="-141.8" font-family="Helvetica,sans-Serif" font-size="14.00">year ≤ 2017.036</text>
<text text-anchor="start" x="2257.5" y="-126.8" font-family="Helvetica,sans-Serif" font-size="14.00">0.896</text>
<text text-anchor="start" x="2259" y="-111.8" font-family="Helvetica,sans-Serif" font-size="14.00">1.4%</text>
<text text-anchor="start" x="2203.5" y="-96.8" font-family="Helvetica,sans-Serif" font-size="14.00">[0.0, 0.0, 0.688, 0.312]</text>
</g>
<!-- 30&#45;&gt;31 -->
<g id="edge31" class="edge">
<title>30&#45;&gt;31</title>
<path fill="none" stroke="black" d="M2336.1,-192.88C2328.33,-183.98 2319.83,-174.24 2311.74,-164.96"/>
<polygon fill="black" stroke="black" points="2314.27,-162.53 2305.06,-157.3 2308.99,-167.14 2314.27,-162.53"/>
</g>
<!-- 34 -->
<g id="node35" class="node">
<title>34</title>
<path fill="#e6f3fc" stroke="black" d="M2523.5,-157C2523.5,-157 2386.5,-157 2386.5,-157 2380.5,-157 2374.5,-151 2374.5,-145 2374.5,-145 2374.5,-101 2374.5,-101 2374.5,-95 2380.5,-89 2386.5,-89 2386.5,-89 2523.5,-89 2523.5,-89 2529.5,-89 2535.5,-95 2535.5,-101 2535.5,-101 2535.5,-145 2535.5,-145 2535.5,-151 2529.5,-157 2523.5,-157"/>
<text text-anchor="start" x="2399.5" y="-141.8" font-family="Helvetica,sans-Serif" font-size="14.00">fuel_type ≤ 0.585</text>
<text text-anchor="start" x="2436.5" y="-126.8" font-family="Helvetica,sans-Serif" font-size="14.00">0.997</text>
<text text-anchor="start" x="2438" y="-111.8" font-family="Helvetica,sans-Serif" font-size="14.00">1.3%</text>
<text text-anchor="start" x="2382.5" y="-96.8" font-family="Helvetica,sans-Serif" font-size="14.00">[0.0, 0.0, 0.533, 0.467]</text>
</g>
<!-- 30&#45;&gt;34 -->
<g id="edge34" class="edge">
<title>30&#45;&gt;34</title>
<path fill="none" stroke="black" d="M2394.22,-192.88C2402.08,-183.98 2410.67,-174.24 2418.86,-164.96"/>
<polygon fill="black" stroke="black" points="2421.63,-167.11 2425.62,-157.3 2416.38,-162.48 2421.63,-167.11"/>
</g>
<!-- 32 -->
<g id="node33" class="node">
<title>32</title>
<path fill="#81c1ee" stroke="black" d="M2198.5,-53C2198.5,-53 2061.5,-53 2061.5,-53 2055.5,-53 2049.5,-47 2049.5,-41 2049.5,-41 2049.5,-12 2049.5,-12 2049.5,-6 2055.5,0 2061.5,0 2061.5,0 2198.5,0 2198.5,0 2204.5,0 2210.5,-6 2210.5,-12 2210.5,-12 2210.5,-41 2210.5,-41 2210.5,-47 2204.5,-53 2198.5,-53"/>
<text text-anchor="start" x="2111.5" y="-37.8" font-family="Helvetica,sans-Serif" font-size="14.00">0.837</text>
<text text-anchor="start" x="2113" y="-22.8" font-family="Helvetica,sans-Serif" font-size="14.00">1.3%</text>
<text text-anchor="start" x="2057.5" y="-7.8" font-family="Helvetica,sans-Serif" font-size="14.00">[0.0, 0.0, 0.733, 0.267]</text>
</g>
<!-- 31&#45;&gt;32 -->
<g id="edge32" class="edge">
<title>31&#45;&gt;32</title>
<path fill="none" stroke="black" d="M2224.94,-88.95C2209.81,-79.16 2193.31,-68.48 2178.36,-58.8"/>
<polygon fill="black" stroke="black" points="2180.06,-55.73 2169.76,-53.24 2176.26,-61.61 2180.06,-55.73"/>
</g>
<!-- 33 -->
<g id="node34" class="node">
<title>33</title>
<path fill="#d739e5" stroke="black" d="M2345,-53C2345,-53 2241,-53 2241,-53 2235,-53 2229,-47 2229,-41 2229,-41 2229,-12 2229,-12 2229,-6 2235,0 2241,0 2241,0 2345,0 2345,0 2351,0 2357,-6 2357,-12 2357,-12 2357,-41 2357,-41 2357,-47 2351,-53 2345,-53"/>
<text text-anchor="start" x="2282.5" y="-37.8" font-family="Helvetica,sans-Serif" font-size="14.00">0.0</text>
<text text-anchor="start" x="2276" y="-22.8" font-family="Helvetica,sans-Serif" font-size="14.00">0.1%</text>
<text text-anchor="start" x="2237" y="-7.8" font-family="Helvetica,sans-Serif" font-size="14.00">[0.0, 0.0, 0.0, 1.0]</text>
</g>
<!-- 31&#45;&gt;33 -->
<g id="edge33" class="edge">
<title>31&#45;&gt;33</title>
<path fill="none" stroke="black" d="M2281.95,-88.95C2283.44,-80.62 2285.06,-71.65 2286.58,-63.2"/>
<polygon fill="black" stroke="black" points="2290.04,-63.7 2288.37,-53.24 2283.15,-62.46 2290.04,-63.7"/>
</g>
<!-- 35 -->
<g id="node36" class="node">
<title>35</title>
<path fill="#e16aec" stroke="black" d="M2491,-53C2491,-53 2387,-53 2387,-53 2381,-53 2375,-47 2375,-41 2375,-41 2375,-12 2375,-12 2375,-6 2381,0 2387,0 2387,0 2491,0 2491,0 2497,0 2503,-6 2503,-12 2503,-12 2503,-41 2503,-41 2503,-47 2497,-53 2491,-53"/>
<text text-anchor="start" x="2420.5" y="-37.8" font-family="Helvetica,sans-Serif" font-size="14.00">0.722</text>
<text text-anchor="start" x="2422" y="-22.8" font-family="Helvetica,sans-Serif" font-size="14.00">0.4%</text>
<text text-anchor="start" x="2383" y="-7.8" font-family="Helvetica,sans-Serif" font-size="14.00">[0.0, 0.0, 0.2, 0.8]</text>
</g>
<!-- 34&#45;&gt;35 -->
<g id="edge35" class="edge">
<title>34&#45;&gt;35</title>
<path fill="none" stroke="black" d="M2449.4,-88.95C2447.99,-80.62 2446.48,-71.65 2445.04,-63.2"/>
<polygon fill="black" stroke="black" points="2448.48,-62.51 2443.36,-53.24 2441.58,-63.68 2448.48,-62.51"/>
</g>
<!-- 36 -->
<g id="node37" class="node">
<title>36</title>
<path fill="#8ec7f0" stroke="black" d="M2637,-53C2637,-53 2533,-53 2533,-53 2527,-53 2521,-47 2521,-41 2521,-41 2521,-12 2521,-12 2521,-6 2527,0 2533,0 2533,0 2637,0 2637,0 2643,0 2649,-6 2649,-12 2649,-12 2649,-41 2649,-41 2649,-47 2643,-53 2637,-53"/>
<text text-anchor="start" x="2566.5" y="-37.8" font-family="Helvetica,sans-Serif" font-size="14.00">0.881</text>
<text text-anchor="start" x="2568" y="-22.8" font-family="Helvetica,sans-Serif" font-size="14.00">0.8%</text>
<text text-anchor="start" x="2529" y="-7.8" font-family="Helvetica,sans-Serif" font-size="14.00">[0.0, 0.0, 0.7, 0.3]</text>
</g>
<!-- 34&#45;&gt;36 -->
<g id="edge36" class="edge">
<title>34&#45;&gt;36</title>
<path fill="none" stroke="black" d="M2500.47,-88.95C2513.68,-79.34 2528.08,-68.87 2541.19,-59.34"/>
<polygon fill="black" stroke="black" points="2543.56,-61.95 2549.6,-53.24 2539.45,-56.29 2543.56,-61.95"/>
</g>
<!-- 38 -->
<g id="node39" class="node">
<title>38</title>
<path fill="#deeffb" stroke="black" d="M2867.5,-157C2867.5,-157 2730.5,-157 2730.5,-157 2724.5,-157 2718.5,-151 2718.5,-145 2718.5,-145 2718.5,-101 2718.5,-101 2718.5,-95 2724.5,-89 2730.5,-89 2730.5,-89 2867.5,-89 2867.5,-89 2873.5,-89 2879.5,-95 2879.5,-101 2879.5,-101 2879.5,-145 2879.5,-145 2879.5,-151 2873.5,-157 2867.5,-157"/>
<text text-anchor="start" x="2743.5" y="-141.8" font-family="Helvetica,sans-Serif" font-size="14.00">fuel_type ≤ 0.511</text>
<text text-anchor="start" x="2780.5" y="-126.8" font-family="Helvetica,sans-Serif" font-size="14.00">0.994</text>
<text text-anchor="start" x="2782" y="-111.8" font-family="Helvetica,sans-Serif" font-size="14.00">0.9%</text>
<text text-anchor="start" x="2726.5" y="-96.8" font-family="Helvetica,sans-Serif" font-size="14.00">[0.0, 0.0, 0.545, 0.455]</text>
</g>
<!-- 37&#45;&gt;38 -->
<g id="edge38" class="edge">
<title>37&#45;&gt;38</title>
<path fill="none" stroke="black" d="M2799,-192.88C2799,-184.78 2799,-175.98 2799,-167.47"/>
<polygon fill="black" stroke="black" points="2802.5,-167.3 2799,-157.3 2795.5,-167.3 2802.5,-167.3"/>
</g>
<!-- 41 -->
<g id="node42" class="node">
<title>41</title>
<path fill="#e88ef0" stroke="black" d="M3102,-157C3102,-157 2978,-157 2978,-157 2972,-157 2966,-151 2966,-145 2966,-145 2966,-101 2966,-101 2966,-95 2972,-89 2978,-89 2978,-89 3102,-89 3102,-89 3108,-89 3114,-95 3114,-101 3114,-101 3114,-145 3114,-145 3114,-151 3108,-157 3102,-157"/>
<text text-anchor="start" x="2974" y="-141.8" font-family="Helvetica,sans-Serif" font-size="14.00">transmission ≤ 0.534</text>
<text text-anchor="start" x="3021.5" y="-126.8" font-family="Helvetica,sans-Serif" font-size="14.00">0.881</text>
<text text-anchor="start" x="3023" y="-111.8" font-family="Helvetica,sans-Serif" font-size="14.00">0.8%</text>
<text text-anchor="start" x="2984" y="-96.8" font-family="Helvetica,sans-Serif" font-size="14.00">[0.0, 0.0, 0.3, 0.7]</text>
</g>
<!-- 37&#45;&gt;41 -->
<g id="edge41" class="edge">
<title>37&#45;&gt;41</title>
<path fill="none" stroke="black" d="M2877.25,-192.88C2902.58,-182.16 2930.78,-170.23 2956.48,-159.35"/>
<polygon fill="black" stroke="black" points="2957.99,-162.51 2965.83,-155.39 2955.26,-156.07 2957.99,-162.51"/>
</g>
<!-- 39 -->
<g id="node40" class="node">
<title>39</title>
<path fill="#bddef6" stroke="black" d="M2783,-53C2783,-53 2679,-53 2679,-53 2673,-53 2667,-47 2667,-41 2667,-41 2667,-12 2667,-12 2667,-6 2673,0 2679,0 2679,0 2783,0 2783,0 2789,0 2795,-6 2795,-12 2795,-12 2795,-41 2795,-41 2795,-47 2789,-53 2783,-53"/>
<text text-anchor="start" x="2712.5" y="-37.8" font-family="Helvetica,sans-Serif" font-size="14.00">0.971</text>
<text text-anchor="start" x="2714" y="-22.8" font-family="Helvetica,sans-Serif" font-size="14.00">0.8%</text>
<text text-anchor="start" x="2675" y="-7.8" font-family="Helvetica,sans-Serif" font-size="14.00">[0.0, 0.0, 0.6, 0.4]</text>
</g>
<!-- 38&#45;&gt;39 -->
<g id="edge39" class="edge">
<title>38&#45;&gt;39</title>
<path fill="none" stroke="black" d="M2775.22,-88.95C2768.83,-80.07 2761.92,-70.46 2755.49,-61.54"/>
<polygon fill="black" stroke="black" points="2758.2,-59.31 2749.52,-53.24 2752.52,-63.4 2758.2,-59.31"/>
</g>
<!-- 40 -->
<g id="node41" class="node">
<title>40</title>
<path fill="#d739e5" stroke="black" d="M2929,-53C2929,-53 2825,-53 2825,-53 2819,-53 2813,-47 2813,-41 2813,-41 2813,-12 2813,-12 2813,-6 2819,0 2825,0 2825,0 2929,0 2929,0 2935,0 2941,-6 2941,-12 2941,-12 2941,-41 2941,-41 2941,-47 2935,-53 2929,-53"/>
<text text-anchor="start" x="2866.5" y="-37.8" font-family="Helvetica,sans-Serif" font-size="14.00">0.0</text>
<text text-anchor="start" x="2860" y="-22.8" font-family="Helvetica,sans-Serif" font-size="14.00">0.1%</text>
<text text-anchor="start" x="2821" y="-7.8" font-family="Helvetica,sans-Serif" font-size="14.00">[0.0, 0.0, 0.0, 1.0]</text>
</g>
<!-- 38&#45;&gt;40 -->
<g id="edge40" class="edge">
<title>38&#45;&gt;40</title>
<path fill="none" stroke="black" d="M2826.28,-88.95C2833.76,-79.89 2841.86,-70.07 2849.36,-60.99"/>
<polygon fill="black" stroke="black" points="2852.09,-63.18 2855.76,-53.24 2846.69,-58.72 2852.09,-63.18"/>
</g>
<!-- 42 -->
<g id="node43" class="node">
<title>42</title>
<path fill="#f5cef8" stroke="black" d="M3108.5,-53C3108.5,-53 2971.5,-53 2971.5,-53 2965.5,-53 2959.5,-47 2959.5,-41 2959.5,-41 2959.5,-12 2959.5,-12 2959.5,-6 2965.5,0 2971.5,0 2971.5,0 3108.5,0 3108.5,0 3114.5,0 3120.5,-6 3120.5,-12 3120.5,-12 3120.5,-41 3120.5,-41 3120.5,-47 3114.5,-53 3108.5,-53"/>
<text text-anchor="start" x="3021.5" y="-37.8" font-family="Helvetica,sans-Serif" font-size="14.00">0.985</text>
<text text-anchor="start" x="3023" y="-22.8" font-family="Helvetica,sans-Serif" font-size="14.00">0.6%</text>
<text text-anchor="start" x="2967.5" y="-7.8" font-family="Helvetica,sans-Serif" font-size="14.00">[0.0, 0.0, 0.429, 0.571]</text>
</g>
<!-- 41&#45;&gt;42 -->
<g id="edge42" class="edge">
<title>41&#45;&gt;42</title>
<path fill="none" stroke="black" d="M3040,-88.95C3040,-80.72 3040,-71.85 3040,-63.48"/>
<polygon fill="black" stroke="black" points="3043.5,-63.24 3040,-53.24 3036.5,-63.24 3043.5,-63.24"/>
</g>
<!-- 43 -->
<g id="node44" class="node">
<title>43</title>
<path fill="#d739e5" stroke="black" d="M3255,-53C3255,-53 3151,-53 3151,-53 3145,-53 3139,-47 3139,-41 3139,-41 3139,-12 3139,-12 3139,-6 3145,0 3151,0 3151,0 3255,0 3255,0 3261,0 3267,-6 3267,-12 3267,-12 3267,-41 3267,-41 3267,-47 3261,-53 3255,-53"/>
<text text-anchor="start" x="3192.5" y="-37.8" font-family="Helvetica,sans-Serif" font-size="14.00">0.0</text>
<text text-anchor="start" x="3186" y="-22.8" font-family="Helvetica,sans-Serif" font-size="14.00">0.3%</text>
<text text-anchor="start" x="3147" y="-7.8" font-family="Helvetica,sans-Serif" font-size="14.00">[0.0, 0.0, 0.0, 1.0]</text>
</g>
<!-- 41&#45;&gt;43 -->
<g id="edge43" class="edge">
<title>41&#45;&gt;43</title>
<path fill="none" stroke="black" d="M3097.01,-88.95C3114.29,-78.93 3133.18,-67.98 3150.17,-58.13"/>
<polygon fill="black" stroke="black" points="3151.97,-61.13 3158.87,-53.09 3148.46,-55.07 3151.97,-61.13"/>
</g>
</g>
</svg>
